SplineFontDB: 3.0
FontName: Enriqueta-Regular
FullName: Enriqueta Regular
FamilyName: Enriqueta
Weight: Regular
Copyright: Copyright (c) 2011, FontFuror (info@fontfuror.com), with Reserved Font Names "Enriqueta" and "Enriqueta Pro".
Version: 001.001
ItalicAngle: 0
UnderlinePosition: -50
UnderlineWidth: 50
Ascent: 800
Descent: 200
sfntRevision: 0x00010083
LayerCount: 2
Layer: 0 1 "Back"  1
Layer: 1 1 "Fore"  0
XUID: [1021 288 713564382 12148087]
FSType: 0
OS2Version: 2
OS2_WeightWidthSlopeOnly: 0
OS2_UseTypoMetrics: 1
CreationTime: 1323677378
ModificationTime: 1323707044
PfmFamily: 17
TTFWeight: 400
TTFWidth: 5
LineGap: 0
VLineGap: 0
Panose: 2 0 0 0 0 0 0 0 0 0
OS2TypoAscent: 1077
OS2TypoAOffset: 0
OS2TypoDescent: -261
OS2TypoDOffset: 0
OS2TypoLinegap: 0
OS2WinAscent: 1077
OS2WinAOffset: 0
OS2WinDescent: 261
OS2WinDOffset: 0
HheadAscent: 1077
HheadAOffset: 0
HheadDescent: -261
HheadDOffset: 0
OS2SubXSize: 700
OS2SubYSize: 650
OS2SubXOff: 0
OS2SubYOff: 140
OS2SupXSize: 700
OS2SupYSize: 650
OS2SupXOff: 0
OS2SupYOff: 477
OS2StrikeYSize: 50
OS2StrikeYPos: 250
OS2Vendor: 'pyrs'
OS2CodePages: 00000001.00000000
OS2UnicodeRanges: 0000002f.00000000.00000000.00000000
MarkAttachClasses: 1
DEI: 91125
TtTable: prep
PUSHW_1
 511
SCANCTRL
PUSHB_1
 4
SCANTYPE
EndTTInstrs
LangName: 1033 "" "" "" "VivianaMonsalve,GustavoIbarra: Enriqueta: 2010" "Enriqueta-Regular" "Version 1.002" "" "Enriqueta is a trademark of Viviana Monsalve & Gustavo Ibarra." "Viviana Monsalve, Gustavo Ibarra" "Viviana Monsalve, Gustavo Ibarra" "" "www.fontfuror.com" "www.fontfuror.com" "This Font Software is licensed under the SIL Open Font License, Version 1.1. This license is available with a FAQ at: http://scripts.sil.org/OFL" "http://scripts.sil.org/OFL" "" "" "" "Enriqueta" 
GaspTable: 1 65535 3
Encoding: UnicodeBmp
UnicodeInterp: none
NameList: Adobe Glyph List
DisplaySize: -36
AntiAlias: 1
FitToEm: 1
WinInfo: 34 34 13
BeginPrivate: 5
BlueValues 31 [-10 0 480 490 720 730 780 790]
OtherBlues 11 [-250 -240]

StartChar: Eth
Encoding: 208 208 1
Width: 718
Flags: MW
HStem: 0 73<226 342 342 357> 319 73<58 140 58 140 226 409> 647 73<226 342 226 226>
VStem: 140 86<109 319 73 319 392 618 618 630.5> 575 97<263 477.5>
LayerCount: 2
Fore
SplineSet
58 319 m 1,0,-1
 58 392 l 1,1,-1
 140 392 l 1,2,-1
 140 618 l 2,3,4
 140 638 140 638 134.5 647 c 128,-1,5
 129 656 129 656 111 658 c 2,6,-1
 58 664 l 1,7,-1
 58 720 l 1,8,-1
 357 720 l 2,9,10
 672 720 672 720 672 371 c 0,11,12
 672 199 672 199 596 99.5 c 128,-1,13
 520 0 520 0 357 0 c 2,14,-1
 58 0 l 1,15,-1
 58 60 l 1,16,-1
 111 69 l 2,17,18
 129 72 129 72 134.5 80.5 c 128,-1,19
 140 89 140 89 140 109 c 2,20,-1
 140 319 l 1,21,-1
 58 319 l 1,0,-1
518.5 142 m 128,-1,23
 575 211 575 211 575 368.5 c 128,-1,24
 575 526 575 526 519.5 586.5 c 128,-1,25
 464 647 464 647 342 647 c 2,26,-1
 226 647 l 1,27,-1
 226 392 l 1,28,-1
 409 392 l 1,29,-1
 409 319 l 1,30,-1
 226 319 l 1,31,-1
 226 73 l 1,32,-1
 342 73 l 2,33,22
 462 73 462 73 518.5 142 c 128,-1,23
EndSplineSet
EndChar

StartChar: eth
Encoding: 240 240 2
Width: 517
Flags: MW
HStem: -10 66<201 269 201 308> 424 66<217.5 280.5 183.5 300.5> 772 20G<153 153>
VStem: 25 86<180.5 262.5 180.5 297.5> 381 86<217.5 307>
LayerCount: 2
Fore
SplineSet
467 281 m 0,0,1
 467 151 467 151 406 70.5 c 128,-1,2
 345 -10 345 -10 221 -10 c 0,3,4
 121 -10 121 -10 73 57.5 c 128,-1,5
 25 125 25 125 25 240 c 0,6,7
 25 335 25 335 89 412.5 c 128,-1,8
 153 490 153 490 259 490 c 0,9,10
 290 490 290 490 320.5 478 c 128,-1,11
 351 466 351 466 361 451 c 1,12,13
 332 560 332 560 243 648 c 1,14,-1
 134 580 l 1,15,-1
 104 626 l 1,16,-1
 200 686 l 1,17,18
 156 720 156 720 120 741 c 1,19,-1
 153 792 l 1,20,21
 211 763 211 763 262 724 c 1,22,-1
 356 783 l 1,23,-1
 385 738 l 1,24,-1
 304 687 l 1,25,26
 467 531 467 531 467 281 c 0,0,1
239 424 m 0,27,28
 183 424 183 424 149 392 c 0,29,30
 131 375 131 375 121 328 c 128,-1,31
 111 281 111 281 111 236 c 0,32,33
 111 151 111 151 145.5 103.5 c 128,-1,34
 180 56 180 56 246.5 56 c 0,35,36
 313 56 313 56 342 87 c 0,37,38
 381 129 381 129 381 237 c 0,39,40
 381 345 381 345 354 384.5 c 128,-1,41
 327 424 327 424 239 424 c 0,27,28
EndSplineSet
EndChar

StartChar: Lslash
Encoding: 321 321 3
Width: 556
Flags: MW
HStem: 0 73<226 425 425 437 226 542> 0 177<469 536 469 542> 700 20G<58 314 314 314>
VStem: 58 168<0 338 59 338> 140 86<106 288 288 288 408 614> 140 231<106 492 288 492 423 492 423 614 423 626.5> 466 73
LayerCount: 2
Fore
SplineSet
61 242 m 1,0,-1
 61 312 l 1,1,-1
 140 358 l 1,2,-1
 140 614 l 2,3,4
 140 634 140 634 134.5 641.5 c 128,-1,5
 129 649 129 649 111 652 c 2,6,-1
 58 661 l 1,7,-1
 58 720 l 1,8,-1
 314 720 l 1,9,-1
 314 661 l 1,10,-1
 255 652 l 2,11,12
 237 649 237 649 231.5 641.5 c 128,-1,13
 226 634 226 634 226 614 c 2,14,-1
 226 408 l 1,15,-1
 371 492 l 1,16,-1
 371 423 l 1,17,-1
 226 338 l 1,18,-1
 226 73 l 1,19,-1
 425 73 l 2,20,21
 444 73 444 73 453 78.5 c 128,-1,22
 462 84 462 84 463 102 c 2,23,-1
 469 177 l 1,24,-1
 536 177 l 1,25,-1
 542 0 l 1,26,-1
 58 0 l 1,27,-1
 58 59 l 1,28,-1
 111 68 l 2,29,30
 129 71 129 71 134.5 78.5 c 128,-1,31
 140 86 140 86 140 106 c 2,32,-1
 140 288 l 1,33,-1
 61 242 l 1,0,-1
EndSplineSet
EndChar

StartChar: lslash
Encoding: 322 322 4
Width: 309
Flags: MW
HStem: 0 21G<42 277 42 42> 760 20G<42 199 199 199>
VStem: 42 157<0 98 54 98 728 780> 55 144<299 367 367 367> 120 79<98 337 337 337 452 686 686 699> 120 147<98 492 337 492 423 492 423 686>
LayerCount: 2
Fore
SplineSet
42 780 m 1,0,-1
 199 780 l 1,1,-1
 199 452 l 1,2,-1
 267 492 l 1,3,-1
 267 423 l 1,4,-1
 199 383 l 1,5,-1
 199 98 l 2,6,7
 199 76 199 76 203 69 c 128,-1,8
 207 62 207 62 222 60 c 2,9,-1
 277 54 l 1,10,-1
 277 0 l 1,11,-1
 42 0 l 1,12,-1
 42 54 l 1,13,-1
 97 60 l 2,14,15
 112 62 112 62 116 69 c 128,-1,16
 120 76 120 76 120 98 c 2,17,-1
 120 337 l 1,18,-1
 55 299 l 1,19,-1
 55 367 l 1,20,-1
 120 405 l 1,21,-1
 120 686 l 2,22,23
 120 707 120 707 116 714 c 128,-1,24
 112 721 112 721 97 722 c 2,25,-1
 42 728 l 1,26,-1
 42 780 l 1,0,-1
EndSplineSet
EndChar

StartChar: Scaron
Encoding: 352 352 5
Width: 537
Flags: MW
HStem: -10 70<246 318 246 339.5> 547 182<196 462 196 390> 662 67<219 278.5> 729 25<243 307> 901 20G<167 167 394 394>
VStem: 46 92<521.5 589.5 521.5 594.5> 425 89<143 212>
LayerCount: 2
Fore
SplineSet
318 754 m 1,0,-1
 243 754 l 1,1,-1
 128 889 l 1,2,-1
 167 921 l 1,3,-1
 280 815 l 1,4,-1
 394 921 l 1,5,-1
 432 889 l 1,6,-1
 318 754 l 1,0,-1
131 197 m 1,7,-1
 146 95 l 1,8,9
 204 60 204 60 272.5 60 c 128,-1,10
 341 60 341 60 383 92.5 c 128,-1,11
 425 125 425 125 425 176.5 c 128,-1,12
 425 228 425 228 399.5 256 c 128,-1,13
 374 284 374 284 302 311 c 2,14,-1
 180 357 l 2,15,16
 119 380 119 380 82.5 426 c 128,-1,17
 46 472 46 472 46 539 c 0,18,19
 46 626 46 626 103.5 677.5 c 128,-1,20
 161 729 161 729 262 729 c 128,-1,21
 363 729 363 729 476 702 c 1,22,-1
 462 547 l 1,23,-1
 390 547 l 1,24,-1
 375 637 l 1,25,26
 321 662 321 662 258 662 c 0,27,28
 138 662 138 662 138 551 c 0,29,30
 138 506 138 506 164 477.5 c 128,-1,31
 190 449 190 449 255 426 c 2,32,-1
 340 396 l 2,33,34
 416.186046512 368.651162791 416.186046512 368.651162791 451.593023256 340.325581395 c 128,-1,35
 487 312 487 312 500.5 279 c 128,-1,36
 514 246 514 246 514 202 c 0,37,38
 514 106 514 106 446.5 48 c 128,-1,39
 379 -10 379 -10 254 -10 c 0,40,41
 169.2 -10 169.2 -10 109 11.5 c 0,42,43
 88 19 88 19 46 36 c 1,44,-1
 58 197 l 1,45,-1
 131 197 l 1,7,-1
EndSplineSet
EndChar

StartChar: scaron
Encoding: 353 353 6
Width: 440
Flags: MW
HStem: -10 62<193 239.5 193 266> 433 57<193.5 232.5> 490 64<186 254> 716 20G<116 116 332 332>
VStem: 50 78<347 395.5 347 407> 322 81<96.5 146>
LayerCount: 2
Fore
SplineSet
100.5 458 m 128,-1,1
 151 490 151 490 221 490 c 128,-1,2
 291 490 291 490 381 462 c 1,3,-1
 374 345 l 1,4,-1
 316 345 l 1,5,-1
 302 418 l 1,6,7
 262 433 262 433 219 433 c 0,8,9
 128 433 128 433 128 370 c 0,10,11
 128 339 128 339 156 321 c 128,-1,12
 184 303 184 303 258 278.5 c 128,-1,13
 332 254 332 254 367.5 224 c 128,-1,14
 403 194 403 194 403 140 c 0,15,16
 403 71 403 71 348.5 30.5 c 128,-1,17
 294 -10 294 -10 212 -10 c 128,-1,18
 130 -10 130 -10 43 25 c 1,19,-1
 50 146 l 1,20,-1
 110 146 l 1,21,-1
 119 73 l 1,22,23
 171 52 171 52 211 52 c 0,24,25
 322 52 322 52 322 125 c 0,26,27
 322 154 322 154 291.5 174 c 128,-1,28
 261 194 261 194 188.5 216.5 c 128,-1,29
 116 239 116 239 83 271.5 c 128,-1,30
 50 304 50 304 50 365 c 128,-1,0
 50 426 50 426 100.5 458 c 128,-1,1
261 554 m 1,31,-1
 186 554 l 1,32,-1
 78 704 l 1,33,-1
 116 736 l 1,34,-1
 224 615 l 1,35,-1
 332 736 l 1,36,-1
 371 704 l 1,37,-1
 261 554 l 1,31,-1
EndSplineSet
EndChar

StartChar: Yacute
Encoding: 221 221 7
Width: 670
Flags: MW
HStem: 0 21G<206 464 206 206> 700 20G<-4 265 265 265 420 668 668 668> 915 20G<474 474>
VStem: 292 86<106 254 254 254>
LayerCount: 2
Fore
SplineSet
474 935 m 1,0,-1
 523 868 l 1,1,-1
 370 764 l 2,2,3
 354 754 354 754 343 754 c 0,4,5
 320 754 320 754 295 783 c 1,6,-1
 474 935 l 1,0,-1
292 254 m 1,7,-1
 94 614 l 2,8,9
 81 636 81 636 69 644.5 c 128,-1,10
 57 653 57 653 34 656 c 2,11,-1
 -4 661 l 1,12,-1
 -4 720 l 1,13,-1
 265 720 l 1,14,-1
 265 662 l 1,15,-1
 215 656 l 1,16,17
 183 651 183 651 183 637 c 0,18,19
 183 630 183 630 191 614 c 2,20,-1
 348 331 l 1,21,-1
 498 614 l 2,22,23
 505 627 505 627 505 635 c 0,24,25
 505 650 505 650 470 655 c 2,26,-1
 420 661 l 1,27,-1
 420 720 l 1,28,-1
 668 720 l 1,29,-1
 668 661 l 1,30,-1
 630 656 l 2,31,32
 610 653 610 653 601.5 645.5 c 128,-1,33
 593 638 593 638 580 614 c 2,34,-1
 378 256 l 1,35,-1
 378 106 l 2,36,37
 378 86 378 86 383.5 78.5 c 128,-1,38
 389 71 389 71 407 68 c 2,39,-1
 464 59 l 1,40,-1
 464 0 l 1,41,-1
 206 0 l 1,42,-1
 206 59 l 1,43,-1
 263 68 l 2,44,45
 281 71 281 71 286.5 78.5 c 128,-1,46
 292 86 292 86 292 106 c 2,47,-1
 292 254 l 1,7,-1
EndSplineSet
EndChar

StartChar: yacute
Encoding: 253 253 8
Width: 523
Flags: MW
HStem: -250 63<89 103 62.5 138.5> 460 20G<-14 218 218 218 307 526 526 526> 732 20G<372 372>
LayerCount: 2
Fore
SplineSet
482 422 m 2,0,1
 463.043478261 420.104347826 463.043478261 420.104347826 453 396 c 0,2,3
 448 384 448 384 254 -130 c 1,4,5
 211 -250 211 -250 105 -250 c 0,6,7
 49 -250 49 -250 15 -238 c 1,8,-1
 5 -179 l 1,9,10
 56 -187 56 -187 77 -187 c 0,11,12
 116 -187 116 -187 147.5 -160.5 c 128,-1,13
 179 -134 179 -134 197 -85 c 2,14,-1
 220 -22 l 1,15,-1
 64 384 l 2,16,17
 60 392 60 392 59 396 c 128,-1,18
 58 400 58 400 56.5 403.5 c 128,-1,19
 55 407 55 407 54 408.5 c 128,-1,20
 53 410 53 410 51 412.5 c 128,-1,21
 49 415 49 415 47 416 c 128,-1,22
 45 417 45 417 42.5 418.5 c 0,23,24
 36.6666666667 422 36.6666666667 422 30 422 c 2,25,-1
 -14 428 l 1,26,-1
 -14 480 l 1,27,-1
 218 480 l 1,28,-1
 218 429 l 1,29,-1
 167 423 l 2,30,31
 144 420 144 420 144 406 c 0,32,33
 144 399 144 399 150 384 c 2,34,-1
 265 76 l 1,35,-1
 377 384 l 2,36,37
 382 399 382 399 382 405 c 0,38,39
 382 420 382 420 358 423 c 2,40,-1
 307 429 l 1,41,-1
 307 480 l 1,42,-1
 526 480 l 1,43,-1
 526 428 l 1,44,-1
 482 422 l 2,0,1
372 752 m 1,45,-1
 430 692 l 1,46,-1
 293 568 l 2,47,48
 278 554 278 554 260 554 c 128,-1,49
 242 554 242 554 216 576 c 1,50,-1
 372 752 l 1,45,-1
EndSplineSet
EndChar

StartChar: Thorn
Encoding: 222 222 9
Width: 564
Flags: MW
HStem: 0 241<224 297 297 306 56 297> 178 63<224 297 297 300 224 297> 533 61<224 312 224 321> 533 187<224 306 56 312 224 224>
VStem: 56 250<0 59 0 59 661 720> 140 84<106 178 241 533 594 614> 448 93<371.5 461.5>
LayerCount: 2
Fore
SplineSet
306 59 m 1,0,-1
 306 0 l 1,1,-1
 56 0 l 1,2,-1
 56 59 l 1,3,-1
 111 68 l 2,4,5
 129 71 129 71 134.5 78.5 c 128,-1,6
 140 86 140 86 140 106 c 2,7,-1
 140 614 l 2,8,9
 140 634 140 634 134.5 641.5 c 128,-1,10
 129 649 129 649 111 652 c 2,11,-1
 56 661 l 1,12,-1
 56 720 l 1,13,-1
 306 720 l 1,14,-1
 306 661 l 1,15,-1
 253 652 l 2,16,17
 235 649 235 649 229.5 641.5 c 128,-1,18
 224 634 224 634 224 614 c 2,19,-1
 224 594 l 1,20,-1
 321 594 l 2,21,22
 427 594 427 594 484 555 c 128,-1,23
 541 516 541 516 541 412.5 c 0,24,25
 541 309 541 309 468.5 243.5 c 128,-1,26
 396 178 396 178 300 178 c 2,27,-1
 224 178 l 1,28,-1
 224 106 l 2,29,30
 224 86 224 86 229.5 78.5 c 128,-1,31
 235 71 235 71 253 68 c 2,32,-1
 306 59 l 1,0,-1
224 241 m 1,33,-1
 297 241 l 2,34,35
 370 241 370 241 401 265 c 0,36,37
 448 302 448 302 448 412 c 0,38,39
 448 533 448 533 312 533 c 2,40,-1
 224 533 l 1,41,-1
 224 241 l 1,33,-1
EndSplineSet
EndChar

StartChar: thorn
Encoding: 254 254 10
Width: 569
Flags: MW
HStem: -240 21G<30 285 30 30> -10 66<285.5 326.5 285.5 356.5> 424 66<299.5 352.5> 760 20G<30 189 189 189>
VStem: 30 159<-240 -142 -186 -142 728 780> 110 79<-142 11 94 355 418 684 684 698> 444 86<213.5 304.5>
LayerCount: 2
Fore
SplineSet
110 -142 m 2,0,-1
 110 684 l 2,1,2
 110 705 110 705 105 713 c 128,-1,3
 100 721 100 721 85 722 c 2,4,-1
 30 728 l 1,5,-1
 30 780 l 1,6,-1
 189 780 l 1,7,-1
 189 418 l 1,8,9
 248 490 248 490 341.5 490 c 0,10,11
 435 490 435 490 482.5 424.5 c 128,-1,12
 530 359 530 359 530 247.5 c 0,13,14
 530 136 530 136 461 63 c 128,-1,15
 392 -10 392 -10 288 -10 c 0,16,17
 228 -10 228 -10 189 11 c 1,18,-1
 189 -142 l 2,19,20
 189 -164 189 -164 193 -171.5 c 128,-1,21
 197 -179 197 -179 212 -180 c 2,22,-1
 285 -187 l 1,23,-1
 285 -240 l 1,24,-1
 30 -240 l 1,25,-1
 30 -186 l 1,26,-1
 87 -180 l 2,27,28
 102 -179 102 -179 106 -171.5 c 128,-1,29
 110 -164 110 -164 110 -142 c 2,0,-1
189 355 m 1,30,-1
 189 94 l 1,31,32
 234 56 234 56 302.5 56 c 0,33,34
 371 56 371 56 403 87 c 1,35,36
 422 108 422 108 433 152 c 128,-1,37
 444 196 444 196 444 247 c 0,38,39
 444 333 444 333 409 378.5 c 128,-1,40
 374 424 374 424 309 424 c 0,41,42
 273 424 273 424 236 399 c 128,-1,43
 199 374 199 374 189 355 c 1,30,-1
EndSplineSet
EndChar

StartChar: Zcaron
Encoding: 381 381 12
Width: 624
Flags: MW
HStem: 0 73<160 474 474 486 58 58> 551 169<79 145 79 79> 650 70<177 189 189 469 73 571> 720 34<288 363 288 571> 901 20G<212 212 439 439>
VStem: 515 73
LayerCount: 2
Fore
SplineSet
363 754 m 1,0,-1
 288 754 l 1,1,-1
 173 889 l 1,2,-1
 212 921 l 1,3,-1
 325 815 l 1,4,-1
 439 921 l 1,5,-1
 477 889 l 1,6,-1
 363 754 l 1,0,-1
469 650 m 1,7,-1
 189 650 l 2,8,9
 170 650 170 650 161 644.5 c 128,-1,10
 152 639 152 639 151 621 c 2,11,-1
 145 551 l 1,12,-1
 79 551 l 1,13,-1
 73 720 l 1,14,-1
 571 720 l 1,15,-1
 571 650 l 1,16,-1
 160 73 l 1,17,-1
 474 73 l 2,18,19
 493 73 493 73 502 78.5 c 128,-1,20
 511 84 511 84 512 102 c 2,21,-1
 518 177 l 1,22,-1
 585 177 l 1,23,-1
 591 0 l 1,24,-1
 58 0 l 1,25,-1
 58 73 l 1,26,-1
 469 650 l 1,7,-1
EndSplineSet
EndChar

StartChar: zcaron
Encoding: 382 382 13
Width: 503
Flags: MW
HStem: 0 63<143 356 356 370 143 463> 419 61<142 156 156 351> 480 74<214 289 214 451> 716 20G<144 144 360 360>
LayerCount: 2
Fore
SplineSet
351 419 m 1,0,-1
 156 419 l 2,1,2
 134 419 134 419 126 415 c 128,-1,3
 118 411 118 411 117 396 c 2,4,-1
 110 331 l 1,5,-1
 56 331 l 1,6,-1
 49 480 l 1,7,-1
 451 480 l 1,8,-1
 451 422 l 1,9,-1
 143 63 l 1,10,-1
 356 63 l 2,11,12
 378 63 378 63 386 67 c 128,-1,13
 394 71 394 71 395 86 c 2,14,-1
 402 159 l 1,15,-1
 457 159 l 1,16,-1
 463 0 l 1,17,-1
 43 0 l 1,18,-1
 43 60 l 1,19,-1
 351 419 l 1,0,-1
289 554 m 1,20,-1
 214 554 l 1,21,-1
 106 704 l 1,22,-1
 144 736 l 1,23,-1
 252 615 l 1,24,-1
 360 736 l 1,25,-1
 399 704 l 1,26,-1
 289 554 l 1,20,-1
EndSplineSet
EndChar

StartChar: onehalf
Encoding: 189 189 14
Width: 871
Flags: MW
HStem: 0 60<627 841 627 841> 394 53<675.5 714> 710 20G<624 684 684 684>
VStem: 45 159<598 661 661 661> 766 75<288 345.5>
LayerCount: 2
Fore
SplineSet
204 719 m 1,0,-1
 204 364 l 2,1,2
 204 344 204 344 207.5 337 c 128,-1,3
 211 330 211 330 225 329 c 2,4,-1
 285 323 l 1,5,-1
 285 275 l 1,6,-1
 61 275 l 1,7,-1
 61 323 l 1,8,-1
 119 329 l 2,9,10
 133 330 133 330 137 337.5 c 128,-1,11
 141 345 141 345 141 364 c 2,12,-1
 141 639 l 1,13,-1
 45 598 l 1,14,-1
 45 661 l 1,15,-1
 164 719 l 1,16,-1
 204 719 l 1,0,-1
841 60 m 1,17,-1
 841 0 l 1,18,-1
 542 0 l 1,19,-1
 542 14 l 2,20,21
 542 82.2222222222 542 82.2222222222 576 120 c 0,22,23
 594 140 594 140 608 150.5 c 128,-1,24
 622 161 622 161 654.5 182 c 128,-1,25
 687 203 687 203 706.5 218 c 128,-1,26
 726 233 726 233 746 261.5 c 128,-1,27
 766 290 766 290 766 321 c 0,28,29
 766 394 766 394 690 394 c 0,30,31
 651 394 651 394 619 380 c 1,32,-1
 605 310 l 1,33,-1
 554 310 l 1,34,-1
 548 419 l 1,35,36
 632 447 632 447 702 447 c 128,-1,37
 772 447 772 447 806.5 414.5 c 128,-1,38
 841 382 841 382 841 328 c 0,39,40
 841 262 841 262 798 219 c 0,41,42
 775 196 775 196 757.5 183 c 128,-1,43
 740 170 740 170 720.5 157 c 128,-1,44
 701 144 701 144 690 137 c 128,-1,45
 679 130 679 130 675 127.5 c 128,-1,46
 671 125 671 125 662.5 118.5 c 128,-1,47
 654 112 654 112 650.5 108.5 c 128,-1,48
 647 105 647 105 641 98.5 c 128,-1,49
 635 92 635 92 633 87 c 0,50,51
 627 72 627 72 627 60 c 1,52,-1
 841 60 l 1,17,-1
624 730 m 1,53,-1
 684 730 l 1,54,-1
 234 0 l 1,55,-1
 175 0 l 1,56,-1
 624 730 l 1,53,-1
EndSplineSet
EndChar

StartChar: onequarter
Encoding: 188 188 15
Width: 774
Flags: MW
HStem: 0 21G<175 234 175 175 640 640 640 703> 100 54<490 640 412 439 703 774> 710 20G<624 684 684 684>
VStem: 45 159<598 661 661 661> 640 63<0 100 0 100 154 285>
LayerCount: 2
Fore
SplineSet
204 719 m 1,0,-1
 204 364 l 2,1,2
 204 344 204 344 207.5 337 c 128,-1,3
 211 330 211 330 225 329 c 2,4,-1
 285 323 l 1,5,-1
 285 275 l 1,6,-1
 61 275 l 1,7,-1
 61 323 l 1,8,-1
 119 329 l 2,9,10
 133 330 133 330 137 337.5 c 128,-1,11
 141 345 141 345 141 364 c 2,12,-1
 141 639 l 1,13,-1
 45 598 l 1,14,-1
 45 661 l 1,15,-1
 164 719 l 1,16,-1
 204 719 l 1,0,-1
624 730 m 1,17,-1
 684 730 l 1,18,-1
 234 0 l 1,19,-1
 175 0 l 1,20,-1
 624 730 l 1,17,-1
774 154 m 1,21,-1
 774 100 l 1,22,-1
 703 100 l 1,23,-1
 703 0 l 1,24,-1
 640 0 l 1,25,-1
 640 100 l 1,26,-1
 439 100 l 1,27,-1
 412 154 l 1,28,-1
 640 451 l 1,29,-1
 681 416 l 1,30,-1
 490 154 l 1,31,-1
 640 154 l 1,32,-1
 640 285 l 1,33,-1
 703 285 l 1,34,-1
 703 154 l 1,35,-1
 774 154 l 1,21,-1
EndSplineSet
EndChar

StartChar: onesuperior
Encoding: 185 185 16
Width: 305
Flags: MW
HStem: 275 21G<61 285 61 61> 699 20G<164 204 204 204>
VStem: 45 159<598 661 661 661>
LayerCount: 2
Fore
SplineSet
204 719 m 1,0,-1
 204 364 l 2,1,2
 204 344 204 344 207.5 337 c 128,-1,3
 211 330 211 330 225 329 c 2,4,-1
 285 323 l 1,5,-1
 285 275 l 1,6,-1
 61 275 l 1,7,-1
 61 323 l 1,8,-1
 119 329 l 2,9,10
 133 330 133 330 137 337.5 c 128,-1,11
 141 345 141 345 141 364 c 2,12,-1
 141 639 l 1,13,-1
 45 598 l 1,14,-1
 45 661 l 1,15,-1
 164 719 l 1,16,-1
 204 719 l 1,0,-1
EndSplineSet
EndChar

StartChar: threequarters
Encoding: 190 190 17
Width: 795
Flags: MW
HStem: 0 21G<196 255 196 196 661 661 661 724> 100 54<511 661 433 460 724 795> 266 53<143.5 194 143.5 219> 676 50<166.5 198> 710 20G<645 705 705 705>
VStem: 257 60 257 75<384.5 425 368.5 426> 661 63<0 100 0 100 154 285>
LayerCount: 2
Fore
SplineSet
645 730 m 1,0,-1
 705 730 l 1,1,-1
 255 0 l 1,2,-1
 196 0 l 1,3,-1
 645 730 l 1,0,-1
795 154 m 1,4,-1
 795 100 l 1,5,-1
 724 100 l 1,6,-1
 724 0 l 1,7,-1
 661 0 l 1,8,-1
 661 100 l 1,9,-1
 460 100 l 1,10,-1
 433 154 l 1,11,-1
 661 451 l 1,12,-1
 702 416 l 1,13,-1
 511 154 l 1,14,-1
 661 154 l 1,15,-1
 661 285 l 1,16,-1
 724 285 l 1,17,-1
 724 154 l 1,18,-1
 795 154 l 1,4,-1
110 484 m 1,19,-1
 106 531 l 1,20,21
 247 557 247 557 247 628 c 0,22,23
 247 649 247 649 228 662.5 c 128,-1,24
 209 676 209 676 173.5 676 c 0,25,26
 138 676 138 676 111 668 c 1,27,-1
 101 613 l 1,28,-1
 54 613 l 1,29,-1
 48 706 l 1,30,31
 130 726 130 726 193 726 c 0,32,33
 256 726 256 726 286.5 699.5 c 128,-1,34
 317 673 317 673 317 636 c 0,35,36
 317 555 317 555 215 520 c 1,37,38
 269 507 269 507 300 487 c 1,39,40
 332 463 332 463 332 405.5 c 0,41,42
 332 348 332 348 287 307 c 128,-1,43
 242 266 242 266 169.5 266 c 0,44,45
 97 266 97 266 25 298 c 1,46,-1
 39 344 l 1,47,48
 114 319 114 319 160.5 319 c 0,49,50
 207 319 207 319 232 345 c 128,-1,51
 257 371 257 371 257 403 c 0,52,53
 257 470 257 470 171 478 c 2,54,-1
 110 484 l 1,19,-1
EndSplineSet
EndChar

StartChar: threesuperior
Encoding: 179 179 18
Width: 357
Flags: MW
HStem: 266 53<143.5 194 143.5 219> 676 50<166.5 198>
VStem: 257 60 257 75<384.5 425 368.5 426>
LayerCount: 2
Fore
SplineSet
110 484 m 1,0,-1
 106 531 l 1,1,2
 247 557 247 557 247 628 c 0,3,4
 247 649 247 649 228 662.5 c 128,-1,5
 209 676 209 676 173.5 676 c 0,6,7
 138 676 138 676 111 668 c 1,8,-1
 101 613 l 1,9,-1
 54 613 l 1,10,-1
 48 706 l 1,11,12
 130 726 130 726 193 726 c 0,13,14
 256 726 256 726 286.5 699.5 c 128,-1,15
 317 673 317 673 317 636 c 0,16,17
 317 555 317 555 215 520 c 1,18,19
 269 507 269 507 300 487 c 1,20,21
 332 463 332 463 332 405.5 c 0,22,23
 332 348 332 348 287 307 c 128,-1,24
 242 266 242 266 169.5 266 c 0,25,26
 97 266 97 266 25 298 c 1,27,-1
 39 344 l 1,28,29
 114 319 114 319 160.5 319 c 0,30,31
 207 319 207 319 232 345 c 128,-1,32
 257 371 257 371 257 403 c 0,33,34
 257 470 257 470 171 478 c 2,35,-1
 110 484 l 1,0,-1
EndSplineSet
EndChar

StartChar: twosuperior
Encoding: 178 178 19
Width: 359
Flags: MW
HStem: 279 60<115 329 115 329> 673 53<163.5 202>
VStem: 254 75<567 624.5>
LayerCount: 2
Fore
SplineSet
329 339 m 1,0,-1
 329 279 l 1,1,-1
 30 279 l 1,2,-1
 30 293 l 2,3,4
 30 361.222222222 30 361.222222222 64 399 c 0,5,6
 82 419 82 419 96 429.5 c 128,-1,7
 110 440 110 440 142.5 461 c 128,-1,8
 175 482 175 482 194.5 497 c 128,-1,9
 214 512 214 512 234 540.5 c 128,-1,10
 254 569 254 569 254 600 c 0,11,12
 254 673 254 673 178 673 c 0,13,14
 139 673 139 673 107 659 c 1,15,-1
 93 589 l 1,16,-1
 42 589 l 1,17,-1
 36 698 l 1,18,19
 120 726 120 726 190 726 c 128,-1,20
 260 726 260 726 294.5 693.5 c 128,-1,21
 329 661 329 661 329 607 c 0,22,23
 329 541 329 541 286 498 c 0,24,25
 263 475 263 475 245.5 462 c 128,-1,26
 228 449 228 449 208.5 436 c 128,-1,27
 189 423 189 423 178 416 c 128,-1,28
 167 409 167 409 163 406.5 c 128,-1,29
 159 404 159 404 150.5 397.5 c 128,-1,30
 142 391 142 391 138.5 387.5 c 128,-1,31
 135 384 135 384 129 377.5 c 128,-1,32
 123 371 123 371 121 366 c 0,33,34
 115 351 115 351 115 339 c 1,35,-1
 329 339 l 1,0,-1
EndSplineSet
EndChar

StartChar: brokenbar
Encoding: 166 166 20
Width: 304
Flags: MW
HStem: -240 21G<115 189 115 115> 770 20G<115 189 189 189>
VStem: 115 74<-240 140 -240 140 410 790>
LayerCount: 2
Fore
SplineSet
115 790 m 1,0,-1
 189 790 l 1,1,-1
 189 410 l 1,2,-1
 115 410 l 1,3,-1
 115 790 l 1,0,-1
115 140 m 1,4,-1
 189 140 l 1,5,-1
 189 -240 l 1,6,-1
 115 -240 l 1,7,-1
 115 140 l 1,4,-1
EndSplineSet
EndChar

StartChar: minus
Encoding: 8722 8722 21
Width: 516
Flags: MW
HStem: 201 68<40 476 40 476>
LayerCount: 2
Fore
SplineSet
40 201 m 1,0,-1
 40 269 l 1,1,-1
 476 269 l 1,2,-1
 476 201 l 1,3,-1
 40 201 l 1,0,-1
EndSplineSet
EndChar

StartChar: multiply
Encoding: 215 215 22
Width: 478
Flags: MW
HStem: 36 21G<88 88> 411 20G<90 90>
LayerCount: 2
Fore
SplineSet
88 36 m 1,0,-1
 43 88 l 1,1,-1
 192 234 l 1,2,-1
 44 385 l 1,3,-1
 90 431 l 1,4,-1
 238 280 l 1,5,-1
 389 428 l 1,6,-1
 435 383 l 1,7,-1
 285 233 l 1,8,-1
 430 85 l 1,9,-1
 385 39 l 1,10,-1
 239 187 l 1,11,-1
 88 36 l 1,0,-1
EndSplineSet
EndChar

StartChar: exclam
Encoding: 33 33 24
Width: 325
Flags: MW
HStem: -10 130<149.5 184.5> 700 20G<113 212 212 212>
VStem: 100 130<39.5 79 39.5 80.5> 124 77
LayerCount: 2
Fore
SplineSet
100 57 m 128,-1,1
 100 91 100 91 118 105.5 c 128,-1,2
 136 120 136 120 168 120 c 128,-1,3
 200 120 200 120 215 104 c 128,-1,4
 230 88 230 88 230 57 c 0,5,6
 230 -10 230 -10 156 -10 c 0,7,8
 122 -10 122 -10 111 6.5 c 128,-1,0
 100 23 100 23 100 57 c 128,-1,1
132 174 m 1,9,-1
 117 558 l 1,10,-1
 113 720 l 1,11,-1
 212 720 l 1,12,-1
 209 558 l 1,13,-1
 193 174 l 1,14,-1
 132 174 l 1,9,-1
EndSplineSet
EndChar

StartChar: quotedbl
Encoding: 34 34 25
Width: 366
Flags: MW
HStem: 537 21G<72 132 72 72 234 234 234 294> 770 20G<87 125 249 287>
VStem: 64 75 226 75
LayerCount: 2
Fore
SplineSet
109 790 m 0,0,1
 147.380952381 790 147.380952381 790 147.380952381 753.98185941 c 0,2,3
 147.380952381 750.19047619 147.380952381 750.19047619 147 746 c 2,4,-1
 132 537 l 1,5,-1
 72 537 l 1,6,-1
 57 746 l 2,7,8
 56.6923076923 749.692307692 56.6923076923 749.692307692 56.6923076923 760.615384615 c 128,-1,9
 56.6923076923 771.538461538 56.6923076923 771.538461538 66.8461538462 780.769230769 c 128,-1,10
 77 790 77 790 109 790 c 0,0,1
271 790 m 0,11,12
 309.380952381 790 309.380952381 790 309.380952381 753.98185941 c 0,13,14
 309.380952381 750.19047619 309.380952381 750.19047619 309 746 c 2,15,-1
 294 537 l 1,16,-1
 234 537 l 1,17,-1
 219 746 l 2,18,19
 218.692307692 749.692307692 218.692307692 749.692307692 218.692307692 760.615384615 c 128,-1,20
 218.692307692 771.538461538 218.692307692 771.538461538 228.846153846 780.769230769 c 128,-1,21
 239 790 239 790 271 790 c 0,11,12
EndSplineSet
EndChar

StartChar: numbersign
Encoding: 35 35 26
Width: 592
Flags: MW
HStem: 10 192<120 154 40 188 120 120 313 347 313 313> 140 62<40 143 40 154 222 336 40 211 415 525> 352 61<67 180 67 191 259 373 67 248 452 552> 352 217<67 287 67 287 248 287 219 373 248 248 441 441 441 480 219 552>
LayerCount: 2
Fore
SplineSet
381 10 m 1,0,-1
 313 10 l 1,1,-1
 336 140 l 1,2,-1
 211 140 l 1,3,-1
 188 10 l 1,4,-1
 120 10 l 1,5,-1
 143 140 l 1,6,-1
 40 140 l 1,7,-1
 40 202 l 1,8,-1
 154 202 l 1,9,-1
 180 352 l 1,10,-1
 67 352 l 1,11,-1
 67 413 l 1,12,-1
 191 413 l 1,13,-1
 219 569 l 1,14,-1
 287 569 l 1,15,-1
 259 413 l 1,16,-1
 384 413 l 1,17,-1
 412 569 l 1,18,-1
 480 569 l 1,19,-1
 452 413 l 1,20,-1
 552 413 l 1,21,-1
 552 352 l 1,22,-1
 441 352 l 1,23,-1
 415 202 l 1,24,-1
 525 202 l 1,25,-1
 525 140 l 1,26,-1
 404 140 l 1,27,-1
 381 10 l 1,0,-1
248 352 m 1,28,-1
 222 202 l 1,29,-1
 347 202 l 1,30,-1
 373 352 l 1,31,-1
 248 352 l 1,28,-1
EndSplineSet
EndChar

StartChar: dollar
Encoding: 36 36 27
Width: 554
Flags: MW
HStem: -119 191<238.5 305 230 312.5> 5 67<301 301> 615 62<229.5 298> 615 180<229.5 290.5>
VStem: 66 91<498.5 555> 232 71 411 92<142 200.5>
LayerCount: 2
Fore
SplineSet
481 647 m 1,0,-1
 469 505 l 1,1,-1
 398 505 l 1,2,-1
 384 589 l 1,3,4
 333 615 333 615 271.5 615 c 128,-1,5
 210 615 210 615 183.5 594 c 128,-1,6
 157 573 157 573 157 531 c 128,-1,7
 157 489 157 489 180 467.5 c 128,-1,8
 203 446 203 446 263 413 c 1,9,-1
 373 360 l 2,10,11
 439 328 439 328 471 293.5 c 128,-1,12
 503 259 503 259 503 186 c 128,-1,13
 503 113 503 113 449 62.5 c 128,-1,14
 395 12 395 12 301 5 c 1,15,-1
 305 -119 l 1,16,-1
 230 -119 l 1,17,-1
 234 4 l 1,18,19
 164.478359909 5.73804100228 164.478359909 5.73804100228 124.739179954 17.3690205011 c 128,-1,20
 85 29 85 29 45 42 c 1,21,-1
 60 188 l 1,22,-1
 132 184 l 1,23,-1
 141 96 l 1,24,25
 199 72 199 72 267 72 c 128,-1,26
 335 72 335 72 373 99 c 128,-1,27
 411 126 411 126 411 169.5 c 128,-1,28
 411 213 411 213 392.5 233 c 128,-1,29
 374 253 374 253 307 289 c 2,30,-1
 185 353 l 2,31,32
 126 384 126 384 96 418.5 c 128,-1,33
 66 453 66 453 66 515.5 c 128,-1,34
 66 578 66 578 110 622.5 c 128,-1,35
 154 667 154 667 233 676 c 1,36,-1
 229 795 l 1,37,-1
 303 795 l 1,38,-1
 298 677 l 1,39,40
 380 674 380 674 481 647 c 1,0,-1
EndSplineSet
EndChar

StartChar: percent
Encoding: 37 37 28
Width: 672
Flags: MW
HStem: -23 21G<171 171> -12 50<461 504 461 507> 197 53<449.5 493> 317 53<179 222 179 225> 528 51<167.5 211> 575 20G<498 498>
VStem: 67 61<425 471 425 478> 263 61<431.5 476.5> 349 61<94 140 94 149> 545 61<100.5 145.5>
LayerCount: 2
Fore
SplineSet
291 540.5 m 128,-1,1
 324 502 324 502 324 445 c 128,-1,2
 324 388 324 388 284.5 352.5 c 128,-1,3
 245 317 245 317 189.5 317 c 128,-1,4
 134 317 134 317 100.5 353 c 128,-1,5
 67 389 67 389 67 444 c 128,-1,6
 67 499 67 499 102 539 c 128,-1,7
 137 579 137 579 197.5 579 c 128,-1,0
 258 579 258 579 291 540.5 c 128,-1,1
247.5 393.5 m 128,-1,9
 263 417 263 417 263 452 c 128,-1,10
 263 487 263 487 242.5 507.5 c 128,-1,11
 222 528 222 528 190 528 c 128,-1,12
 158 528 158 528 143 506 c 128,-1,13
 128 484 128 484 128 449 c 128,-1,14
 128 414 128 414 148 392 c 128,-1,15
 168 370 168 370 200 370 c 128,-1,8
 232 370 232 370 247.5 393.5 c 128,-1,9
171 -23 m 1,16,-1
 119 13 l 1,17,-1
 498 595 l 1,18,-1
 549 559 l 1,19,-1
 171 -23 l 1,16,-1
573 211.5 m 128,-1,21
 606 173 606 173 606 116 c 128,-1,22
 606 59 606 59 566.5 23.5 c 128,-1,23
 527 -12 527 -12 471.5 -12 c 128,-1,24
 416 -12 416 -12 382.5 24 c 128,-1,25
 349 60 349 60 349 115 c 128,-1,26
 349 170 349 170 384 210 c 128,-1,27
 419 250 419 250 479.5 250 c 128,-1,20
 540 250 540 250 573 211.5 c 128,-1,21
529.5 62 m 128,-1,29
 545 86 545 86 545 121 c 128,-1,30
 545 156 545 156 524.5 176.5 c 128,-1,31
 504 197 504 197 472 197 c 128,-1,32
 440 197 440 197 425 175 c 128,-1,33
 410 153 410 153 410 117.5 c 128,-1,34
 410 82 410 82 430.5 60 c 128,-1,35
 451 38 451 38 482.5 38 c 128,-1,28
 514 38 514 38 529.5 62 c 128,-1,29
EndSplineSet
EndChar

StartChar: ampersand
Encoding: 38 38 29
Width: 706
Flags: MW
HStem: -11 69 -10 21G<584.5 635> 544 186<225 464 225 389> 669 61<264.5 309>
VStem: 31 100<155.5 215> 113 99<565 615.5 565 621.5> 212 177<565 615.5>
LayerCount: 2
Fore
SplineSet
591 256 m 1,0,-1
 616 203 l 1,1,-1
 535 144 l 1,2,-1
 545 132 l 1,3,4
 603 58 603 58 656 58 c 0,5,6
 677 58 677 58 696 66 c 1,7,-1
 691 10 l 1,8,9
 656 -10 656 -10 621 -10 c 128,-1,10
 586 -10 586 -10 558 5.5 c 128,-1,11
 530 21 530 21 514.5 36.5 c 128,-1,12
 499 52 499 52 464 93 c 1,13,14
 459 90 459 90 424.5 67.5 c 128,-1,15
 390 45 390 45 364.5 31 c 128,-1,16
 339 17 339 17 295.5 3 c 128,-1,17
 252 -11 252 -11 206 -11 c 128,-1,18
 160 -11 160 -11 122.5 7 c 128,-1,19
 85 25 85 25 66.5 54.5 c 0,20,21
 31 111.108108108 31 111.108108108 31 171.554054054 c 128,-1,22
 31 232 31 232 50 266.5 c 128,-1,23
 69 301 69 301 108 335 c 2,24,-1
 205 418 l 1,25,26
 193 437 193 437 164.5 474 c 128,-1,27
 136 511 136 511 124.5 536 c 128,-1,28
 113 561 113 561 113 589 c 128,-1,29
 113 617 113 617 121.5 639 c 128,-1,30
 130 661 130 661 149.5 682.5 c 0,31,32
 192.581395349 730 192.581395349 730 292.290697674 730 c 128,-1,33
 392 730 392 730 482 680 c 1,34,-1
 464 544 l 1,35,-1
 389 544 l 1,36,-1
 389 640 l 1,37,38
 351 669 351 669 287 669 c 0,39,40
 253 669 253 669 232.5 648 c 128,-1,41
 212 627 212 627 212 593 c 0,42,43
 212 553.896551724 212 553.896551724 251.5 503.5 c 0,44,45
 273.807692308 475.038461538 273.807692308 475.038461538 294.403846154 452.019230769 c 128,-1,46
 315 429 315 429 319 424 c 2,47,-1
 496 195 l 1,48,-1
 591 256 l 1,0,-1
421 145 m 1,49,-1
 255 367 l 1,50,-1
 194 307 l 2,51,52
 154.87150838 269.022346369 154.87150838 269.022346369 142.93575419 246.901891747 c 128,-1,53
 131 224.781437126 131 224.781437126 131 179.890718563 c 128,-1,54
 131 135 131 135 161 100 c 128,-1,55
 191 65 191 65 251 65 c 0,56,57
 289 65 289 65 340.5 93 c 128,-1,58
 392 121 392 121 421 145 c 1,49,-1
EndSplineSet
EndChar

StartChar: quotesingle
Encoding: 39 39 30
Width: 204
Flags: MW
HStem: 537 21G<72 132 72 72> 770 20G<86 120>
VStem: 52 100<752 765 752 766>
LayerCount: 2
Fore
SplineSet
132 537 m 1,0,-1
 72 537 l 1,1,2
 52 744 52 744 52 753 c 0,3,4
 52 790 52 790 102 790 c 128,-1,5
 152 790 152 790 152 753 c 0,6,7
 152 730 152 730 132 537 c 1,0,-1
EndSplineSet
EndChar

StartChar: parenleft
Encoding: 40 40 31
Width: 313
Flags: MW
HStem: -210 21G<242 242> 765 20G<243 243>
VStem: 60 88<230.5 341.5 230.5 397>
LayerCount: 2
Fore
SplineSet
289 -169 m 1,0,-1
 242 -210 l 1,1,2
 170 -131 170 -131 115 3.5 c 128,-1,3
 60 138 60 138 60 288 c 128,-1,4
 60 438 60 438 115.5 572 c 128,-1,5
 171 706 171 706 243 785 c 1,6,-1
 290 740 l 1,7,8
 215 638 215 638 181.5 513 c 128,-1,9
 148 388 148 388 148 285.5 c 0,10,11
 148 183 148 183 181 58 c 128,-1,12
 214 -67 214 -67 289 -169 c 1,0,-1
EndSplineSet
EndChar

StartChar: parenright
Encoding: 41 41 32
Width: 313
Flags: MW
HStem: -210 21G<71 71> 765 20G<70 70>
VStem: 165 88<230.5 341.5>
LayerCount: 2
Fore
SplineSet
71 -210 m 1,0,-1
 24 -169 l 1,1,2
 99 -67 99 -67 132 58 c 128,-1,3
 165 183 165 183 165 285.5 c 0,4,5
 165 388 165 388 131.5 513 c 128,-1,6
 98 638 98 638 23 740 c 1,7,-1
 70 785 l 1,8,9
 142 706 142 706 197.5 572 c 128,-1,10
 253 438 253 438 253 288 c 128,-1,11
 253 138 253 138 198 3.5 c 128,-1,12
 143 -131 143 -131 71 -210 c 1,0,-1
EndSplineSet
EndChar

StartChar: asterisk
Encoding: 42 42 33
Width: 352
Flags: MW
HStem: 390 21G<157.5 170.5> 696 20G<200 202> 697 20G<170.5 184>
VStem: 145 52 145 169
LayerCount: 2
Fore
SplineSet
180 717 m 1,0,-1
 202 716 l 1,1,-1
 191 589 l 1,2,3
 272 645 272 645 287.5 645 c 128,-1,4
 303 645 303 645 309.5 638 c 128,-1,5
 316 631 316 631 327 608 c 1,6,-1
 211 553 l 1,7,-1
 288 515 l 2,8,9
 314 502 314 502 314 480 c 0,10,11
 314 471 314 471 298 445 c 1,12,-1
 191 518 l 1,13,14
 197 456 197 456 197 433 c 128,-1,15
 197 410 197 410 186.5 400 c 128,-1,16
 176 390 176 390 164 390 c 128,-1,17
 152 390 152 390 140 392 c 1,18,-1
 150 518 l 1,19,20
 101 484 101 484 82.5 473 c 128,-1,21
 64 462 64 462 52 462 c 128,-1,22
 40 462 40 462 32.5 470 c 128,-1,23
 25 478 25 478 15 499 c 1,24,-1
 130 553 l 1,25,26
 63 584 63 584 45.5 597 c 128,-1,27
 28 610 28 610 28 623 c 128,-1,28
 28 636 28 636 44 662 c 1,29,-1
 150 589 l 1,30,31
 145 639 145 639 145 668 c 0,32,33
 145 717 145 717 180 717 c 1,0,-1
EndSplineSet
EndChar

StartChar: plus
Encoding: 43 43 34
Width: 516
Flags: MW
HStem: 10 21G<221 289 221 221> 201 68<40 221 40 221 289 476> 446 20G<221 289 289 289>
VStem: 221 68<10 201 269 466>
LayerCount: 2
Fore
SplineSet
289 10 m 1,0,-1
 221 10 l 1,1,-1
 221 201 l 1,2,-1
 40 201 l 1,3,-1
 40 269 l 1,4,-1
 221 269 l 1,5,-1
 221 466 l 1,6,-1
 289 466 l 1,7,-1
 289 269 l 1,8,-1
 476 269 l 1,9,-1
 476 201 l 1,10,-1
 289 201 l 1,11,-1
 289 10 l 1,0,-1
EndSplineSet
EndChar

StartChar: comma
Encoding: 44 44 35
Width: 230
Flags: MW
HStem: -137 21G<72 72> -7 120<92 102.5>
VStem: 50 130<29 61.5 4 71>
LayerCount: 2
Fore
SplineSet
180 36 m 0,0,1
 180 -12 180 -12 149.5 -60.5 c 128,-1,2
 119 -109 119 -109 72 -137 c 1,3,-1
 43 -107 l 1,4,5
 111 -64 111 -64 118 -5 c 1,6,7
 106 -7 106 -7 92.5 -7 c 0,8,9
 79 -7 79 -7 64.5 7.5 c 128,-1,10
 50 22 50 22 50 47 c 0,11,12
 50 113 50 113 111 113 c 0,13,14
 180 113 180 113 180 36 c 0,0,1
EndSplineSet
EndChar

StartChar: hyphen
Encoding: 45 45 36
Width: 396
Flags: MW
HStem: 214 75<60 336 60 336>
LayerCount: 2
Fore
SplineSet
60 214 m 1,0,-1
 60 289 l 1,1,-1
 336 289 l 1,2,-1
 336 214 l 1,3,-1
 60 214 l 1,0,-1
EndSplineSet
EndChar

StartChar: period
Encoding: 46 46 37
Width: 228
Flags: MW
HStem: -6 128<92.5 131.5>
VStem: 50 128<31 74>
LayerCount: 2
Fore
SplineSet
178 54 m 128,-1,1
 178 18 178 18 162 6 c 128,-1,2
 146 -6 146 -6 105 -6 c 0,3,4
 50 -6 50 -6 50 50 c 0,5,6
 50 89 50 89 65 105.5 c 128,-1,7
 80 122 80 122 118 122 c 0,8,9
 156 122 156 122 167 106 c 128,-1,0
 178 90 178 90 178 54 c 128,-1,1
EndSplineSet
EndChar

StartChar: slash
Encoding: 47 47 38
Width: 413
Flags: MW
HStem: -144 21G<20 96 20 20> 700 20G<324 400 400 400>
LayerCount: 2
Fore
SplineSet
324 720 m 1,0,-1
 400 720 l 1,1,-1
 96 -144 l 1,2,-1
 20 -144 l 1,3,-1
 324 720 l 1,0,-1
EndSplineSet
EndChar

StartChar: zero
Encoding: 48 48 39
Width: 582
Flags: MW
HStem: -10 66<247 354.5 247 367> 446 66<227.5 334.5>
VStem: 35 90<188.5 303.5 188.5 309.5> 457 90<198.5 313.5>
LayerCount: 2
Fore
SplineSet
482.5 442 m 128,-1,1
 547 372 547 372 547 261 c 128,-1,2
 547 150 547 150 475.5 70 c 128,-1,3
 404 -10 404 -10 284 -10 c 128,-1,4
 164 -10 164 -10 99.5 60 c 128,-1,5
 35 130 35 130 35 241 c 128,-1,6
 35 352 35 352 106.5 432 c 128,-1,7
 178 512 178 512 298 512 c 128,-1,0
 418 512 418 512 482.5 442 c 128,-1,1
417.5 111 m 128,-1,9
 457 166 457 166 457 254.5 c 128,-1,10
 457 343 457 343 409 394.5 c 128,-1,11
 361 446 361 446 282.5 446 c 128,-1,12
 204 446 204 446 164.5 391 c 128,-1,13
 125 336 125 336 125 247.5 c 128,-1,14
 125 159 125 159 172.5 107.5 c 128,-1,15
 220 56 220 56 299 56 c 128,-1,8
 378 56 378 56 417.5 111 c 128,-1,9
EndSplineSet
EndChar

StartChar: one
Encoding: 49 49 40
Width: 360
Flags: MW
HStem: 0 21G<48 330 48 48> 485 20G<179 231 231 231>
VStem: 52 179<368 440 440 440>
LayerCount: 2
Fore
SplineSet
231 505 m 1,0,-1
 231 105 l 2,1,2
 231 83 231 83 235.5 75 c 128,-1,3
 240 67 240 67 255 66 c 2,4,-1
 330 59 l 1,5,-1
 330 0 l 1,6,-1
 48 0 l 1,7,-1
 48 59 l 1,8,-1
 128 66 l 2,9,10
 143 68 143 68 147.5 75.5 c 128,-1,11
 152 83 152 83 152 105 c 2,12,-1
 152 413 l 1,13,-1
 52 368 l 1,14,-1
 52 440 l 1,15,-1
 179 505 l 1,16,-1
 231 505 l 1,0,-1
EndSplineSet
EndChar

StartChar: two
Encoding: 50 50 41
Width: 449
Flags: MW
HStem: 0 75<131 411 131 411> 356 152<58 285.5 58 285.5> 449 59<199 246>
VStem: 33 98<0 75 16 75> 311 87<314.5 386.5>
LayerCount: 2
Fore
SplineSet
411 75 m 1,0,-1
 411 0 l 1,1,-1
 33 0 l 1,2,-1
 33 16 l 2,3,4
 33 75 33 75 53 107 c 128,-1,5
 73 139 73 139 101.5 160.5 c 128,-1,6
 130 182 130 182 162 201.5 c 128,-1,7
 194 221 194 221 217 236 c 128,-1,8
 240 251 240 251 263.5 270 c 0,9,10
 311 308.404255319 311 308.404255319 311 354.20212766 c 128,-1,11
 311 400 311 400 285.5 424.5 c 128,-1,12
 260 449 260 449 220.5 449 c 128,-1,13
 181 449 181 449 133 433 c 1,14,-1
 118 356 l 1,15,-1
 58 356 l 1,16,-1
 51 477 l 1,17,18
 148 508 148 508 230 508 c 128,-1,19
 312 508 312 508 355 468.5 c 128,-1,20
 398 429 398 429 398 361 c 0,21,22
 398 286.587301587 398 286.587301587 335.5 235 c 0,23,24
 304 209 304 209 284 196 c 128,-1,25
 264 183 264 183 242.5 171.5 c 128,-1,26
 221 160 221 160 203.5 151 c 128,-1,27
 186 142 186 142 177 136.5 c 128,-1,28
 168 131 168 131 155.5 121.5 c 0,29,30
 133.105740181 104.480362538 133.105740181 104.480362538 131 75 c 1,31,-1
 411 75 l 1,0,-1
EndSplineSet
EndChar

StartChar: three
Encoding: 51 51 42
Width: 461
Flags: MW
HStem: -172 69<177 244.5 177 272.5> 369 139<58 290> 451 57<205.5 246.5>
VStem: 310 86<323 388.5> 333 86<3 61 -22 64>
LayerCount: 2
Fore
SplineSet
119 150 m 1,0,-1
 114 214 l 1,1,2
 164.929133858 222.488188976 164.929133858 222.488188976 229.5 252.5 c 0,3,4
 265 269 265 269 287.5 298.5 c 128,-1,5
 310 328 310 328 310 365 c 128,-1,6
 310 402 310 402 285 426.5 c 128,-1,7
 260 451 260 451 222 451 c 128,-1,8
 184 451 184 451 161.5 446.5 c 128,-1,9
 139 442 139 442 131 441 c 1,10,-1
 120 369 l 1,11,-1
 58 369 l 1,12,-1
 51 485 l 1,13,14
 164 508 164 508 239 508 c 128,-1,15
 314 508 314 508 355 466.5 c 128,-1,16
 396 425 396 425 396 363 c 0,17,18
 396 255 396 255 265 201 c 1,19,20
 334 184 334 184 376.5 148 c 128,-1,21
 419 112 419 112 419 30 c 128,-1,22
 419 -52 419 -52 360.5 -112 c 128,-1,23
 302 -172 302 -172 208.5 -172 c 128,-1,24
 115 -172 115 -172 25 -127 c 1,25,-1
 40 -75 l 1,26,27
 60 -82 60 -82 115 -92.5 c 128,-1,28
 170 -103 170 -103 196 -103 c 0,29,30
 262 -103 262 -103 297.5 -60.5 c 128,-1,31
 333 -18 333 -18 333 30 c 0,32,33
 333 131 333 131 214 142 c 2,34,-1
 119 150 l 1,0,-1
EndSplineSet
EndChar

StartChar: four
Encoding: 52 52 43
Width: 505
Flags: MW
HStem: -164 21G<320 399 320 320> 0 75<122 320 122 320 66 320 399 475> 495 20G<322 322>
VStem: 320 79<-164 0 -164 0 75 250>
LayerCount: 2
Fore
SplineSet
475 75 m 1,0,-1
 475 0 l 1,1,-1
 399 0 l 1,2,-1
 399 -164 l 1,3,-1
 320 -164 l 1,4,-1
 320 0 l 1,5,-1
 66 0 l 1,6,-1
 25 74 l 1,7,-1
 322 515 l 1,8,-1
 370 465 l 1,9,-1
 122 75 l 1,10,-1
 320 75 l 1,11,-1
 320 250 l 1,12,-1
 399 250 l 1,13,-1
 399 75 l 1,14,-1
 475 75 l 1,0,-1
EndSplineSet
EndChar

StartChar: five
Encoding: 53 53 44
Width: 459
Flags: MW
HStem: -168 69<167.5 236 167.5 259> 430 74<165 396 165 165>
VStem: 330 86<18 82>
LayerCount: 2
Fore
SplineSet
396 504 m 1,0,-1
 396 430 l 1,1,-1
 165 430 l 1,2,-1
 150 250 l 1,3,-1
 255 234 l 1,4,5
 355.769106999 220.168946098 355.769106999 220.168946098 389.5 162.5 c 0,6,7
 416 117.193548387 416 117.193548387 416 57 c 0,8,9
 416 -45 416 -45 353.5 -106.5 c 128,-1,10
 291 -168 291 -168 200.5 -168 c 128,-1,11
 110 -168 110 -168 20 -123 c 1,12,-1
 35 -71 l 1,13,14
 58 -78 58 -78 109.5 -88.5 c 128,-1,15
 161 -99 161 -99 184 -99 c 0,16,17
 255 -99 255 -99 292.5 -52.5 c 128,-1,18
 330 -6 330 -6 330 47 c 128,-1,19
 330 100 330 100 301 128.5 c 128,-1,20
 272 157 272 157 202 167 c 2,21,-1
 72 186 l 1,22,-1
 98 504 l 1,23,-1
 396 504 l 1,0,-1
EndSplineSet
EndChar

StartChar: six
Encoding: 54 54 45
Width: 528
Flags: MW
HStem: -10 68<231.5 320.5 231.5 327> 360 69<259.5 323.5> 668 62<408 439>
VStem: 44 92<216 241.5 216 331.5> 400 86<172.5 251.5>
LayerCount: 2
Fore
SplineSet
435.5 370.5 m 128,-1,1
 486 312 486 312 486 210.5 c 128,-1,2
 486 109 486 109 424 49.5 c 128,-1,3
 362 -10 362 -10 256 -10 c 0,4,5
 199 -10 199 -10 156.5 12.5 c 128,-1,6
 114 35 114 35 90 74.5 c 0,7,8
 44 150.208333333 44 150.208333333 44 261.604166667 c 128,-1,9
 44 373 44 373 76 462 c 128,-1,10
 108 551 108 551 183 624 c 0,11,12
 292 730 292 730 439 730 c 1,13,-1
 439 668 l 1,14,15
 322 663 322 663 237.5 570 c 128,-1,16
 153 477 153 477 135 360 c 1,17,18
 167 400 167 400 203.5 414.5 c 128,-1,19
 240 429 240 429 290 429 c 0,20,0
 385 429 385 429 435.5 370.5 c 128,-1,1
400 213 m 0,21,22
 400 360 400 360 271 360 c 0,23,24
 235 360 235 360 206.5 347 c 128,-1,25
 178 334 178 334 165 317 c 0,26,27
 136 278 136 278 136.5 209.5 c 128,-1,28
 137 141 137 141 173.5 99.5 c 128,-1,29
 210 58 210 58 274.5 58 c 128,-1,30
 339 58 339 58 369.5 102 c 128,-1,31
 400 146 400 146 400 213 c 0,21,22
EndSplineSet
EndChar

StartChar: seven
Encoding: 55 55 46
Width: 448
Flags: MW
HStem: -177 21G<118 118> 333 171<29 92 29 29> 427 77<123.5 136 136 336>
LayerCount: 2
Fore
SplineSet
118 -177 m 1,0,-1
 50 -135 l 1,1,2
 127 -1 127 -1 224.5 184.5 c 128,-1,3
 322 370 322 370 336 427 c 1,4,-1
 136 427 l 2,5,6
 116 427 116 427 107.5 422 c 128,-1,7
 99 417 99 417 98 400 c 2,8,-1
 92 333 l 1,9,-1
 29 333 l 1,10,-1
 20 504 l 1,11,-1
 425 504 l 1,12,-1
 425 482 l 2,13,14
 425 443 425 443 413 410.5 c 128,-1,15
 401 378 401 378 355 286 c 0,16,17
 133 -150 133 -150 118 -177 c 1,0,-1
EndSplineSet
EndChar

StartChar: eight
Encoding: 56 56 47
Width: 502
Flags: MW
HStem: -10 60<224 303 224 305.5> 672 58<208.5 271>
VStem: 40 84<142.5 222> 65 80<533.5 601 533.5 611> 360 77<530 604> 377 85<134 207.5>
LayerCount: 2
Fore
SplineSet
65 545 m 0,0,1
 65 639 65 639 119.5 684.5 c 128,-1,2
 174 730 174 730 257.5 730 c 128,-1,3
 341 730 341 730 389 686.5 c 128,-1,4
 437 643 437 643 437 567 c 0,5,6
 437 523.666666667 437 523.666666667 417 477 c 0,7,8
 411 463 411 463 389.5 441 c 128,-1,9
 368 419 368 419 361 413.5 c 128,-1,10
 354 408 354 408 323 382 c 1,11,12
 377 348 377 348 403.5 324 c 0,13,14
 462 271.018867925 462 271.018867925 462 181 c 128,-1,15
 462 91 462 91 400.5 40.5 c 128,-1,16
 339 -10 339 -10 244.5 -10 c 128,-1,17
 150 -10 150 -10 95 35 c 128,-1,18
 40 80 40 80 40 175 c 0,19,20
 40 243.695652174 40 243.695652174 83 289.5 c 0,21,22
 117.622775801 326.380782918 117.622775801 326.380782918 178 369 c 1,23,24
 121 409 121 409 93 450 c 128,-1,25
 65 491 65 491 65 545 c 0,0,1
147.5 270 m 128,-1,27
 124 237 124 237 124 180 c 128,-1,28
 124 123 124 123 163.5 86.5 c 128,-1,29
 203 50 203 50 261.5 50 c 128,-1,30
 320 50 320 50 348.5 82 c 128,-1,31
 377 114 377 114 377 168 c 128,-1,32
 377 222 377 222 347 253 c 128,-1,33
 317 284 317 284 240 330 c 1,34,-1
 222 340 l 1,35,26
 171 303 171 303 147.5 270 c 128,-1,27
348.5 501.5 m 128,-1,37
 360 532 360 532 360 575 c 128,-1,38
 360 618 360 618 324.5 645 c 128,-1,39
 289 672 289 672 242 672 c 0,40,41
 145 672 145 672 145 565 c 0,42,43
 145 521 145 521 175.5 488.5 c 128,-1,44
 206 456 206 456 279 409 c 1,45,46
 308 437 308 437 322.5 454 c 128,-1,36
 337 471 337 471 348.5 501.5 c 128,-1,37
EndSplineSet
EndChar

StartChar: nine
Encoding: 57 57 48
Width: 517
Flags: MW
HStem: -250 65<82 107.5> 70 71<190.5 257.5> 442 69<188.5 285>
VStem: 28 86<245.5 320.5 245.5 359.5> 377 92<262.5 329>
LayerCount: 2
Fore
SplineSet
81.5 129 m 128,-1,1
 28 188 28 188 28 291 c 128,-1,2
 28 394 28 394 87 452.5 c 128,-1,3
 146 511 146 511 248.5 511 c 128,-1,4
 351 511 351 511 410 441 c 128,-1,5
 469 371 469 371 469 254 c 0,6,7
 469 -17 469 -17 304 -161 c 0,8,9
 202 -250 202 -250 82 -250 c 1,10,-1
 67 -185 l 1,11,12
 174 -185 174 -185 268.5 -88 c 128,-1,13
 363 9 363 9 378 144 c 1,14,15
 327 70 327 70 231 70 c 128,-1,0
 135 70 135 70 81.5 129 c 128,-1,1
114 277 m 0,16,17
 114 141 114 141 244 141 c 0,18,19
 283 141 283 141 314.5 157.5 c 128,-1,20
 346 174 346 174 361.5 197 c 128,-1,21
 377 220 377 220 377 287.5 c 128,-1,22
 377 355 377 355 341.5 398.5 c 128,-1,23
 306 442 306 442 235 442 c 0,24,25
 114 442 114 442 114 277 c 0,16,17
EndSplineSet
EndChar

StartChar: colon
Encoding: 58 58 49
Width: 228
Flags: MW
HStem: -6 128<92.5 131.5> 362 128<92.5 131.5>
VStem: 50 128<31 74 399 442>
LayerCount: 2
Fore
SplineSet
178 54 m 128,-1,1
 178 18 178 18 162 6 c 128,-1,2
 146 -6 146 -6 105 -6 c 0,3,4
 50 -6 50 -6 50 50 c 0,5,6
 50 89 50 89 65 105.5 c 128,-1,7
 80 122 80 122 118 122 c 0,8,9
 156 122 156 122 167 106 c 128,-1,0
 178 90 178 90 178 54 c 128,-1,1
178 422 m 128,-1,11
 178 386 178 386 162 374 c 128,-1,12
 146 362 146 362 105 362 c 0,13,14
 50 362 50 362 50 418 c 0,15,16
 50 457 50 457 65 473.5 c 128,-1,17
 80 490 80 490 118 490 c 0,18,19
 156 490 156 490 167 474 c 128,-1,10
 178 458 178 458 178 422 c 128,-1,11
EndSplineSet
EndChar

StartChar: semicolon
Encoding: 59 59 50
Width: 230
Flags: MW
HStem: -137 21G<72 72> -7 120<92 102.5> 362 128<95.5 134.5>
VStem: 50 130<29 61.5 4 71>
LayerCount: 2
Fore
SplineSet
180 36 m 0,0,1
 180 -12 180 -12 149.5 -60.5 c 128,-1,2
 119 -109 119 -109 72 -137 c 1,3,-1
 43 -107 l 1,4,5
 111 -64 111 -64 118 -5 c 1,6,7
 106 -7 106 -7 92.5 -7 c 0,8,9
 79 -7 79 -7 64.5 7.5 c 128,-1,10
 50 22 50 22 50 47 c 0,11,12
 50 113 50 113 111 113 c 0,13,14
 180 113 180 113 180 36 c 0,0,1
181 422 m 128,-1,16
 181 386 181 386 165 374 c 128,-1,17
 149 362 149 362 108 362 c 0,18,19
 53 362 53 362 53 418 c 0,20,21
 53 457 53 457 68 473.5 c 128,-1,22
 83 490 83 490 121 490 c 0,23,24
 159 490 159 490 170 474 c 128,-1,15
 181 458 181 458 181 422 c 128,-1,16
EndSplineSet
EndChar

StartChar: less
Encoding: 60 60 51
Width: 545
Flags: MW
HStem: -20 21G<455 455> 480 20G<455 455>
LayerCount: 2
Fore
SplineSet
455 -20 m 1,0,-1
 45 240 l 1,1,-1
 455 500 l 1,2,-1
 492 450 l 1,3,-1
 167 240 l 1,4,-1
 490 30 l 1,5,-1
 455 -20 l 1,0,-1
EndSplineSet
EndChar

StartChar: equal
Encoding: 61 61 52
Width: 544
Flags: MW
HStem: 115 66<60 484 60 484> 288 66<60 484 60 484>
LayerCount: 2
Fore
SplineSet
60 288 m 1,0,-1
 60 354 l 1,1,-1
 484 354 l 1,2,-1
 484 288 l 1,3,-1
 60 288 l 1,0,-1
60 115 m 1,4,-1
 60 181 l 1,5,-1
 484 181 l 1,6,-1
 484 115 l 1,7,-1
 60 115 l 1,4,-1
EndSplineSet
EndChar

StartChar: greater
Encoding: 62 62 53
Width: 545
Flags: MW
HStem: -20 21G<90 90> 480 20G<90 90>
LayerCount: 2
Fore
SplineSet
90 500 m 1,0,-1
 500 240 l 1,1,-1
 90 -20 l 1,2,-1
 53 30 l 1,3,-1
 378 240 l 1,4,-1
 55 450 l 1,5,-1
 90 500 l 1,0,-1
EndSplineSet
EndChar

StartChar: question
Encoding: 63 63 54
Width: 450
Flags: MW
HStem: -11 124<177.5 217> 570 159<79 319.5 79 319.5> 670 59<232.5 298.5>
VStem: 134 124<32.5 78 32.5 78> 150 75<269 365> 360 81<500 599>
LayerCount: 2
Fore
SplineSet
360 577 m 0,0,1
 360 670 360 670 254 670 c 0,2,3
 204 670 204 670 153 649 c 1,4,-1
 143 570 l 1,5,-1
 79 570 l 1,6,-1
 68 697 l 1,7,8
 164 729 164 729 256.5 729 c 128,-1,9
 349 729 349 729 395 687 c 128,-1,10
 441 645 441 645 441 577 c 0,11,12
 441 527 441 527 425.5 488.5 c 128,-1,13
 410 450 410 450 386.5 428 c 128,-1,14
 363 406 363 406 335.5 386 c 128,-1,15
 308 366 308 366 284 352 c 0,16,17
 228.912751678 319.865771812 228.912751678 319.865771812 225 269 c 2,18,-1
 220 182 l 1,19,-1
 160 175 l 1,20,-1
 155 223 l 2,21,22
 150 271 150 271 150 303 c 128,-1,23
 150 335 150 335 165.5 357 c 128,-1,24
 181 379 181 379 204.5 394 c 128,-1,25
 228 409 228 409 255 427.5 c 128,-1,26
 282 446 282 446 305.5 464 c 128,-1,27
 329 482 329 482 344.5 511.5 c 128,-1,28
 360 541 360 541 360 577 c 0,0,1
144 3 m 128,-1,30
 134 17 134 17 134 53.5 c 128,-1,31
 134 90 134 90 148.5 101.5 c 128,-1,32
 163 113 163 113 199 113 c 128,-1,33
 235 113 235 113 246.5 101 c 128,-1,34
 258 89 258 89 258 53.5 c 128,-1,35
 258 18 258 18 244 3.5 c 128,-1,36
 230 -11 230 -11 192 -11 c 128,-1,29
 154 -11 154 -11 144 3 c 128,-1,30
EndSplineSet
EndChar

StartChar: at
Encoding: 64 64 55
Width: 768
Flags: MW
HStem: -81 74<298 409 298 421> 108 69<337.5 345.5> 123 68<556 590.5 556 597> 409 57<381.5 395> 587 73<400.5 489.5>
VStem: 31 85<154 303.5> 207 73<216.5 269> 659 74<327.5 447>
LayerCount: 2
Fore
SplineSet
499 444 m 1,0,-1
 563 456 l 1,1,-1
 530 247 l 2,2,3
 528.484848485 238.515151515 528.484848485 238.515151515 528.484848485 226.636363636 c 0,4,5
 528.484848485 214.757575758 528.484848485 214.757575758 538.242424242 202.878787879 c 0,6,7
 548 191 548 191 565 191 c 0,8,9
 603 191 603 191 631 246.5 c 128,-1,10
 659 302 659 302 659 378 c 0,11,12
 659 477 659 477 592.5 532 c 128,-1,13
 526 587 526 587 428 587 c 0,14,15
 383 587 383 587 330.5 576 c 128,-1,16
 278 565 278 565 247 545 c 0,17,18
 200 516 200 516 158 427 c 128,-1,19
 116 338 116 338 116 240 c 0,20,21
 116 119 116 119 187 56 c 128,-1,22
 258 -7 258 -7 359 -7 c 0,23,24
 494 -7 494 -7 654 68 c 1,25,-1
 688 17 l 1,26,27
 512 -81 512 -81 334 -81 c 0,28,29
 212 -81 212 -81 121.5 2.5 c 128,-1,30
 31 86 31 86 31 218 c 0,31,32
 31 332 31 332 66.5 415.5 c 128,-1,33
 102 499 102 499 145 545 c 0,34,35
 254 660 254 660 438 660 c 0,36,37
 578 660 578 660 655.5 579.5 c 128,-1,38
 733 499 733 499 733 386.5 c 0,39,40
 733 274 733 274 677.5 198.5 c 128,-1,41
 622 123 622 123 551 123 c 0,42,43
 504 123 504 123 469 175 c 1,44,45
 381 108 381 108 322 108 c 0,46,47
 277 108 277 108 242 146 c 128,-1,48
 207 184 207 184 207 233.5 c 0,49,50
 207 283 207 283 226 331.5 c 128,-1,51
 245 380 245 380 270 407 c 0,52,53
 325 466 325 466 403 466 c 0,54,55
 455 466 455 466 499 444 c 1,0,-1
464 232 m 1,56,-1
 483 379 l 1,57,58
 450 408 450 408 402 408.5 c 0,59,60
 354 409 354 409 329 382 c 1,61,62
 280 333 280 333 280 250 c 0,63,64
 280 177 280 177 348 177 c 0,65,66
 368 177 368 177 404.5 195 c 128,-1,67
 441 213 441 213 464 232 c 1,56,-1
EndSplineSet
EndChar

StartChar: A
Encoding: 65 65 56
Width: 663
Flags: MW
HStem: 0 21G<-15 225 -15 -15 422 679 422 422> 237 70<214 430 214 455 190 430> 700 20G<285 378 378 378>
LayerCount: 2
Fore
SplineSet
70 112 m 2,0,-1
 285 720 l 1,1,-1
 378 720 l 1,2,-1
 592 112 l 2,3,4
 601 87 601 87 610.5 78.5 c 128,-1,5
 620 70 620 70 640 66 c 2,6,-1
 679 59 l 1,7,-1
 679 0 l 1,8,-1
 422 0 l 1,9,-1
 422 57 l 1,10,-1
 477 66 l 2,11,12
 503 70 503 70 503 90 c 0,13,14
 503 99 503 99 499 110 c 2,15,-1
 455 237 l 1,16,-1
 190 237 l 1,17,-1
 148 113 l 2,18,19
 144 102 144 102 144 92 c 0,20,21
 144 70 144 70 171 66 c 2,22,-1
 225 57 l 1,23,-1
 225 0 l 1,24,-1
 -15 0 l 1,25,-1
 -15 59 l 1,26,-1
 23 66 l 2,27,28
 43 70 43 70 52 78.5 c 128,-1,29
 61 87 61 87 70 112 c 2,0,-1
333 589 m 1,30,-1
 322 634 l 1,31,-1
 311 589 l 1,32,-1
 214 307 l 1,33,-1
 430 307 l 1,34,-1
 333 589 l 1,30,-1
EndSplineSet
EndChar

StartChar: B
Encoding: 66 66 57
Width: 618
Flags: MW
HStem: 0 70<226 334 334 348> 340 68<226 304 226 304 304 324.5 226 334> 650 70<226 226 226 291>
VStem: 140 86<106 340 408 614 614 626.5> 450 94<517.5 587> 500 44 500 94<185 262.5>
LayerCount: 2
Fore
SplineSet
140 106 m 2,0,-1
 140 614 l 2,1,2
 140 634 140 634 134.5 641.5 c 128,-1,3
 129 649 129 649 111 652 c 2,4,-1
 58 661 l 1,5,-1
 58 720 l 1,6,-1
 314 720 l 2,7,8
 429 720 429 720 486.5 686 c 128,-1,9
 544 652 544 652 544 558 c 0,10,11
 544 491 544 491 508 444 c 128,-1,12
 472 397 472 397 431 387 c 1,13,14
 505 380 505 380 549.5 339 c 128,-1,15
 594 298 594 298 594 217 c 0,16,17
 594 116 594 116 528 58 c 128,-1,18
 462 0 462 0 348 0 c 2,19,-1
 58 0 l 1,20,-1
 58 59 l 1,21,-1
 111 68 l 2,22,23
 129 71 129 71 134.5 78.5 c 128,-1,24
 140 86 140 86 140 106 c 2,0,-1
226 650 m 1,25,-1
 226 408 l 1,26,-1
 304 408 l 2,27,28
 382 408 382 408 416 433.5 c 0,29,30
 450 459 450 459 450 541 c 0,31,32
 450 605 450 605 409 627.5 c 128,-1,33
 368 650 368 650 291 650 c 2,34,-1
 226 650 l 1,25,-1
226 340 m 1,35,-1
 226 70 l 1,36,-1
 334 70 l 2,37,38
 411 70 411 70 449 92 c 0,39,40
 500 123 500 123 500 215 c 0,41,42
 500 340 500 340 334 340 c 2,43,-1
 226 340 l 1,35,-1
EndSplineSet
EndChar

StartChar: C
Encoding: 67 67 58
Width: 636
Flags: MW
HStem: -10 78<287.5 399> 510 220<253.5 576 253.5 504> 655 75<299 371.5>
VStem: 42 97<270.5 396 270.5 457>
LayerCount: 2
Fore
SplineSet
568 115 m 1,0,-1
 588 50 l 1,1,2
 584.533333333 46.5333333333 584.533333333 46.5333333333 560.766666667 38.2666666667 c 128,-1,3
 537 30 537 30 518 23 c 128,-1,4
 499 16 499 16 479 10.5 c 128,-1,5
 459 5 459 5 436.5 0 c 0,6,7
 391.5 -10 391.5 -10 342 -10 c 0,8,9
 42 -10 42 -10 42 352 c 0,10,11
 42 520 42 520 123.5 625 c 128,-1,12
 205 730 205 730 368 730 c 0,13,14
 427 730 427 730 476.5 719.5 c 128,-1,15
 526 709 526 709 592 673 c 1,16,-1
 576 510 l 1,17,-1
 504 510 l 1,18,-1
 483 620 l 1,19,20
 444 639 444 639 414.5 647 c 128,-1,21
 385 655 385 655 334.5 655 c 128,-1,22
 284 655 284 655 252.5 641 c 128,-1,23
 221 627 221 627 196 602 c 128,-1,24
 171 577 171 577 155 499.5 c 128,-1,25
 139 422 139 422 139 359 c 0,26,27
 139 224 139 224 196 146 c 128,-1,28
 253 68 253 68 360 68 c 0,29,30
 443 68 443 68 568 115 c 1,0,-1
EndSplineSet
EndChar

StartChar: D
Encoding: 68 68 59
Width: 718
Flags: MW
HStem: 0 73<226 342 342 357> 647 73<226 342 226 226>
VStem: 140 86<109 618 618 630.5> 575 97<263 477.5>
LayerCount: 2
Fore
SplineSet
518.5 142 m 128,-1,1
 575 211 575 211 575 368.5 c 128,-1,2
 575 526 575 526 519.5 586.5 c 128,-1,3
 464 647 464 647 342 647 c 2,4,-1
 226 647 l 1,5,-1
 226 73 l 1,6,-1
 342 73 l 2,7,0
 462 73 462 73 518.5 142 c 128,-1,1
58 720 m 1,8,-1
 357 720 l 2,9,10
 672 720 672 720 672 371 c 0,11,12
 672 199 672 199 596 99.5 c 128,-1,13
 520 0 520 0 357 0 c 2,14,-1
 58 0 l 1,15,-1
 58 60 l 1,16,-1
 111 69 l 2,17,18
 129 72 129 72 134.5 80.5 c 128,-1,19
 140 89 140 89 140 109 c 2,20,-1
 140 618 l 2,21,22
 140 638 140 638 134.5 647 c 128,-1,23
 129 656 129 656 111 658 c 2,24,-1
 58 664 l 1,25,-1
 58 720 l 1,8,-1
EndSplineSet
EndChar

StartChar: E
Encoding: 69 69 60
Width: 620
Flags: MW
HStem: 0 73<226 459 459 471 226 576> 0 177<503 570 503 576> 339 73<226 460 226 460> 548 172<502 566 502 502> 647 73<226 458 226 226>
VStem: 140 86<107 339 412 618 618 630.5> 500 73
LayerCount: 2
Fore
SplineSet
576 0 m 1,0,-1
 58 0 l 1,1,-1
 58 60 l 1,2,-1
 111 69 l 2,3,4
 129 72 129 72 134.5 79.5 c 128,-1,5
 140 87 140 87 140 107 c 2,6,-1
 140 618 l 2,7,8
 140 638 140 638 134.5 647 c 128,-1,9
 129 656 129 656 111 658 c 2,10,-1
 58 664 l 1,11,-1
 58 720 l 1,12,-1
 572 720 l 1,13,-1
 566 548 l 1,14,-1
 502 548 l 1,15,-1
 496 618 l 2,16,17
 495 636 495 636 486 641.5 c 128,-1,18
 477 647 477 647 458 647 c 2,19,-1
 226 647 l 1,20,-1
 226 412 l 1,21,-1
 460 412 l 1,22,-1
 460 339 l 1,23,-1
 226 339 l 1,24,-1
 226 73 l 1,25,-1
 459 73 l 2,26,27
 478 73 478 73 487 78.5 c 128,-1,28
 496 84 496 84 497 102 c 2,29,-1
 503 177 l 1,30,-1
 570 177 l 1,31,-1
 576 0 l 1,0,-1
EndSplineSet
EndChar

StartChar: F
Encoding: 70 70 61
Width: 580
Flags: MW
HStem: 0 21G<58 327 58 58> 333 73<226 440 226 440> 647 73<226 448 226 226>
VStem: 140 86<106 333 406 622 622 633.5>
LayerCount: 2
Fore
SplineSet
58 720 m 1,0,-1
 562 720 l 1,1,-1
 556 548 l 1,2,-1
 492 548 l 1,3,-1
 486 618 l 2,4,5
 485 636 485 636 476 641.5 c 128,-1,6
 467 647 467 647 448 647 c 2,7,-1
 226 647 l 1,8,-1
 226 406 l 1,9,-1
 440 406 l 1,10,-1
 440 333 l 1,11,-1
 226 333 l 1,12,-1
 226 106 l 2,13,14
 226 86 226 86 232 78 c 128,-1,15
 238 70 238 70 256 68 c 2,16,-1
 327 60 l 1,17,-1
 327 0 l 1,18,-1
 58 0 l 1,19,-1
 58 59 l 1,20,-1
 111 68 l 2,21,22
 129 71 129 71 134.5 78.5 c 128,-1,23
 140 86 140 86 140 106 c 2,24,-1
 140 622 l 2,25,26
 140 640 140 640 134 648 c 128,-1,27
 128 656 128 656 111 658 c 2,28,-1
 58 664 l 1,29,-1
 58 720 l 1,0,-1
EndSplineSet
EndChar

StartChar: G
Encoding: 71 71 62
Width: 687
Flags: MW
HStem: -10 76<283 388.5 283 401> 510 220<256.5 591 256.5 519> 655 75<302 377>
VStem: 45 97<276.5 396.5 276.5 457> 509 84<91 224 224 226 51 236.5>
LayerCount: 2
Fore
SplineSet
142 359 m 0,0,1
 142 227 142 227 196 146.5 c 128,-1,2
 250 66 250 66 361 66 c 0,3,4
 429 66 429 66 509 91 c 1,5,-1
 509 224 l 2,6,7
 509 243 509 243 503.5 251 c 128,-1,8
 498 259 498 259 480 262 c 2,9,-1
 423 271 l 1,10,-1
 423 330 l 1,11,-1
 659 330 l 1,12,-1
 659 271 l 1,13,-1
 620 264 l 2,14,15
 602 260 602 260 597.5 253 c 128,-1,16
 593 246 593 246 593 226 c 2,17,-1
 593 51 l 1,18,19
 455 -10 455 -10 346 -10 c 0,20,21
 45 -10 45 -10 45 352 c 0,22,23
 45 520 45 520 126.5 625 c 128,-1,24
 208 730 208 730 371 730 c 0,25,26
 433 730 433 730 486 719.5 c 128,-1,27
 539 709 539 709 607 673 c 1,28,-1
 591 510 l 1,29,-1
 519 510 l 1,30,-1
 498 620 l 1,31,32
 457 639 457 639 424 647 c 128,-1,33
 391 655 391 655 339 655 c 0,34,35
 287 655 287 655 255.5 641 c 128,-1,36
 224 627 224 627 199 602 c 0,37,38
 174 577 174 577 158 500 c 128,-1,39
 142 423 142 423 142 359 c 0,0,1
EndSplineSet
EndChar

StartChar: H
Encoding: 72 72 63
Width: 790
Flags: MW
HStem: 0 21G<58 313 58 58 477 732 477 477> 341 72<226 564 226 564> 700 20G<58 313 313 313 477 732 732 732>
VStem: 140 86<106 341 413 614> 564 86<106 341 341 341 413 614>
LayerCount: 2
Fore
SplineSet
650 614 m 2,0,-1
 650 106 l 2,1,2
 650 86 650 86 655.5 78.5 c 128,-1,3
 661 71 661 71 679 68 c 2,4,-1
 732 59 l 1,5,-1
 732 0 l 1,6,-1
 477 0 l 1,7,-1
 477 59 l 1,8,-1
 535 68 l 2,9,10
 553 71 553 71 558.5 78.5 c 128,-1,11
 564 86 564 86 564 106 c 2,12,-1
 564 341 l 1,13,-1
 226 341 l 1,14,-1
 226 106 l 2,15,16
 226 86 226 86 231.5 78.5 c 128,-1,17
 237 71 237 71 255 68 c 2,18,-1
 313 59 l 1,19,-1
 313 0 l 1,20,-1
 58 0 l 1,21,-1
 58 59 l 1,22,-1
 111 68 l 2,23,24
 129 71 129 71 134.5 78.5 c 128,-1,25
 140 86 140 86 140 106 c 2,26,-1
 140 614 l 2,27,28
 140 634 140 634 134.5 641.5 c 128,-1,29
 129 649 129 649 111 652 c 2,30,-1
 58 661 l 1,31,-1
 58 720 l 1,32,-1
 313 720 l 1,33,-1
 313 661 l 1,34,-1
 255 652 l 2,35,36
 237 649 237 649 231.5 641.5 c 128,-1,37
 226 634 226 634 226 614 c 2,38,-1
 226 413 l 1,39,-1
 564 413 l 1,40,-1
 564 614 l 2,41,42
 564 634 564 634 558.5 641.5 c 128,-1,43
 553 649 553 649 535 652 c 2,44,-1
 477 661 l 1,45,-1
 477 720 l 1,46,-1
 732 720 l 1,47,-1
 732 661 l 1,48,-1
 679 652 l 2,49,50
 661 649 661 649 655.5 641.5 c 128,-1,51
 650 634 650 634 650 614 c 2,0,-1
EndSplineSet
EndChar

StartChar: I
Encoding: 73 73 64
Width: 366
Flags: MW
HStem: 0 21G<58 308 58 58> 700 20G<58 308 308 308>
VStem: 58 250<0 59 0 59 661 720> 140 86<106 614>
LayerCount: 2
Fore
SplineSet
308 59 m 1,0,-1
 308 0 l 1,1,-1
 58 0 l 1,2,-1
 58 59 l 1,3,-1
 111 68 l 2,4,5
 129 71 129 71 134.5 78.5 c 128,-1,6
 140 86 140 86 140 106 c 2,7,-1
 140 614 l 2,8,9
 140 634 140 634 134.5 641.5 c 128,-1,10
 129 649 129 649 111 652 c 2,11,-1
 58 661 l 1,12,-1
 58 720 l 1,13,-1
 308 720 l 1,14,-1
 308 661 l 1,15,-1
 255 652 l 2,16,17
 237 649 237 649 231.5 641.5 c 128,-1,18
 226 634 226 634 226 614 c 2,19,-1
 226 106 l 2,20,21
 226 86 226 86 231.5 78.5 c 128,-1,22
 237 71 237 71 255 68 c 2,23,-1
 308 59 l 1,0,-1
EndSplineSet
EndChar

StartChar: J
Encoding: 74 74 65
Width: 341
Flags: MW
HStem: -154 21G<14 14> 700 20G<58 308 308 308>
VStem: 140 86<179 614>
LayerCount: 2
Fore
SplineSet
14 -154 m 1,0,-1
 -25 -100 l 1,1,2
 84 -33 84 -33 112 15 c 128,-1,3
 140 63 140 63 140 179 c 2,4,-1
 140 614 l 2,5,6
 140 634 140 634 134.5 641.5 c 128,-1,7
 129 649 129 649 111 652 c 2,8,-1
 58 661 l 1,9,-1
 58 720 l 1,10,-1
 308 720 l 1,11,-1
 308 661 l 1,12,-1
 255 652 l 2,13,14
 237 649 237 649 231.5 641.5 c 128,-1,15
 226 634 226 634 226 614 c 2,16,-1
 226 148 l 2,17,18
 226 53.2727272727 226 53.2727272727 212 17.6363636364 c 128,-1,19
 198 -18 198 -18 186 -36 c 128,-1,20
 174 -54 174 -54 146 -75 c 0,21,22
 100.956521739 -108.782608696 100.956521739 -108.782608696 14 -154 c 1,0,-1
EndSplineSet
EndChar

StartChar: K
Encoding: 75 75 66
Width: 646
Flags: MW
HStem: -10 21G<539 590.5> 0 60 700 20G<58 312 312 312 574 623 623 623>
VStem: 140 86<106 384 403 614>
LayerCount: 2
Fore
SplineSet
226 384 m 1,0,-1
 226 106 l 2,1,2
 226 86 226 86 231.5 78.5 c 128,-1,3
 237 71 237 71 255 68 c 2,4,-1
 312 59 l 1,5,-1
 312 0 l 1,6,-1
 58 0 l 1,7,-1
 58 59 l 1,8,-1
 111 68 l 2,9,10
 129 71 129 71 134.5 78.5 c 128,-1,11
 140 86 140 86 140 106 c 2,12,-1
 140 614 l 2,13,14
 140 634 140 634 134.5 641.5 c 128,-1,15
 129 649 129 649 111 652 c 2,16,-1
 58 661 l 1,17,-1
 58 720 l 1,18,-1
 312 720 l 1,19,-1
 312 661 l 1,20,-1
 255 652 l 2,21,22
 237 649 237 649 231.5 641.5 c 128,-1,23
 226 634 226 634 226 614 c 2,24,-1
 226 403 l 1,25,-1
 481 677 l 2,26,27
 521 720 521 720 574 720 c 2,28,-1
 623 720 l 1,29,-1
 623 658 l 1,30,31
 590 658 590 658 570.5 650.5 c 128,-1,32
 551 643 551 643 526 617 c 2,33,-1
 324 398 l 1,34,-1
 504 153 l 2,35,36
 544 98 544 98 567.5 79 c 128,-1,37
 591 60 591 60 616 60 c 128,-1,38
 641 60 641 60 661 67 c 1,39,-1
 655 9 l 1,40,41
 619 -10 619 -10 573.5 -10 c 0,42,43
 528 -10 528 -10 499 15.5 c 128,-1,44
 470 41 470 41 431 97 c 2,45,-1
 226 384 l 1,0,-1
EndSplineSet
EndChar

StartChar: L
Encoding: 76 76 67
Width: 556
Flags: MW
HStem: 0 177<469 536 469 542> 700 20G<58 314 314 314>
VStem: 140 86<106 614 73 626.5> 466 73
LayerCount: 2
Fore
SplineSet
542 0 m 1,0,-1
 58 0 l 1,1,-1
 58 59 l 1,2,-1
 111 68 l 2,3,4
 129 71 129 71 134.5 78.5 c 128,-1,5
 140 86 140 86 140 106 c 2,6,-1
 140 614 l 2,7,8
 140 634 140 634 134.5 641.5 c 128,-1,9
 129 649 129 649 111 652 c 2,10,-1
 58 661 l 1,11,-1
 58 720 l 1,12,-1
 314 720 l 1,13,-1
 314 661 l 1,14,-1
 255 652 l 2,15,16
 237 649 237 649 231.5 641.5 c 128,-1,17
 226 634 226 634 226 614 c 2,18,-1
 226 73 l 1,19,-1
 425 73 l 2,20,21
 444 73 444 73 453 78.5 c 128,-1,22
 462 84 462 84 463 102 c 2,23,-1
 469 177 l 1,24,-1
 536 177 l 1,25,-1
 542 0 l 1,0,-1
EndSplineSet
EndChar

StartChar: M
Encoding: 77 77 68
Width: 893
Flags: MW
HStem: 0 21G<19 257 19 19 410 410 410 481 626 626 626 882> 700 20G<54 254 254 254 629 841 841 841>
VStem: 118 68 690 84
LayerCount: 2
Fore
SplineSet
257 0 m 1,0,-1
 19 0 l 1,1,-1
 19 59 l 1,2,-1
 72 68 l 2,3,4
 90 71 90 71 94.5 78 c 128,-1,5
 99 85 99 85 101 105 c 2,6,-1
 136 625 l 1,7,8
 136 651 136 651 106 655 c 2,9,-1
 54 661 l 1,10,-1
 54 720 l 1,11,-1
 254 720 l 1,12,-1
 452 134 l 1,13,-1
 629 720 l 1,14,-1
 841 720 l 1,15,-1
 841 661 l 1,16,-1
 785 655 l 2,17,18
 767 653 767 653 760.5 646 c 128,-1,19
 754 639 754 639 754 623 c 1,20,-1
 794 105 l 2,21,22
 796 85 796 85 800.5 78 c 128,-1,23
 805 71 805 71 823 68 c 2,24,-1
 882 59 l 1,25,-1
 882 0 l 1,26,-1
 626 0 l 1,27,-1
 626 59 l 1,28,-1
 680 65 l 2,29,30
 709 69 709 69 709 97 c 1,31,-1
 672 611 l 1,32,-1
 481 0 l 1,33,-1
 410 0 l 1,34,-1
 198 611 l 1,35,-1
 174 99 l 1,36,37
 175 83 175 83 181 75 c 128,-1,38
 187 67 187 67 204 65 c 2,39,-1
 257 59 l 1,40,-1
 257 0 l 1,0,-1
EndSplineSet
EndChar

StartChar: N
Encoding: 78 78 69
Width: 787
Flags: MW
HStem: 0 21G<58 308 58 58 584 584 584 672> 700 20G<59 227 227 227 506 753 753 753>
VStem: 140 86<106 562> 586 86<158 615 0 627.5>
LayerCount: 2
Fore
SplineSet
226 562 m 1,0,-1
 226 106 l 2,1,2
 226 86 226 86 231.5 78.5 c 128,-1,3
 237 71 237 71 255 68 c 2,4,-1
 308 59 l 1,5,-1
 308 0 l 1,6,-1
 58 0 l 1,7,-1
 58 59 l 1,8,-1
 111 68 l 2,9,10
 129 71 129 71 134.5 78.5 c 128,-1,11
 140 86 140 86 140 106 c 2,12,-1
 140 615 l 2,13,14
 140 635 140 635 134.5 644 c 128,-1,15
 129 653 129 653 111 655 c 2,16,-1
 59 661 l 1,17,-1
 59 720 l 1,18,-1
 227 720 l 1,19,-1
 586 158 l 1,20,-1
 586 615 l 2,21,22
 586 635 586 635 581 644 c 128,-1,23
 576 653 576 653 558 655 c 2,24,-1
 506 661 l 1,25,-1
 506 720 l 1,26,-1
 753 720 l 1,27,-1
 753 661 l 1,28,-1
 701 655 l 2,29,30
 683 653 683 653 677.5 644 c 128,-1,31
 672 635 672 635 672 615 c 2,32,-1
 672 0 l 1,33,-1
 584 0 l 1,34,-1
 226 562 l 1,0,-1
EndSplineSet
EndChar

StartChar: O
Encoding: 79 79 70
Width: 717
Flags: MW
HStem: -10 74<296 403.5 296 457.5> 656 74<313.5 421>
VStem: 42 97<264 399 264 455> 578 97<321 456>
LayerCount: 2
Fore
SplineSet
647 552 m 128,-1,1
 675 472 675 472 675 379 c 128,-1,2
 675 286 675 286 656 221.5 c 128,-1,3
 637 157 637 157 597.5 104 c 128,-1,4
 558 51 558 51 491 20.5 c 128,-1,5
 424 -10 424 -10 328 -10 c 128,-1,6
 232 -10 232 -10 165 39 c 128,-1,7
 98 88 98 88 70 168 c 128,-1,8
 42 248 42 248 42 341 c 128,-1,9
 42 434 42 434 61 498.5 c 128,-1,10
 80 563 80 563 119.5 616 c 128,-1,11
 159 669 159 669 226 699.5 c 128,-1,12
 293 730 293 730 389 730 c 128,-1,13
 485 730 485 730 552 681 c 128,-1,0
 619 632 619 632 647 552 c 128,-1,1
517.5 579 m 128,-1,15
 457 656 457 656 350.5 656 c 128,-1,16
 244 656 244 656 196 601 c 0,17,18
 171 572 171 572 155 498.5 c 128,-1,19
 139 425 139 425 139 354 c 0,20,21
 139 218 139 218 199.5 141 c 128,-1,22
 260 64 260 64 366.5 64 c 128,-1,23
 473 64 473 64 521 119 c 0,24,25
 546 148 546 148 562 221.5 c 128,-1,26
 578 295 578 295 578 366 c 0,27,14
 578 502 578 502 517.5 579 c 128,-1,15
EndSplineSet
EndChar

StartChar: P
Encoding: 80 80 71
Width: 569
Flags: MW
HStem: 0 21G<58 327 58 58> 279 70<226 295 295 298 226 295> 650 70<226 226 226 312>
VStem: 140 86<106 279 349 614 614 626.5> 457 97<483 574>
LayerCount: 2
Fore
SplineSet
226 650 m 1,0,-1
 226 349 l 1,1,-1
 295 349 l 2,2,3
 376 349 376 349 405 372.5 c 0,4,5
 434 396 434 396 445.5 430 c 128,-1,6
 457 464 457 464 457 524 c 0,7,8
 457 650 457 650 312 650 c 2,9,-1
 226 650 l 1,0,-1
140 106 m 2,10,-1
 140 614 l 2,11,12
 140 634 140 634 134.5 641.5 c 128,-1,13
 129 649 129 649 111 652 c 2,14,-1
 58 661 l 1,15,-1
 58 720 l 1,16,-1
 321 720 l 2,17,18
 435 720 435 720 494.5 679.5 c 128,-1,19
 554 639 554 639 554 528.5 c 0,20,21
 554 418 554 418 477 348.5 c 128,-1,22
 400 279 400 279 298 279 c 2,23,-1
 226 279 l 1,24,-1
 226 106 l 2,25,26
 226 86 226 86 232 78 c 128,-1,27
 238 70 238 70 256 68 c 2,28,-1
 327 60 l 1,29,-1
 327 0 l 1,30,-1
 58 0 l 1,31,-1
 58 59 l 1,32,-1
 111 68 l 2,33,34
 129 71 129 71 134.5 78.5 c 128,-1,35
 140 86 140 86 140 106 c 2,10,-1
EndSplineSet
EndChar

StartChar: Q
Encoding: 81 81 72
Width: 717
Flags: MW
HStem: -187 78<567.5 603.5> -121 72<300.5 350.5> -10 74<296 403.5 296 457.5> 656 74<313.5 421>
VStem: 42 97<264 399 264 455> 578 97<321 456>
LayerCount: 2
Fore
SplineSet
480.5 -79 m 128,-1,1
 573 -109 573 -109 609.5 -109 c 128,-1,2
 646 -109 646 -109 686 -89 c 1,3,-1
 701 -142 l 1,4,5
 691 -153 691 -153 661 -170 c 128,-1,6
 631 -187 631 -187 583 -187 c 128,-1,7
 535 -187 535 -187 442.5 -154 c 128,-1,8
 350 -121 350 -121 310.5 -121 c 128,-1,9
 271 -121 271 -121 226 -134 c 1,10,-1
 206 -82 l 1,11,12
 269 -49 269 -49 328.5 -49 c 128,-1,0
 388 -49 388 -49 480.5 -79 c 128,-1,1
647 552 m 128,-1,14
 675 472 675 472 675 379 c 128,-1,15
 675 286 675 286 656 221.5 c 128,-1,16
 637 157 637 157 597.5 104 c 128,-1,17
 558 51 558 51 491 20.5 c 128,-1,18
 424 -10 424 -10 328 -10 c 128,-1,19
 232 -10 232 -10 165 39 c 128,-1,20
 98 88 98 88 70 168 c 128,-1,21
 42 248 42 248 42 341 c 128,-1,22
 42 434 42 434 61 498.5 c 128,-1,23
 80 563 80 563 119.5 616 c 128,-1,24
 159 669 159 669 226 699.5 c 128,-1,25
 293 730 293 730 389 730 c 128,-1,26
 485 730 485 730 552 681 c 128,-1,13
 619 632 619 632 647 552 c 128,-1,14
517.5 579 m 128,-1,28
 457 656 457 656 350.5 656 c 128,-1,29
 244 656 244 656 196 601 c 0,30,31
 171 572 171 572 155 498.5 c 128,-1,32
 139 425 139 425 139 354 c 0,33,34
 139 218 139 218 199.5 141 c 128,-1,35
 260 64 260 64 366.5 64 c 128,-1,36
 473 64 473 64 521 119 c 0,37,38
 546 148 546 148 562 221.5 c 128,-1,39
 578 295 578 295 578 366 c 0,40,27
 578 502 578 502 517.5 579 c 128,-1,28
EndSplineSet
EndChar

StartChar: R
Encoding: 82 82 73
Width: 638
Flags: MW
HStem: -10 21G 0 59<58 321 58 58> 327 70<226 315 226 262> 650 70<226 226 226 301>
VStem: 140 86<106 327 397 614 614 626.5> 453 97<501.5 575>
LayerCount: 2
Fore
SplineSet
226 650 m 1,0,-1
 226 397 l 1,1,-1
 315 397 l 2,2,3
 383 397 383 397 413 422 c 0,4,5
 453 455 453 455 453 530 c 0,6,7
 453 650 453 650 301 650 c 2,8,-1
 226 650 l 1,0,-1
226 327 m 1,9,-1
 226 106 l 2,10,11
 226 86 226 86 232 78 c 128,-1,12
 238 70 238 70 256 68 c 2,13,-1
 321 60 l 1,14,-1
 321 0 l 1,15,-1
 58 0 l 1,16,-1
 58 59 l 1,17,-1
 111 68 l 2,18,19
 129 71 129 71 134.5 78.5 c 128,-1,20
 140 86 140 86 140 106 c 2,21,-1
 140 614 l 2,22,23
 140 634 140 634 134.5 641.5 c 128,-1,24
 129 649 129 649 111 652 c 2,25,-1
 58 661 l 1,26,-1
 58 720 l 1,27,-1
 321 720 l 2,28,29
 432 720 432 720 491 679 c 128,-1,30
 550 638 550 638 550 540 c 0,31,32
 550 428.960784314 550 428.960784314 459.5 377.5 c 0,33,34
 415.177319588 352.296907216 415.177319588 352.296907216 369 346 c 1,35,36
 399 339 399 339 434 284 c 2,37,-1
 544 112 l 2,38,39
 578 59 578 59 623 59 c 0,40,41
 637 59 637 59 658 66 c 1,42,-1
 653 11 l 1,43,44
 625 -10 625 -10 574 -10 c 0,45,46
 512 -10 512 -10 457 74 c 1,47,-1
 323 287 l 2,48,49
 297 327 297 327 262 327 c 2,50,-1
 226 327 l 1,9,-1
EndSplineSet
EndChar

StartChar: S
Encoding: 83 83 74
Width: 537
Flags: MW
HStem: -10 70<246 318 246 339.5> -10 207<58 339.5> 547 182<196 462 196 390> 662 67<219 278.5>
VStem: 46 92<521.5 589.5 521.5 594.5> 425 89<143 212>
LayerCount: 2
Fore
SplineSet
131 197 m 1,0,-1
 146 95 l 1,1,2
 204 60 204 60 272.5 60 c 128,-1,3
 341 60 341 60 383 92.5 c 128,-1,4
 425 125 425 125 425 176.5 c 128,-1,5
 425 228 425 228 399.5 256 c 128,-1,6
 374 284 374 284 302 311 c 2,7,-1
 180 357 l 2,8,9
 119 380 119 380 82.5 426 c 128,-1,10
 46 472 46 472 46 539 c 0,11,12
 46 626 46 626 103.5 677.5 c 128,-1,13
 161 729 161 729 262 729 c 128,-1,14
 363 729 363 729 476 702 c 1,15,-1
 462 547 l 1,16,-1
 390 547 l 1,17,-1
 375 637 l 1,18,19
 321 662 321 662 258 662 c 0,20,21
 138 662 138 662 138 551 c 0,22,23
 138 506 138 506 164 477.5 c 128,-1,24
 190 449 190 449 255 426 c 2,25,-1
 340 396 l 2,26,27
 416.186046512 368.651162791 416.186046512 368.651162791 451.593023256 340.325581395 c 128,-1,28
 487 312 487 312 500.5 279 c 128,-1,29
 514 246 514 246 514 202 c 0,30,31
 514 106 514 106 446.5 48 c 128,-1,32
 379 -10 379 -10 254 -10 c 0,33,34
 169.2 -10 169.2 -10 109 11.5 c 0,35,36
 88 19 88 19 46 36 c 1,37,-1
 58 197 l 1,38,-1
 131 197 l 1,0,-1
EndSplineSet
EndChar

StartChar: T
Encoding: 84 84 75
Width: 606
Flags: MW
HStem: 0 21G<174 432 174 174> 548 172<13 77 13 13 529 529 529 593> 650 70<108.5 120 120 260 346 485 346 346>
VStem: 260 86<106 650>
LayerCount: 2
Fore
SplineSet
485 650 m 2,0,-1
 346 650 l 1,1,-1
 346 106 l 2,2,3
 346 86 346 86 351.5 78.5 c 128,-1,4
 357 71 357 71 375 68 c 2,5,-1
 432 59 l 1,6,-1
 432 0 l 1,7,-1
 174 0 l 1,8,-1
 174 59 l 1,9,-1
 231 68 l 2,10,11
 249 71 249 71 254.5 78.5 c 128,-1,12
 260 86 260 86 260 106 c 2,13,-1
 260 650 l 1,14,-1
 120 650 l 2,15,16
 101 650 101 650 92.5 644.5 c 128,-1,17
 84 639 84 639 83 621 c 2,18,-1
 77 548 l 1,19,-1
 13 548 l 1,20,-1
 7 720 l 1,21,-1
 599 720 l 1,22,-1
 593 548 l 1,23,-1
 529 548 l 1,24,-1
 523 621 l 2,25,26
 522 639 522 639 513 644.5 c 128,-1,27
 504 650 504 650 485 650 c 2,0,-1
EndSplineSet
EndChar

StartChar: U
Encoding: 85 85 76
Width: 721
Flags: MW
HStem: -10 80<335 402 335 413.5> 700 20G<28 278 278 278 449 695 695 695>
VStem: 110 86<232 248 248 614> 531 82<256 614>
LayerCount: 2
Fore
SplineSet
613 614 m 2,0,-1
 613 232 l 2,1,2
 613 148 613 148 572.5 91.5 c 0,3,4
 499.743362832 -10 499.743362832 -10 351 -10 c 0,5,6
 232 -10 232 -10 171 52.5 c 128,-1,7
 110 115 110 115 110 232 c 2,8,-1
 110 614 l 2,9,10
 110 634 110 634 104.5 641.5 c 128,-1,11
 99 649 99 649 81 652 c 2,12,-1
 28 661 l 1,13,-1
 28 720 l 1,14,-1
 278 720 l 1,15,-1
 278 661 l 1,16,-1
 225 652 l 2,17,18
 207 649 207 649 201.5 641.5 c 128,-1,19
 196 634 196 634 196 614 c 2,20,-1
 196 248 l 2,21,22
 196 70 196 70 382 70 c 0,23,24
 454 70 454 70 492.5 106 c 128,-1,25
 531 142 531 142 531 256 c 2,26,-1
 531 614 l 2,27,28
 531 634 531 634 525.5 641.5 c 128,-1,29
 520 649 520 649 502 652 c 2,30,-1
 449 661 l 1,31,-1
 449 720 l 1,32,-1
 695 720 l 1,33,-1
 695 661 l 1,34,-1
 642 652 l 2,35,36
 624 649 624 649 618.5 641.5 c 128,-1,37
 613 634 613 634 613 614 c 2,0,-1
EndSplineSet
EndChar

StartChar: V
Encoding: 86 86 77
Width: 662
Flags: MW
HStem: 1 21G<310 383 310 310> 701 20G<-6 263 263 263 419 668 668 668>
LayerCount: 2
Fore
SplineSet
583 615 m 2,0,-1
 383 1 l 1,1,-1
 310 1 l 1,2,-1
 88 615 l 2,3,4
 80 639 80 639 66 647 c 128,-1,5
 52 655 52 655 29 658 c 2,6,-1
 -6 662 l 1,7,-1
 -6 721 l 1,8,-1
 263 721 l 1,9,-1
 263 663 l 1,10,-1
 210 657 l 2,11,12
 194 655 194 655 187.5 651.5 c 128,-1,13
 181 648 181 648 181 639 c 0,14,15
 181 630 181 630 186 615 c 2,16,-1
 352 129 l 1,17,-1
 499 615 l 2,18,19
 503 631 503 631 503 636 c 0,20,21
 503 654 503 654 472 657 c 2,22,-1
 419 663 l 1,23,-1
 419 721 l 1,24,-1
 668 721 l 1,25,-1
 668 662 l 1,26,-1
 631 658 l 2,27,28
 611 656 611 656 601.5 648 c 128,-1,29
 592 640 592 640 583 615 c 2,0,-1
EndSplineSet
EndChar

StartChar: W
Encoding: 87 87 78
Width: 941
Flags: MW
HStem: 0 21G<231 353 231 231 608 729 608 608> 700 20G<-3 267 267 267 698 941 941 941>
LayerCount: 2
Fore
SplineSet
861 614 m 2,0,-1
 729 0 l 1,1,-1
 608 0 l 1,2,-1
 479 523 l 1,3,-1
 353 0 l 1,4,-1
 231 0 l 1,5,-1
 91 614 l 2,6,7
 86 638 86 638 72.5 646 c 128,-1,8
 59 654 59 654 36 657 c 2,9,-1
 -3 661 l 1,10,-1
 -3 720 l 1,11,-1
 267 720 l 1,12,-1
 267 662 l 1,13,-1
 210 656 l 2,14,15
 194 655 194 655 188 650 c 128,-1,16
 182 645 182 645 182 637.5 c 128,-1,17
 182 630 182 630 184 614 c 1,18,-1
 299 96 l 1,19,-1
 431 646 l 1,20,-1
 541 646 l 1,21,-1
 675 96 l 1,22,-1
 783 614 l 2,23,24
 784 620 784 620 784 631 c 0,25,26
 784 652.333333333 784 652.333333333 751 656 c 2,27,-1
 698 662 l 1,28,-1
 698 720 l 1,29,-1
 941 720 l 1,30,-1
 941 661 l 1,31,-1
 906 657 l 2,32,33
 892 655 892 655 884.5 652.5 c 0,34,35
 868.36 647.12 868.36 647.12 861 614 c 2,0,-1
EndSplineSet
EndChar

StartChar: X
Encoding: 88 88 79
Width: 683
Flags: MW
HStem: 0 21G<6 273 6 6 399 674 399 399> 700 20G<18 286 286 286 406 660 660 660>
LayerCount: 2
Fore
SplineSet
288 371 m 1,0,-1
 115 614 l 2,1,2
 99 638 99 638 88.5 645.5 c 128,-1,3
 78 653 78 653 56 656 c 2,4,-1
 18 661 l 1,5,-1
 18 720 l 1,6,-1
 286 720 l 1,7,-1
 286 662 l 1,8,-1
 230 656 l 1,9,10
 211 655 211 655 211 642 c 0,11,12
 211 632 211 632 223 614 c 2,13,-1
 348 436 l 1,14,-1
 462 614 l 2,15,16
 475 634 475 634 475 643 c 0,17,18
 475 655 475 655 457 656 c 1,19,-1
 406 662 l 1,20,-1
 406 720 l 1,21,-1
 660 720 l 1,22,-1
 660 661 l 1,23,-1
 622 656 l 2,24,25
 574 650 574 650 551 614 c 2,26,-1
 393 372 l 1,27,-1
 581 106 l 2,28,29
 596 85 596 85 607.5 75.5 c 128,-1,30
 619 66 619 66 636 64 c 2,31,-1
 674 59 l 1,32,-1
 674 0 l 1,33,-1
 399 0 l 1,34,-1
 399 58 l 1,35,-1
 460 64 l 2,36,37
 487 66 487 66 487 84 c 0,38,39
 487 92 487 92 478 106 c 2,40,-1
 332 309 l 1,41,-1
 203 106 l 2,42,43
 192 89 192 89 192 79 c 0,44,45
 192 65 192 65 212 64 c 2,46,-1
 273 58 l 1,47,-1
 273 0 l 1,48,-1
 6 0 l 1,49,-1
 6 59 l 1,50,-1
 44 64 l 1,51,52
 87 68 87 68 112 106 c 2,53,-1
 288 371 l 1,0,-1
EndSplineSet
EndChar

StartChar: Y
Encoding: 89 89 80
Width: 670
Flags: MW
HStem: 0 21G<206 464 206 206> 700 20G<-4 265 265 265 420 668 668 668>
VStem: 292 86<106 254 254 254>
LayerCount: 2
Fore
SplineSet
292 254 m 1,0,-1
 94 614 l 2,1,2
 81 636 81 636 69 644.5 c 128,-1,3
 57 653 57 653 34 656 c 2,4,-1
 -4 661 l 1,5,-1
 -4 720 l 1,6,-1
 265 720 l 1,7,-1
 265 662 l 1,8,-1
 215 656 l 1,9,10
 183 651 183 651 183 637 c 0,11,12
 183 630 183 630 191 614 c 2,13,-1
 348 331 l 1,14,-1
 498 614 l 2,15,16
 505 627 505 627 505 635 c 0,17,18
 505 650 505 650 470 655 c 2,19,-1
 420 661 l 1,20,-1
 420 720 l 1,21,-1
 668 720 l 1,22,-1
 668 661 l 1,23,-1
 630 656 l 2,24,25
 610 653 610 653 601.5 645.5 c 128,-1,26
 593 638 593 638 580 614 c 2,27,-1
 378 256 l 1,28,-1
 378 106 l 2,29,30
 378 86 378 86 383.5 78.5 c 128,-1,31
 389 71 389 71 407 68 c 2,32,-1
 464 59 l 1,33,-1
 464 0 l 1,34,-1
 206 0 l 1,35,-1
 206 59 l 1,36,-1
 263 68 l 2,37,38
 281 71 281 71 286.5 78.5 c 128,-1,39
 292 86 292 86 292 106 c 2,40,-1
 292 254 l 1,0,-1
EndSplineSet
EndChar

StartChar: Z
Encoding: 90 90 81
Width: 624
Flags: MW
HStem: 0 73<160 474 474 486 58 58> 0 177<518 585 518 591> 551 169<79 145 79 79> 650 70<177 189 189 469 73 571>
VStem: 515 73
LayerCount: 2
Fore
SplineSet
469 650 m 1,0,-1
 189 650 l 2,1,2
 170 650 170 650 161 644.5 c 128,-1,3
 152 639 152 639 151 621 c 2,4,-1
 145 551 l 1,5,-1
 79 551 l 1,6,-1
 73 720 l 1,7,-1
 571 720 l 1,8,-1
 571 650 l 1,9,-1
 160 73 l 1,10,-1
 474 73 l 2,11,12
 493 73 493 73 502 78.5 c 128,-1,13
 511 84 511 84 512 102 c 2,14,-1
 518 177 l 1,15,-1
 585 177 l 1,16,-1
 591 0 l 1,17,-1
 58 0 l 1,18,-1
 58 73 l 1,19,-1
 469 650 l 1,0,-1
EndSplineSet
EndChar

StartChar: bracketleft
Encoding: 91 91 82
Width: 363
Flags: MW
HStem: -240 61<175 325 175 325> 719 61<175 325 175 175>
VStem: 100 75<-179 719 -179 780 -179 780> 100 225<-240 -179 719 780>
LayerCount: 2
Fore
SplineSet
325 780 m 1,0,-1
 325 719 l 1,1,-1
 175 719 l 1,2,-1
 175 -179 l 1,3,-1
 325 -179 l 1,4,-1
 325 -240 l 1,5,-1
 100 -240 l 1,6,-1
 100 780 l 1,7,-1
 325 780 l 1,0,-1
EndSplineSet
EndChar

StartChar: backslash
Encoding: 92 92 83
Width: 413
Flags: MW
HStem: -172 21G<324 324> 700 20G<85 85>
LayerCount: 2
Fore
SplineSet
20 692 m 1,0,-1
 85 720 l 1,1,-1
 389 -144 l 1,2,-1
 324 -172 l 1,3,-1
 20 692 l 1,0,-1
EndSplineSet
EndChar

StartChar: bracketright
Encoding: 93 93 84
Width: 363
Flags: MW
HStem: -240 61<38 188 38 263 38 188> 719 61<38 263 38 188>
VStem: 38 225<-240 -179 -179 -179 719 780 -240 780> 188 75<-179 719 719 719>
LayerCount: 2
Fore
SplineSet
38 719 m 1,0,-1
 38 780 l 1,1,-1
 263 780 l 1,2,-1
 263 -240 l 1,3,-1
 38 -240 l 1,4,-1
 38 -179 l 1,5,-1
 188 -179 l 1,6,-1
 188 719 l 1,7,-1
 38 719 l 1,0,-1
EndSplineSet
EndChar

StartChar: asciicircum
Encoding: 94 94 85
Width: 575
Flags: MW
HStem: 339 21G<112 112 459 459> 700 20G<249 322 322 322>
LayerCount: 2
Fore
SplineSet
249 720 m 1,0,-1
 322 720 l 1,1,-1
 515 371 l 1,2,-1
 459 339 l 1,3,-1
 283 646 l 1,4,-1
 112 339 l 1,5,-1
 62 363 l 1,6,-1
 249 720 l 1,0,-1
EndSplineSet
EndChar

StartChar: underscore
Encoding: 95 95 86
Width: 500
Flags: MW
HStem: -172 54<0 500 0 500>
LayerCount: 2
Fore
SplineSet
0 -172 m 1,0,-1
 0 -118 l 1,1,-1
 500 -118 l 1,2,-1
 500 -172 l 1,3,-1
 0 -172 l 1,0,-1
EndSplineSet
EndChar

StartChar: grave
Encoding: 96 96 87
Width: 293
Flags: MW
HStem: 564 21G<208 222> 742 20G<103 103>
LayerCount: 2
Fore
SplineSet
45 702 m 1,0,-1
 103 762 l 1,1,-1
 259 586 l 1,2,3
 233 564 233 564 215 564 c 0,4,5
 197 564 197 564 182 578 c 2,6,-1
 45 702 l 1,0,-1
EndSplineSet
EndChar

StartChar: a
Encoding: 97 97 88
Width: 527
Flags: MW
HStem: -10 71<172 195> 0 21G<347 493 347 347> 430 60<211 257.5>
VStem: 37 83<105 148 105 157.5> 335 79<140 229 229 229 283 350 350 352>
LayerCount: 2
Fore
SplineSet
414 352 m 2,0,-1
 414 98 l 2,1,2
 414 76 414 76 418 68.5 c 128,-1,3
 422 61 422 61 437 60 c 2,4,-1
 493 54 l 1,5,-1
 493 0 l 1,6,-1
 347 0 l 1,7,-1
 339 78 l 1,8,9
 256 -10 256 -10 163 -10 c 0,10,11
 106 -10 106 -10 71.5 25.5 c 128,-1,12
 37 61 37 61 37 119.5 c 0,13,14
 37 178 37 178 72 215 c 128,-1,15
 107 252 107 252 173 261 c 2,16,-1
 335 283 l 1,17,-1
 335 350 l 2,18,19
 335 430 335 430 227 430 c 0,20,21
 181 430 181 430 139 411 c 1,22,-1
 125 338 l 1,23,-1
 67 338 l 1,24,-1
 60 453 l 1,25,26
 163 490 163 490 236 490 c 0,27,28
 309 490 309 490 361.5 456 c 128,-1,29
 414 422 414 422 414 352 c 2,0,-1
335 229 m 1,30,-1
 196 206 l 2,31,32
 160 201 160 201 140 180 c 128,-1,33
 120 159 120 159 120 127 c 0,34,35
 120 95 120 95 140.5 78 c 128,-1,36
 161 61 161 61 193 61 c 0,37,38
 247 61 247 61 335 140 c 1,39,-1
 335 229 l 1,30,-1
EndSplineSet
EndChar

StartChar: b
Encoding: 98 98 89
Width: 564
Flags: MW
HStem: -10 66<283 325.5 283 366> 424 66<294.5 343> 760 20G<25 184 184 184>
VStem: 105 79<97 356 421 684 684 698> 439 86<216 307.5>
LayerCount: 2
Fore
SplineSet
184 780 m 1,0,-1
 184 421 l 1,1,2
 242 490 242 490 339 490 c 0,3,4
 420 490 420 490 472.5 428 c 128,-1,5
 525 366 525 366 525 253 c 0,6,7
 525 140 525 140 463.5 65 c 128,-1,8
 402 -10 402 -10 286 -10 c 0,9,10
 189 -10 189 -10 105 35 c 1,11,-1
 105 684 l 2,12,13
 105 705 105 705 100 713 c 128,-1,14
 95 721 95 721 80 722 c 2,15,-1
 25 728 l 1,16,-1
 25 780 l 1,17,-1
 184 780 l 1,0,-1
184 356 m 1,18,-1
 184 97 l 1,19,20
 232 56 232 56 304 56 c 0,21,22
 376 56 376 56 403 89 c 1,23,24
 439 141 439 141 439 237.5 c 0,25,26
 439 334 439 334 402 379 c 128,-1,27
 365 424 365 424 305 424 c 0,28,29
 265 424 265 424 232.5 402 c 128,-1,30
 200 380 200 380 184 356 c 1,18,-1
EndSplineSet
EndChar

StartChar: c
Encoding: 99 99 90
Width: 475
Flags: MW
HStem: -10 66<220 295.5 220 298> 424 66<228.5 268>
VStem: 40 86<181 262.5 181 303>
LayerCount: 2
Fore
SplineSet
423 83 m 1,0,-1
 435 32 l 1,1,2
 433 31 433 31 419.5 26 c 128,-1,3
 406 21 406 21 396.5 17 c 128,-1,4
 387 13 387 13 368.5 7.5 c 128,-1,5
 350 2 350 2 334 -1.5 c 0,6,7
 295.142857143 -10 295.142857143 -10 255 -10 c 0,8,9
 149 -10 149 -10 94.5 50 c 128,-1,10
 40 110 40 110 40 226.5 c 128,-1,11
 40 343 40 343 102 416.5 c 128,-1,12
 164 490 164 490 268 490 c 0,13,14
 314 490 314 490 357 478.5 c 128,-1,15
 400 467 400 467 422 453 c 1,16,-1
 415 330 l 1,17,-1
 357 330 l 1,18,-1
 343 405 l 1,19,20
 309 424 309 424 243 424 c 0,21,22
 219 424 219 424 194 415 c 128,-1,23
 169 406 169 406 160 391 c 1,24,25
 126 343 126 343 126 231 c 0,26,27
 126 153 126 153 162.5 104.5 c 128,-1,28
 199 56 199 56 266 56 c 0,29,30
 315 56 315 56 423 83 c 1,0,-1
EndSplineSet
EndChar

StartChar: d
Encoding: 100 100 91
Width: 569
Flags: MW
HStem: -10 66<211.5 274.5> 0 21G<392 540 392 392> 424 66<243.5 277> 760 20G<295 459 459 459>
VStem: 39 86<179 260.5 179 292> 380 79<133 385 385 385 472 684 684 698>
LayerCount: 2
Fore
SplineSet
380 133 m 1,0,-1
 380 385 l 1,1,2
 341 424 341 424 269.5 424 c 0,3,4
 198 424 198 424 167 397 c 0,5,6
 147 380 147 380 136 330 c 128,-1,7
 125 280 125 280 125 239 c 0,8,9
 125 56 125 56 254 56 c 0,10,11
 300 56 300 56 336 84.5 c 128,-1,12
 372 113 372 113 380 133 c 1,0,-1
459 780 m 1,13,-1
 459 98 l 2,14,15
 459 76 459 76 463 68.5 c 128,-1,16
 467 61 467 61 482 60 c 2,17,-1
 540 54 l 1,18,-1
 540 0 l 1,19,-1
 392 0 l 1,20,-1
 384 68 l 1,21,22
 374 53 374 53 359 38.5 c 128,-1,23
 344 24 344 24 307 7 c 128,-1,24
 270 -10 270 -10 227 -10 c 0,25,26
 140 -10 140 -10 89.5 52 c 128,-1,27
 39 114 39 114 39 223.5 c 0,28,29
 39 333 39 333 103 411.5 c 128,-1,30
 167 490 167 490 276 490 c 0,31,32
 326 490 326 490 380 472 c 1,33,-1
 380 684 l 2,34,35
 380 705 380 705 375 713 c 128,-1,36
 370 721 370 721 355 722 c 2,37,-1
 295 728 l 1,38,-1
 295 780 l 1,39,-1
 459 780 l 1,13,-1
EndSplineSet
EndChar

StartChar: e
Encoding: 101 101 92
Width: 484
Flags: MW
HStem: -10 66<221.5 294 221.5 295> 424 66<201.5 303>
VStem: 36 87<219 219 219 308> 366 79<300 318 242 330.5>
LayerCount: 2
Fore
SplineSet
445 242 m 1,0,-1
 123 219 l 1,1,2
 128 56 128 56 270 56 c 0,3,4
 340 56 340 56 427 85 c 1,5,-1
 441 36 l 1,6,7
 411.8 21.4 411.8 21.4 370.4 9.7 c 0,8,9
 300.692307692 -10 300.692307692 -10 242 -10 c 0,10,11
 137 -10 137 -10 86.5 55.5 c 128,-1,12
 36 121 36 121 36 234.5 c 128,-1,13
 36 348 36 348 95 419 c 128,-1,14
 154 490 154 490 260.5 490 c 128,-1,15
 367 490 367 490 406 428.5 c 128,-1,16
 445 367 445 367 445 242 c 1,0,-1
122 279 m 1,17,-1
 366 300 l 1,18,19
 366 356 366 356 343 390 c 128,-1,20
 320 424 320 424 248.5 424 c 128,-1,21
 177 424 177 424 154.5 397 c 128,-1,22
 132 370 132 370 122 279 c 1,17,-1
EndSplineSet
EndChar

StartChar: f
Encoding: 102 102 93
Width: 334
Flags: MW
HStem: 0 21G<40 300 40 40> 428 62 465 20G<118 120 120 120 199 199> 720 70<253.5 304>
VStem: 120 79<98 428 485 590 590 646> 120 207<98 495 428 495 485 495 428 590 428 657>
LayerCount: 2
Fore
SplineSet
37 476 m 1,0,-1
 118 485 l 1,1,-1
 120 485 l 1,2,-1
 120 590 l 2,3,4
 120 688 120 688 171.5 739 c 128,-1,5
 223 790 223 790 310 790 c 0,6,7
 360 790 360 790 411 771 c 1,8,-1
 381 697 l 1,9,10
 377 698 377 698 359 704.5 c 0,11,12
 316.076923077 720 316.076923077 720 277.038461538 720 c 128,-1,13
 238 720 238 720 218.5 700 c 128,-1,14
 199 680 199 680 199 646 c 2,15,-1
 199 485 l 1,16,-1
 327 495 l 1,17,-1
 327 428 l 1,18,-1
 199 428 l 1,19,-1
 199 98 l 2,20,21
 199 76 199 76 203 68.5 c 128,-1,22
 207 61 207 61 222 60 c 2,23,-1
 300 53 l 1,24,-1
 300 0 l 1,25,-1
 40 0 l 1,26,-1
 40 54 l 1,27,-1
 97 60 l 2,28,29
 112 61 112 61 116 68.5 c 128,-1,30
 120 76 120 76 120 98 c 2,31,-1
 120 428 l 1,32,-1
 37 428 l 1,33,-1
 37 476 l 1,0,-1
EndSplineSet
EndChar

StartChar: g
Encoding: 103 103 94
Width: 499
Flags: MW
HStem: -250 72<222 294 222 303.5> 125 58<221 260.5 196 286> 435 56<250 254 254 272> 492 20G<477 477>
VStem: 35 83<272 328.5 272 349> 353 83<303 336 257.5 356> 389 79<-126.5 -82>
LayerCount: 2
Fore
SplineSet
477 512 m 1,0,-1
 477 458 l 1,1,2
 440 434 440 434 399 431 c 1,3,4
 436 385 436 385 436 307.5 c 128,-1,5
 436 230 436 230 376.5 177.5 c 128,-1,6
 317 125 317 125 226 125 c 0,7,8
 206 125 206 125 196 126 c 1,9,-1
 174 67 l 1,10,11
 174 51 174 51 205 46 c 1,12,13
 292 35 292 35 372 22 c 0,14,15
 468 7 468 7 468 -81 c 0,16,17
 468 -151 468 -151 402.5 -200.5 c 128,-1,18
 337 -250 337 -250 232 -250 c 0,19,20
 166 -250 166 -250 110 -234 c 128,-1,21
 54 -218 54 -218 24 -191 c 1,22,-1
 45 -68 l 1,23,-1
 100 -68 l 1,24,-1
 100 -143 l 1,25,26
 153 -178 153 -178 253 -178 c 0,27,28
 320 -178 320 -178 354.5 -160.5 c 128,-1,29
 389 -143 389 -143 389 -98 c 0,30,31
 389 -76 389 -76 371.5 -66.5 c 128,-1,32
 354 -57 354 -57 287 -49.5 c 128,-1,33
 220 -42 220 -42 161 -31 c 0,34,35
 90 -17 90 -17 90 58 c 1,36,-1
 141 138 l 1,37,38
 35 178 35 178 35 307 c 0,39,40
 35 380 35 380 88 435.5 c 128,-1,41
 141 491 141 491 250 491 c 2,42,-1
 254 491 l 2,43,44
 336 491 336 491 376.5 493.5 c 128,-1,45
 417 496 417 496 477 512 c 1,0,-1
333 223 m 0,46,47
 353 250 353 250 353 312.5 c 0,48,49
 353 435 353 435 229 435 c 0,50,51
 162 435 162 435 140 403.5 c 128,-1,52
 118 372 118 372 118 311.5 c 128,-1,53
 118 251 118 251 148 217 c 128,-1,54
 178 183 178 183 241 183 c 128,-1,55
 304 183 304 183 333 223 c 0,46,47
EndSplineSet
EndChar

StartChar: h
Encoding: 104 104 95
Width: 627
Flags: MW
HStem: 0 21G<42 282 42 42 438 595 438 438> 416 74<320 365.5> 760 20G<40 199 199 199>
VStem: 42 157<0 98 54 98> 120 79<98 339 408 683 683 697> 438 79<84 98 98 324 324 344>
LayerCount: 2
Fore
SplineSet
595 0 m 1,0,-1
 438 0 l 1,1,-1
 438 324 l 2,2,3
 438 368 438 368 410 392 c 128,-1,4
 382 416 382 416 335 416 c 0,5,6
 288 416 288 416 252 393 c 128,-1,7
 216 370 216 370 199 339 c 1,8,-1
 199 98 l 2,9,10
 199 76 199 76 203 68.5 c 128,-1,11
 207 61 207 61 222 60 c 2,12,-1
 282 53 l 1,13,-1
 282 0 l 1,14,-1
 42 0 l 1,15,-1
 42 54 l 1,16,-1
 97 60 l 2,17,18
 112 61 112 61 116 68.5 c 128,-1,19
 120 76 120 76 120 98 c 2,20,-1
 120 683 l 2,21,22
 120 705 120 705 116 713 c 128,-1,23
 112 721 112 721 97 722 c 2,24,-1
 40 728 l 1,25,-1
 40 780 l 1,26,-1
 199 780 l 1,27,-1
 199 408 l 1,28,29
 221 431 221 431 236 444.5 c 128,-1,30
 251 458 251 458 287.5 474 c 128,-1,31
 324 490 324 490 365 490 c 0,32,33
 444 490 444 490 480.5 448.5 c 128,-1,34
 517 407 517 407 517 344 c 2,35,-1
 517 98 l 2,36,37
 517 76 517 76 521 68.5 c 128,-1,38
 525 61 525 61 540 60 c 2,39,-1
 595 54 l 1,40,-1
 595 0 l 1,0,-1
EndSplineSet
EndChar

StartChar: i
Encoding: 105 105 96
Width: 309
Flags: MW
HStem: 0 21G<42 277 42 42> 460 20G<42 199 199 199> 596 118<128.5 165.5>
VStem: 42 157<0 98 54 98 428 480> 89 110 120 79<98 384 384 398>
LayerCount: 2
Fore
SplineSet
199 480 m 1,0,-1
 199 98 l 2,1,2
 199 76 199 76 203 69 c 128,-1,3
 207 62 207 62 222 60 c 2,4,-1
 277 54 l 1,5,-1
 277 0 l 1,6,-1
 42 0 l 1,7,-1
 42 54 l 1,8,-1
 97 60 l 2,9,10
 112 62 112 62 116 69 c 128,-1,11
 120 76 120 76 120 98 c 2,12,-1
 120 384 l 2,13,14
 120 406 120 406 116 413.5 c 128,-1,15
 112 421 112 421 97 422 c 2,16,-1
 42 428 l 1,17,-1
 42 480 l 1,18,-1
 199 480 l 1,0,-1
196.5 699.5 m 128,-1,20
 207 685 207 685 207 652 c 128,-1,21
 207 619 207 619 193 607.5 c 128,-1,22
 179 596 179 596 146 596 c 128,-1,23
 113 596 113 596 101 609 c 128,-1,24
 89 622 89 622 89 653 c 128,-1,25
 89 684 89 684 103 699 c 128,-1,26
 117 714 117 714 151.5 714 c 128,-1,19
 186 714 186 714 196.5 699.5 c 128,-1,20
EndSplineSet
EndChar

StartChar: j
Encoding: 106 106 97
Width: 289
Flags: MW
HStem: -250 21G<26 26> 480 116<113.5 156.5 113.5 189 113.5 189> 596 118<119.5 156.5>
VStem: 80 109 110 79<25 384 384 398>
LayerCount: 2
Fore
SplineSet
187.5 699.5 m 128,-1,1
 198 685 198 685 198 652 c 128,-1,2
 198 619 198 619 184 607.5 c 128,-1,3
 170 596 170 596 137 596 c 128,-1,4
 104 596 104 596 92 609 c 128,-1,5
 80 622 80 622 80 653 c 128,-1,6
 80 684 80 684 94 699 c 128,-1,7
 108 714 108 714 142.5 714 c 128,-1,0
 177 714 177 714 187.5 699.5 c 128,-1,1
110 25 m 2,8,-1
 110 384 l 2,9,10
 110 406 110 406 106 413.5 c 128,-1,11
 102 421 102 421 87 422 c 2,12,-1
 32 428 l 1,13,-1
 32 480 l 1,14,-1
 189 480 l 1,15,-1
 189 -3 l 2,16,17
 189 -78 189 -78 177.5 -116 c 128,-1,18
 166 -154 166 -154 133.5 -183.5 c 128,-1,19
 101 -213 101 -213 26 -250 c 1,20,-1
 -23 -210 l 1,21,22
 40 -171 40 -171 64.5 -146.5 c 128,-1,23
 89 -122 89 -122 99.5 -85 c 128,-1,24
 110 -48 110 -48 110 25 c 2,8,-1
EndSplineSet
EndChar

StartChar: k
Encoding: 107 107 98
Width: 542
Flags: MW
HStem: -10 21G<455 487.5> 0 55 422 58<440 465 465 481> 760 20G<42 199 199 199>
VStem: 42 157<0 98 54 98 728 780> 120 79<98 273 289 684 684 698>
LayerCount: 2
Fore
SplineSet
120 98 m 2,0,-1
 120 684 l 2,1,2
 120 706 120 706 116 713.5 c 128,-1,3
 112 721 112 721 97 722 c 2,4,-1
 42 728 l 1,5,-1
 42 780 l 1,6,-1
 199 780 l 1,7,-1
 199 289 l 1,8,-1
 340 432 l 2,9,10
 369 461 369 461 389 470.5 c 128,-1,11
 409 480 409 480 436 480 c 2,12,-1
 481 480 l 1,13,-1
 481 422 l 1,14,-1
 465 422 l 2,15,16
 442 422 442 422 415 407 c 128,-1,17
 388 392 388 392 370 375.5 c 128,-1,18
 352 359 352 359 325 330 c 2,19,-1
 285 288 l 1,20,-1
 285 281 l 1,21,-1
 406 126 l 1,22,23
 460 55 460 55 515 55 c 0,24,25
 523.333333333 55 523.333333333 55 536.666666667 57.5 c 128,-1,26
 550 60 550 60 552 60 c 1,27,-1
 542 5 l 1,28,29
 502 -10 502 -10 474 -10 c 0,30,31
 417 -10 417 -10 371 51 c 2,32,-1
 199 273 l 1,33,-1
 199 98 l 2,34,35
 199 76 199 76 203 69 c 128,-1,36
 207 62 207 62 222 60 c 2,37,-1
 269 52 l 1,38,-1
 269 0 l 1,39,-1
 42 0 l 1,40,-1
 42 54 l 1,41,-1
 97 60 l 2,42,43
 112 62 112 62 116 69 c 128,-1,44
 120 76 120 76 120 98 c 2,0,-1
EndSplineSet
EndChar

StartChar: l
Encoding: 108 108 99
Width: 309
Flags: MW
HStem: 0 21G<42 277 42 42> 760 20G<42 199 199 199>
VStem: 42 157<0 98 54 98 728 780> 120 79<98 686 686 699>
LayerCount: 2
Fore
SplineSet
42 780 m 1,0,-1
 199 780 l 1,1,-1
 199 98 l 2,2,3
 199 76 199 76 203 69 c 128,-1,4
 207 62 207 62 222 60 c 2,5,-1
 277 54 l 1,6,-1
 277 0 l 1,7,-1
 42 0 l 1,8,-1
 42 54 l 1,9,-1
 97 60 l 2,10,11
 112 62 112 62 116 69 c 128,-1,12
 120 76 120 76 120 98 c 2,13,-1
 120 686 l 2,14,15
 120 707 120 707 116 714 c 128,-1,16
 112 721 112 721 97 722 c 2,17,-1
 42 728 l 1,18,-1
 42 780 l 1,0,-1
EndSplineSet
EndChar

StartChar: m
Encoding: 109 109 100
Width: 914
Flags: MW
HStem: 0 21G<42 282 42 42 424 424 424 586 725 725 725 882> 416 74<318.5 363 610 657> 460 20G<42 189 189 189>
VStem: 120 79<98 340> 424 79<84 98 98 322 322 346> 725 79<84 98 98 322 322 346>
LayerCount: 2
Fore
SplineSet
502 357 m 1,0,-1
 503 346 l 1,1,-1
 503 98 l 2,2,3
 503 76 503 76 507 68.5 c 128,-1,4
 511 61 511 61 526 60 c 2,5,-1
 586 53 l 1,6,-1
 586 0 l 1,7,-1
 424 0 l 1,8,-1
 424 322 l 2,9,10
 424 416 424 416 330 416 c 0,11,12
 290 416 290 416 253 393.5 c 128,-1,13
 216 371 216 371 199 340 c 1,14,-1
 199 98 l 2,15,16
 199 76 199 76 203 68.5 c 128,-1,17
 207 61 207 61 222 60 c 2,18,-1
 282 53 l 1,19,-1
 282 0 l 1,20,-1
 42 0 l 1,21,-1
 42 54 l 1,22,-1
 97 60 l 2,23,24
 112 61 112 61 116 68.5 c 128,-1,25
 120 76 120 76 120 98 c 2,26,-1
 120 384 l 2,27,28
 120 406 120 406 116 413.5 c 128,-1,29
 112 421 112 421 97 422 c 2,30,-1
 42 428 l 1,31,-1
 42 480 l 1,32,-1
 189 480 l 1,33,-1
 198 407 l 1,34,35
 220 430 220 430 234.5 443.5 c 128,-1,36
 249 457 249 457 285.5 473.5 c 128,-1,37
 322 490 322 490 363 490 c 0,38,39
 457 490 457 490 491 410 c 1,40,41
 557 490 557 490 657 490 c 0,42,43
 732 490 732 490 768 448 c 128,-1,44
 804 406 804 406 804 346 c 2,45,-1
 804 98 l 2,46,47
 804 76 804 76 808 69 c 128,-1,48
 812 62 812 62 827 60 c 2,49,-1
 882 54 l 1,50,-1
 882 0 l 1,51,-1
 725 0 l 1,52,-1
 725 322 l 2,53,54
 725 367 725 367 699 391.5 c 128,-1,55
 673 416 673 416 624 416 c 0,56,57
 557 416 557 416 502 357 c 1,0,-1
EndSplineSet
EndChar

StartChar: n
Encoding: 110 110 101
Width: 627
Flags: MW
HStem: 0 21G<42 282 42 42 438 595 438 438> 416 74<320 365.5> 460 20G<42 189 189 189>
VStem: 120 79<98 340> 438 79<84 98 98 323 323 347>
LayerCount: 2
Fore
SplineSet
595 0 m 1,0,-1
 438 0 l 1,1,-1
 438 323 l 2,2,3
 438 368 438 368 410 392 c 128,-1,4
 382 416 382 416 335 416 c 0,5,6
 288 416 288 416 252 393 c 128,-1,7
 216 370 216 370 199 340 c 1,8,-1
 199 98 l 2,9,10
 199 76 199 76 203 68.5 c 128,-1,11
 207 61 207 61 222 60 c 2,12,-1
 282 53 l 1,13,-1
 282 0 l 1,14,-1
 42 0 l 1,15,-1
 42 54 l 1,16,-1
 97 60 l 2,17,18
 112 61 112 61 116 68.5 c 128,-1,19
 120 76 120 76 120 98 c 2,20,-1
 120 384 l 2,21,22
 120 406 120 406 116 413.5 c 128,-1,23
 112 421 112 421 97 422 c 2,24,-1
 42 428 l 1,25,-1
 42 480 l 1,26,-1
 189 480 l 1,27,-1
 198 408 l 1,28,29
 221 432 221 432 236 445 c 128,-1,30
 251 458 251 458 287.5 474 c 128,-1,31
 324 490 324 490 365 490 c 0,32,33
 445 490 445 490 481 449 c 128,-1,34
 517 408 517 408 517 347 c 2,35,-1
 517 98 l 2,36,37
 517 76 517 76 521 69 c 128,-1,38
 525 62 525 62 540 60 c 2,39,-1
 595 54 l 1,40,-1
 595 0 l 1,0,-1
EndSplineSet
EndChar

StartChar: o
Encoding: 111 111 102
Width: 543
Flags: MW
HStem: -10 66<230 302.5 230 345> 424 66<240.5 313>
VStem: 40 86<180.5 262.5 180.5 297.5> 417 86<217.5 299.5>
LayerCount: 2
Fore
SplineSet
447 72 m 0,0,1
 419 35 419 35 369.5 12.5 c 128,-1,2
 320 -10 320 -10 255 -10 c 0,3,4
 144 -10 144 -10 92 57 c 128,-1,5
 40 124 40 124 40 240 c 0,6,7
 40 334 40 334 96 408 c 0,8,9
 124 445 124 445 173.5 467.5 c 128,-1,10
 223 490 223 490 288 490 c 0,11,12
 399 490 399 490 451 423 c 128,-1,13
 503 356 503 356 503 251 c 128,-1,14
 503 146 503 146 447 72 c 0,0,1
377 376 m 128,-1,16
 337 424 337 424 266.5 424 c 128,-1,17
 196 424 196 424 171.5 399.5 c 128,-1,18
 147 375 147 375 136.5 328.5 c 128,-1,19
 126 282 126 282 126 236 c 0,20,21
 126 152 126 152 166 104 c 128,-1,22
 206 56 206 56 276.5 56 c 128,-1,23
 347 56 347 56 371.5 80.5 c 128,-1,24
 396 105 396 105 406.5 151.5 c 128,-1,25
 417 198 417 198 417 244 c 0,26,15
 417 328 417 328 377 376 c 128,-1,16
EndSplineSet
EndChar

StartChar: p
Encoding: 112 112 103
Width: 569
Flags: MW
HStem: -240 21G<30 285 30 30> -10 66<285.5 326.5 285.5 356.5> 424 66<298 352.5> 460 20G<32 179 179 179>
VStem: 110 79<-142 11 94 355> 444 86<213.5 304.5>
LayerCount: 2
Fore
SplineSet
189 355 m 1,0,-1
 189 94 l 1,1,2
 234 56 234 56 302.5 56 c 0,3,4
 371 56 371 56 403 87 c 1,5,6
 422 108 422 108 433 152 c 128,-1,7
 444 196 444 196 444 247 c 0,8,9
 444 333 444 333 409 378.5 c 128,-1,10
 374 424 374 424 309 424 c 0,11,12
 273 424 273 424 236 399 c 128,-1,13
 199 374 199 374 189 355 c 1,0,-1
110 -142 m 2,14,-1
 110 384 l 2,15,16
 110 406 110 406 106 413.5 c 128,-1,17
 102 421 102 421 87 422 c 2,18,-1
 32 428 l 1,19,-1
 32 480 l 1,20,-1
 179 480 l 1,21,-1
 187 416 l 1,22,23
 250 490 250 490 342.5 490 c 0,24,25
 435 490 435 490 482.5 424.5 c 128,-1,26
 530 359 530 359 530 247.5 c 0,27,28
 530 136 530 136 461 63 c 128,-1,29
 392 -10 392 -10 288 -10 c 0,30,31
 228 -10 228 -10 189 11 c 1,32,-1
 189 -142 l 2,33,34
 189 -164 189 -164 193 -171.5 c 128,-1,35
 197 -179 197 -179 212 -180 c 2,36,-1
 285 -187 l 1,37,-1
 285 -240 l 1,38,-1
 30 -240 l 1,39,-1
 30 -186 l 1,40,-1
 87 -180 l 2,41,42
 102 -179 102 -179 106 -171.5 c 128,-1,43
 110 -164 110 -164 110 -142 c 2,14,-1
EndSplineSet
EndChar

StartChar: q
Encoding: 113 113 104
Width: 560
Flags: MW
HStem: -240 21G<285 538 285 285> -10 66<219 270.5> 424 66<246.5 283>
VStem: 39 86<176 270 176 299.5> 381 79<-142 56 56 56 119 400 400 400 468 468>
LayerCount: 2
Fore
SplineSet
381 119 m 1,0,-1
 381 400 l 1,1,2
 365 410 365 410 329.5 417 c 128,-1,3
 294 424 294 424 263 424 c 0,4,5
 205 424 205 424 178 402.5 c 128,-1,6
 151 381 151 381 138 335 c 128,-1,7
 125 289 125 289 125 239 c 0,8,9
 125 147 125 147 160.5 101.5 c 128,-1,10
 196 56 196 56 261 56 c 0,11,12
 306 56 306 56 339.5 77.5 c 128,-1,13
 373 99 373 99 381 119 c 1,0,-1
381 -142 m 2,14,-1
 381 56 l 1,15,16
 324 -10 324 -10 222 -10 c 0,17,18
 141 -10 141 -10 90 52 c 128,-1,19
 39 114 39 114 39 228 c 128,-1,20
 39 342 39 342 100.5 416 c 128,-1,21
 162 490 162 490 272 490 c 0,22,23
 313.615384615 490 313.615384615 490 344.307692308 479.5 c 128,-1,24
 375 469 375 469 381 468 c 1,25,-1
 460 480 l 1,26,-1
 460 -142 l 2,27,28
 460 -164 460 -164 464 -171.5 c 128,-1,29
 468 -179 468 -179 483 -180 c 2,30,-1
 538 -186 l 1,31,-1
 538 -240 l 1,32,-1
 285 -240 l 1,33,-1
 285 -187 l 1,34,-1
 358 -180 l 2,35,36
 373 -179 373 -179 377 -171.5 c 128,-1,37
 381 -164 381 -164 381 -142 c 2,14,-1
EndSplineSet
EndChar

StartChar: r
Encoding: 114 114 105
Width: 440
Flags: MW
HStem: 0 21G<40 295 40 40> 416 74<312.5 321.5> 460 20G<42 185 185 185>
VStem: 120 79<98 303>
LayerCount: 2
Fore
SplineSet
120 98 m 2,0,-1
 120 384 l 2,1,2
 120 406 120 406 116 413.5 c 128,-1,3
 112 421 112 421 97 422 c 2,4,-1
 42 428 l 1,5,-1
 42 480 l 1,6,-1
 185 480 l 1,7,-1
 195 380 l 1,8,9
 210 419 210 419 253.5 454.5 c 128,-1,10
 297 490 297 490 347 490 c 0,11,12
 397 490 397 490 430 471 c 1,13,-1
 422 345 l 1,14,-1
 364 345 l 1,15,-1
 353 409 l 1,16,17
 339 416 339 416 316 416 c 0,18,19
 273 416 273 416 240.5 379 c 128,-1,20
 208 342 208 342 199 303 c 1,21,-1
 199 98 l 2,22,23
 199 76 199 76 203 68.5 c 128,-1,24
 207 61 207 61 222 60 c 2,25,-1
 295 53 l 1,26,-1
 295 0 l 1,27,-1
 40 0 l 1,28,-1
 40 54 l 1,29,-1
 97 60 l 2,30,31
 112 61 112 61 116 68.5 c 128,-1,32
 120 76 120 76 120 98 c 2,0,-1
EndSplineSet
EndChar

StartChar: s
Encoding: 115 115 106
Width: 440
Flags: MW
HStem: -10 62<193 239.5 193 266> -10 156<50 266> 433 57<193.5 232.5>
VStem: 50 78<347 395.5 347 407> 322 81<96.5 146>
LayerCount: 2
Fore
SplineSet
100.5 458 m 128,-1,1
 151 490 151 490 221 490 c 128,-1,2
 291 490 291 490 381 462 c 1,3,-1
 374 345 l 1,4,-1
 316 345 l 1,5,-1
 302 418 l 1,6,7
 262 433 262 433 219 433 c 0,8,9
 128 433 128 433 128 370 c 0,10,11
 128 339 128 339 156 321 c 128,-1,12
 184 303 184 303 258 278.5 c 128,-1,13
 332 254 332 254 367.5 224 c 128,-1,14
 403 194 403 194 403 140 c 0,15,16
 403 71 403 71 348.5 30.5 c 128,-1,17
 294 -10 294 -10 212 -10 c 128,-1,18
 130 -10 130 -10 43 25 c 1,19,-1
 50 146 l 1,20,-1
 110 146 l 1,21,-1
 119 73 l 1,22,23
 171 52 171 52 211 52 c 0,24,25
 322 52 322 52 322 125 c 0,26,27
 322 154 322 154 291.5 174 c 128,-1,28
 261 194 261 194 188.5 216.5 c 128,-1,29
 116 239 116 239 83 271.5 c 128,-1,30
 50 304 50 304 50 365 c 128,-1,0
 50 426 50 426 100.5 458 c 128,-1,1
EndSplineSet
EndChar

StartChar: t
Encoding: 116 116 107
Width: 354
Flags: MW
HStem: -10 63<226.5 234.5> 423 62 567 20G<174 174>
VStem: 95 79<181 196 196 423 480 569 569 569> 95 212<181 490 423 490 480 490 423 569 423 569>
LayerCount: 2
Fore
SplineSet
20 423 m 1,0,-1
 20 471 l 1,1,-1
 95 480 l 1,2,-1
 95 569 l 1,3,-1
 174 587 l 1,4,-1
 174 480 l 1,5,-1
 307 490 l 1,6,-1
 307 423 l 1,7,-1
 174 423 l 1,8,-1
 174 196 l 2,9,10
 174 116 174 116 191.5 84.5 c 128,-1,11
 209 53 209 53 270 53 c 0,12,13
 296 53 296 53 341 60 c 1,14,-1
 332 9 l 1,15,16
 318 2 318 2 281 -4 c 128,-1,17
 244 -10 244 -10 212.5 -10 c 128,-1,18
 181 -10 181 -10 158 -0.5 c 128,-1,19
 135 9 135 9 122.5 22.5 c 128,-1,20
 110 36 110 36 103.5 64 c 0,21,22
 95 100.615384615 95 100.615384615 95 181 c 2,23,-1
 95 423 l 1,24,-1
 20 423 l 1,0,-1
EndSplineSet
EndChar

StartChar: u
Encoding: 117 117 108
Width: 606
Flags: MW
HStem: -10 74<249.5 297> 0 21G<431 575 431 431> 460 20G<27 184 184 184 339 496 496 496>
VStem: 105 79<133 160 160 384 384 398> 417 79<139 384 384 398>
LayerCount: 2
Fore
SplineSet
417 139 m 1,0,-1
 417 384 l 2,1,2
 417 406 417 406 413 413.5 c 128,-1,3
 409 421 409 421 394 422 c 2,4,-1
 339 428 l 1,5,-1
 339 480 l 1,6,-1
 496 480 l 1,7,-1
 496 98 l 2,8,9
 496 76 496 76 500 68.5 c 128,-1,10
 504 61 504 61 519 60 c 2,11,-1
 575 54 l 1,12,-1
 575 0 l 1,13,-1
 431 0 l 1,14,-1
 423 76 l 1,15,16
 350 -10 350 -10 259 -10 c 0,17,18
 185 -10 185 -10 145 27 c 128,-1,19
 105 64 105 64 105 133 c 2,20,-1
 105 384 l 2,21,22
 105 406 105 406 101 413.5 c 128,-1,23
 97 421 97 421 82 422 c 2,24,-1
 27 428 l 1,25,-1
 27 480 l 1,26,-1
 184 480 l 1,27,-1
 184 160 l 2,28,29
 184 64 184 64 282 64 c 0,30,31
 328 64 328 64 367 91.5 c 128,-1,32
 406 119 406 119 417 139 c 1,0,-1
EndSplineSet
EndChar

StartChar: v
Encoding: 118 118 109
Width: 515
Flags: MW
HStem: 0 21G<212 301 212 212> 460 20G<-17 215 215 215 307 526 526 526>
LayerCount: 2
Fore
SplineSet
301 0 m 1,0,-1
 212 0 l 1,1,-1
 61 384 l 2,2,3
 57 392 57 392 56 396 c 128,-1,4
 55 400 55 400 53.5 403.5 c 128,-1,5
 52 407 52 407 51 408.5 c 128,-1,6
 50 410 50 410 48 412.5 c 128,-1,7
 46 415 46 415 44 416 c 128,-1,8
 42 417 42 417 39.5 418.5 c 0,9,10
 33.6666666667 422 33.6666666667 422 27 422 c 2,11,-1
 -17 428 l 1,12,-1
 -17 480 l 1,13,-1
 215 480 l 1,14,-1
 215 429 l 1,15,-1
 164 423 l 2,16,17
 141 420 141 420 141 406 c 0,18,19
 141 404 141 404 147 384 c 1,20,-1
 242 134 l 1,21,-1
 262 65 l 1,22,-1
 282 134 l 1,23,-1
 377 384 l 2,24,25
 382 399 382 399 382 405 c 0,26,27
 382 420 382 420 358 423 c 2,28,-1
 307 429 l 1,29,-1
 307 480 l 1,30,-1
 526 480 l 1,31,-1
 526 428 l 1,32,-1
 482 422 l 2,33,34
 463.043478261 420.104347826 463.043478261 420.104347826 455.5 402 c 2,35,-1
 301 0 l 1,0,-1
EndSplineSet
EndChar

StartChar: w
Encoding: 119 119 110
Width: 761
Flags: MW
HStem: 0 21G<195 277 195 195 474 556 474 474> 460 20G<1 232 232 232 532 751 751 751>
LayerCount: 2
Fore
SplineSet
164 384 m 2,0,-1
 233 132 l 1,1,-1
 243 76 l 1,2,-1
 254 132 l 1,3,-1
 342 429 l 1,4,-1
 420 429 l 1,5,-1
 511 132 l 1,6,-1
 523 71 l 1,7,-1
 533 132 l 1,8,-1
 602 384 l 2,9,10
 607 399 607 399 607 405 c 0,11,12
 607 420 607 420 583 423 c 2,13,-1
 532 429 l 1,14,-1
 532 480 l 1,15,-1
 751 480 l 1,16,-1
 751 428 l 1,17,-1
 707 422 l 2,18,19
 684 419 684 419 673 384 c 2,20,-1
 556 0 l 1,21,-1
 474 0 l 1,22,-1
 382 289 l 1,23,-1
 374 329 l 1,24,-1
 366 289 l 1,25,-1
 277 0 l 1,26,-1
 195 0 l 1,27,-1
 79 384 l 1,28,29
 75 392 75 392 74 396 c 128,-1,30
 73 400 73 400 71.5 403.5 c 128,-1,31
 70 407 70 407 69 408.5 c 128,-1,32
 68 410 68 410 66 412.5 c 128,-1,33
 64 415 64 415 62 416 c 128,-1,34
 60 417 60 417 57.5 418.5 c 0,35,36
 51.6666666667 422 51.6666666667 422 45 422 c 2,37,-1
 1 428 l 1,38,-1
 1 480 l 1,39,-1
 232 480 l 1,40,-1
 232 429 l 1,41,-1
 181 423 l 2,42,43
 158 420 158 420 158 406 c 0,44,45
 158 404 158 404 164 384 c 2,0,-1
EndSplineSet
EndChar

StartChar: x
Encoding: 120 120 111
Width: 532
Flags: MW
HStem: 0 21G<11 214 11 11 310 528 310 310> 460 20G<18 231 231 231 322 521 521 521>
LayerCount: 2
Fore
SplineSet
223 243 m 1,0,-1
 96 394 l 2,1,2
 82 411 82 411 74.5 416 c 128,-1,3
 67 421 67 421 51 424 c 2,4,-1
 18 430 l 1,5,-1
 18 480 l 1,6,-1
 231 480 l 1,7,-1
 231 431 l 1,8,-1
 188 425 l 2,9,10
 176 424 176 424 176 417 c 0,11,12
 176 411 176 411 184 403 c 2,13,14
 193 394 l 1,15,-1
 278 293 l 1,16,-1
 361 394 l 2,17,18
 363 397 363 397 368 402 c 0,19,20
 378 412 378 412 378 418 c 128,-1,21
 378 424 378 424 365 425 c 2,22,-1
 322 431 l 1,23,-1
 322 480 l 1,24,-1
 521 480 l 1,25,-1
 521 430 l 1,26,-1
 488 424 l 2,27,28
 469 421 469 421 459 415.5 c 128,-1,29
 449 410 449 410 436 394 c 2,30,-1
 317 247 l 1,31,-1
 446 95 l 2,32,33
 474 62 474 62 495 58 c 2,34,-1
 528 52 l 1,35,-1
 528 0 l 1,36,-1
 310 0 l 1,37,-1
 310 51 l 1,38,-1
 355 57 l 2,39,40
 367 59 367 59 367 65 c 0,41,42
 367 74 367 74 348 96 c 2,43,-1
 262 197 l 1,44,-1
 178 95 l 1,45,46
 158 69 158 69 158 64 c 128,-1,47
 158 59 158 59 169 57 c 2,48,-1
 214 51 l 1,49,-1
 214 0 l 1,50,-1
 11 0 l 1,51,-1
 11 52 l 1,52,-1
 44 58 l 2,53,54
 75 64 75 64 101 95 c 2,55,-1
 223 243 l 1,0,-1
EndSplineSet
EndChar

StartChar: y
Encoding: 121 121 112
Width: 523
Flags: MW
HStem: -250 63<89 103 62.5 138.5> 460 20G<-14 218 218 218 307 526 526 526>
LayerCount: 2
Fore
SplineSet
482 422 m 2,0,1
 463.043478261 420.104347826 463.043478261 420.104347826 453 396 c 0,2,3
 448 384 448 384 254 -130 c 1,4,5
 211 -250 211 -250 105 -250 c 0,6,7
 49 -250 49 -250 15 -238 c 1,8,-1
 5 -179 l 1,9,10
 56 -187 56 -187 77 -187 c 0,11,12
 116 -187 116 -187 147.5 -160.5 c 128,-1,13
 179 -134 179 -134 197 -85 c 2,14,-1
 220 -22 l 1,15,-1
 64 384 l 2,16,17
 60 392 60 392 59 396 c 128,-1,18
 58 400 58 400 56.5 403.5 c 128,-1,19
 55 407 55 407 54 408.5 c 128,-1,20
 53 410 53 410 51 412.5 c 128,-1,21
 49 415 49 415 47 416 c 128,-1,22
 45 417 45 417 42.5 418.5 c 0,23,24
 36.6666666667 422 36.6666666667 422 30 422 c 2,25,-1
 -14 428 l 1,26,-1
 -14 480 l 1,27,-1
 218 480 l 1,28,-1
 218 429 l 1,29,-1
 167 423 l 2,30,31
 144 420 144 420 144 406 c 0,32,33
 144 399 144 399 150 384 c 2,34,-1
 265 76 l 1,35,-1
 377 384 l 2,36,37
 382 399 382 399 382 405 c 0,38,39
 382 420 382 420 358 423 c 2,40,-1
 307 429 l 1,41,-1
 307 480 l 1,42,-1
 526 480 l 1,43,-1
 526 428 l 1,44,-1
 482 422 l 2,0,1
EndSplineSet
EndChar

StartChar: z
Encoding: 122 122 113
Width: 503
Flags: MW
HStem: 0 63<143 356 356 370 143 463> 419 61<142 156 156 351>
LayerCount: 2
Fore
SplineSet
351 419 m 1,0,-1
 156 419 l 2,1,2
 134 419 134 419 126 415 c 128,-1,3
 118 411 118 411 117 396 c 2,4,-1
 110 331 l 1,5,-1
 56 331 l 1,6,-1
 49 480 l 1,7,-1
 451 480 l 1,8,-1
 451 422 l 1,9,-1
 143 63 l 1,10,-1
 356 63 l 2,11,12
 378 63 378 63 386 67 c 128,-1,13
 394 71 394 71 395 86 c 2,14,-1
 402 159 l 1,15,-1
 457 159 l 1,16,-1
 463 0 l 1,17,-1
 43 0 l 1,18,-1
 43 60 l 1,19,-1
 351 419 l 1,0,-1
EndSplineSet
EndChar

StartChar: braceleft
Encoding: 123 123 114
Width: 337
Flags: MW
HStem: -242 48<179 288 251 288 251 288> 248 42<42 69.5> 732 48<226.5 251 251 288>
VStem: 115 78<-130 -105 -105 92 92 108 446 643> 115 173<-242 92>
CounterMasks: 1 e0
LayerCount: 2
Fore
SplineSet
42 248 m 1,0,-1
 42 290 l 1,1,2
 115 290 115 290 115 446 c 2,3,-1
 115 668 l 2,4,5
 115 715 115 715 140 747.5 c 128,-1,6
 165 780 165 780 210 780 c 2,7,-1
 288 780 l 1,8,-1
 288 732 l 1,9,-1
 251 732 l 2,10,11
 217 732 217 732 205 710.5 c 128,-1,12
 193 689 193 689 193 643 c 2,13,-1
 193 430 l 2,14,15
 193 371 193 371 168 321.5 c 128,-1,16
 143 272 143 272 109 269 c 1,17,18
 143 266 143 266 168 216.5 c 128,-1,19
 193 167 193 167 193 108 c 2,20,-1
 193 -105 l 2,21,22
 193 -151 193 -151 205 -172.5 c 128,-1,23
 217 -194 217 -194 251 -194 c 2,24,-1
 288 -194 l 1,25,-1
 288 -242 l 1,26,-1
 210 -242 l 2,27,28
 165 -242 165 -242 140 -209.5 c 128,-1,29
 115 -177 115 -177 115 -130 c 2,30,-1
 115 92 l 2,31,32
 115 248 115 248 42 248 c 1,0,-1
EndSplineSet
EndChar

StartChar: bar
Encoding: 124 124 115
Width: 299
Flags: MW
HStem: -240 21G<115 184 115 115> 770 20G<115 184 184 184>
VStem: 115 69<-240 790 -240 790>
LayerCount: 2
Fore
SplineSet
115 790 m 1,0,-1
 184 790 l 1,1,-1
 184 -240 l 1,2,-1
 115 -240 l 1,3,-1
 115 790 l 1,0,-1
EndSplineSet
EndChar

StartChar: braceright
Encoding: 125 125 116
Width: 337
Flags: MW
HStem: -242 48<42 79 79 103.5 42 120 42 79> 248 42<260.5 288> 732 48<42 79 42 120>
VStem: 42 173<-242 -130 -194 -130> 137 78<-105 92 430 446 446 643 643 668>
CounterMasks: 1 e0
LayerCount: 2
Fore
SplineSet
288 290 m 1,0,-1
 288 248 l 1,1,2
 215 248 215 248 215 92 c 2,3,-1
 215 -130 l 2,4,5
 215 -177 215 -177 190 -209.5 c 128,-1,6
 165 -242 165 -242 120 -242 c 2,7,-1
 42 -242 l 1,8,-1
 42 -194 l 1,9,-1
 79 -194 l 2,10,11
 113 -194 113 -194 125 -172.5 c 128,-1,12
 137 -151 137 -151 137 -105 c 2,13,-1
 137 108 l 2,14,15
 137 168 137 168 161.5 217 c 128,-1,16
 186 266 186 266 220 269 c 1,17,18
 186 272 186 272 161.5 321 c 128,-1,19
 137 370 137 370 137 430 c 2,20,-1
 137 643 l 2,21,22
 137 689 137 689 125 710.5 c 128,-1,23
 113 732 113 732 79 732 c 2,24,-1
 42 732 l 1,25,-1
 42 780 l 1,26,-1
 120 780 l 2,27,28
 165 780 165 780 190 747.5 c 128,-1,29
 215 715 215 715 215 668 c 2,30,-1
 215 446 l 2,31,32
 215 290 215 290 288 290 c 1,0,-1
EndSplineSet
EndChar

StartChar: asciitilde
Encoding: 126 126 117
Width: 570
Flags: MW
HStem: 190 72<355 393.5> 246 72<184 223>
LayerCount: 2
Fore
SplineSet
281 218 m 128,-1,1
 222 246 222 246 202 246 c 128,-1,2
 182 246 182 246 165.5 240.5 c 128,-1,3
 149 235 149 235 138.5 230 c 0,4,5
 105.25 214.166666667 105.25 214.166666667 84 200 c 1,6,-1
 72 247 l 1,7,8
 159 318 159 318 208 318 c 0,9,10
 242 318 242 318 299.5 290 c 128,-1,11
 357 262 357 262 386 262 c 128,-1,12
 415 262 415 262 486 301 c 1,13,-1
 498 254 l 1,14,15
 432 190 432 190 371 190 c 0,16,0
 340 190 340 190 281 218 c 128,-1,1
EndSplineSet
EndChar

StartChar: Adieresis
Encoding: 196 196 118
Width: 663
Flags: MW
HStem: 0 21G<-15 225 -15 -15 422 679 422 422> 237 70<214 430 214 455 190 430> 700 20G<285 378 378 378> 780 112<208 242.5 413 447.5>
VStem: 170 112<813.5 851.5> 375 112<813.5 851.5>
LayerCount: 2
Fore
SplineSet
70 112 m 2,0,-1
 285 720 l 1,1,-1
 378 720 l 1,2,-1
 592 112 l 2,3,4
 601 87 601 87 610.5 78.5 c 128,-1,5
 620 70 620 70 640 66 c 2,6,-1
 679 59 l 1,7,-1
 679 0 l 1,8,-1
 422 0 l 1,9,-1
 422 57 l 1,10,-1
 477 66 l 2,11,12
 503 70 503 70 503 90 c 0,13,14
 503 99 503 99 499 110 c 2,15,-1
 455 237 l 1,16,-1
 190 237 l 1,17,-1
 148 113 l 2,18,19
 144 102 144 102 144 92 c 0,20,21
 144 70 144 70 171 66 c 2,22,-1
 225 57 l 1,23,-1
 225 0 l 1,24,-1
 -15 0 l 1,25,-1
 -15 59 l 1,26,-1
 23 66 l 2,27,28
 43 70 43 70 52 78.5 c 128,-1,29
 61 87 61 87 70 112 c 2,0,-1
333 589 m 1,30,-1
 322 634 l 1,31,-1
 311 589 l 1,32,-1
 214 307 l 1,33,-1
 430 307 l 1,34,-1
 333 589 l 1,30,-1
272 878.5 m 128,-1,36
 282 865 282 865 282 833.5 c 128,-1,37
 282 802 282 802 268.5 791 c 128,-1,38
 255 780 255 780 224 780 c 128,-1,39
 193 780 193 780 181.5 792 c 128,-1,40
 170 804 170 804 170 834 c 128,-1,41
 170 864 170 864 183.5 878 c 128,-1,42
 197 892 197 892 229.5 892 c 128,-1,35
 262 892 262 892 272 878.5 c 128,-1,36
477 878.5 m 128,-1,44
 487 865 487 865 487 833.5 c 128,-1,45
 487 802 487 802 473.5 791 c 128,-1,46
 460 780 460 780 429 780 c 128,-1,47
 398 780 398 780 386.5 792 c 128,-1,48
 375 804 375 804 375 834 c 128,-1,49
 375 864 375 864 388.5 878 c 128,-1,50
 402 892 402 892 434.5 892 c 128,-1,43
 467 892 467 892 477 878.5 c 128,-1,44
EndSplineSet
EndChar

StartChar: Aring
Encoding: 197 197 119
Width: 663
Flags: MW
HStem: 0 21G<-15 225 -15 -15 422 679 422 422> 237 70<214 430 214 455 190 430> 700 20G<285 378 378 378> 755 47<316.5 344 316.5 356.5> 894 48<313 340.5>
VStem: 233 50<831.5 859 831.5 869.5> 374 50<837 864.5>
LayerCount: 2
Fore
SplineSet
70 112 m 2,0,-1
 285 720 l 1,1,-1
 378 720 l 1,2,-1
 592 112 l 2,3,4
 601 87 601 87 610.5 78.5 c 128,-1,5
 620 70 620 70 640 66 c 2,6,-1
 679 59 l 1,7,-1
 679 0 l 1,8,-1
 422 0 l 1,9,-1
 422 57 l 1,10,-1
 477 66 l 2,11,12
 503 70 503 70 503 90 c 0,13,14
 503 99 503 99 499 110 c 2,15,-1
 455 237 l 1,16,-1
 190 237 l 1,17,-1
 148 113 l 2,18,19
 144 102 144 102 144 92 c 0,20,21
 144 70 144 70 171 66 c 2,22,-1
 225 57 l 1,23,-1
 225 0 l 1,24,-1
 -15 0 l 1,25,-1
 -15 59 l 1,26,-1
 23 66 l 2,27,28
 43 70 43 70 52 78.5 c 128,-1,29
 61 87 61 87 70 112 c 2,0,-1
333 589 m 1,30,-1
 322 634 l 1,31,-1
 311 589 l 1,32,-1
 214 307 l 1,33,-1
 430 307 l 1,34,-1
 333 589 l 1,30,-1
424 850 m 128,-1,36
 424 813 424 813 397 784 c 128,-1,37
 370 755 370 755 326 755 c 0,38,39
 282 755 282 755 257.5 782.5 c 128,-1,40
 233 810 233 810 233 847 c 128,-1,41
 233 884 233 884 260 913 c 128,-1,42
 287 942 287 942 331 942 c 0,43,44
 375 942 375 942 399.5 914.5 c 128,-1,35
 424 887 424 887 424 850 c 128,-1,36
374 852 m 0,45,46
 374 870 374 870 360.5 882 c 128,-1,47
 347 894 347 894 328 894 c 0,48,49
 283 894 283 894 283 844 c 0,50,51
 283 826 283 826 296.5 814 c 128,-1,52
 310 802 310 802 329 802 c 0,53,54
 374 802 374 802 374 852 c 0,45,46
EndSplineSet
EndChar

StartChar: Ccedilla
Encoding: 199 199 120
Width: 636
Flags: MW
HStem: -230 46<305 328.5 305 347.5> -10 78<348 348> 510 220<253.5 576 253.5 504> 655 75<299 371.5>
VStem: 42 97<270.5 396 270.5 457> 366 63<-155 -125>
LayerCount: 2
Fore
SplineSet
568 115 m 1,0,-1
 588 50 l 1,1,2
 530.833333333 21.4166666667 530.833333333 21.4166666667 441 1 c 0,3,4
 392.6 -10 392.6 -10 348 -10 c 1,5,-1
 348 -62 l 1,6,-1
 375 -71 l 2,7,8
 407 -81 407 -81 418 -95 c 128,-1,9
 429 -109 429 -109 429 -134 c 0,10,11
 429 -180 429 -180 396.5 -205 c 128,-1,12
 364 -230 364 -230 321 -230 c 128,-1,13
 278 -230 278 -230 233 -209 c 1,14,-1
 245 -170 l 1,15,16
 280 -184 280 -184 317 -184 c 0,17,18
 366 -184 366 -184 366 -136 c 0,19,20
 366 -121 366 -121 355 -113 c 128,-1,21
 344 -105 344 -105 321 -100 c 2,22,-1
 284 -92 l 1,23,-1
 299 -8 l 1,24,25
 42 16 42 16 42 352 c 0,26,27
 42 520 42 520 123.5 625 c 128,-1,28
 205 730 205 730 368 730 c 0,29,30
 427 730 427 730 476.5 719.5 c 128,-1,31
 526 709 526 709 592 673 c 1,32,-1
 576 510 l 1,33,-1
 504 510 l 1,34,-1
 483 620 l 1,35,36
 444 639 444 639 414.5 647 c 128,-1,37
 385 655 385 655 334.5 655 c 128,-1,38
 284 655 284 655 252.5 641 c 128,-1,39
 221 627 221 627 196 602 c 128,-1,40
 171 577 171 577 155 499.5 c 128,-1,41
 139 422 139 422 139 359 c 0,42,43
 139 224 139 224 196 146 c 128,-1,44
 253 68 253 68 360 68 c 0,45,46
 443 68 443 68 568 115 c 1,0,-1
EndSplineSet
EndChar

StartChar: Eacute
Encoding: 201 201 121
Width: 620
Flags: MW
HStem: 0 73<226 459 459 471 226 576> 339 73<226 460 226 460> 548 172<502 566 502 502> 647 73<226 458 226 226> 720 34<305 319 305 572> 915 20G<446 446>
VStem: 140 86<107 339 412 618 618 630.5> 500 73
LayerCount: 2
Fore
SplineSet
446 935 m 1,0,-1
 495 868 l 1,1,-1
 342 764 l 2,2,3
 326 754 326 754 315 754 c 0,4,5
 292 754 292 754 267 783 c 1,6,-1
 446 935 l 1,0,-1
576 0 m 1,7,-1
 58 0 l 1,8,-1
 58 60 l 1,9,-1
 111 69 l 2,10,11
 129 72 129 72 134.5 79.5 c 128,-1,12
 140 87 140 87 140 107 c 2,13,-1
 140 618 l 2,14,15
 140 638 140 638 134.5 647 c 128,-1,16
 129 656 129 656 111 658 c 2,17,-1
 58 664 l 1,18,-1
 58 720 l 1,19,-1
 572 720 l 1,20,-1
 566 548 l 1,21,-1
 502 548 l 1,22,-1
 496 618 l 2,23,24
 495 636 495 636 486 641.5 c 128,-1,25
 477 647 477 647 458 647 c 2,26,-1
 226 647 l 1,27,-1
 226 412 l 1,28,-1
 460 412 l 1,29,-1
 460 339 l 1,30,-1
 226 339 l 1,31,-1
 226 73 l 1,32,-1
 459 73 l 2,33,34
 478 73 478 73 487 78.5 c 128,-1,35
 496 84 496 84 497 102 c 2,36,-1
 503 177 l 1,37,-1
 570 177 l 1,38,-1
 576 0 l 1,7,-1
EndSplineSet
EndChar

StartChar: Ntilde
Encoding: 209 209 122
Width: 787
Flags: MW
HStem: 0 21G<58 308 58 58 584 584 584 672> 700 20G<59 227 227 227 506 753 753 753> 773 71<457.5 490 457.5 490> 810 34
VStem: 140 86<106 562> 586 86<158 615 0 627.5>
LayerCount: 2
Fore
SplineSet
226 562 m 1,0,-1
 226 106 l 2,1,2
 226 86 226 86 231.5 78.5 c 128,-1,3
 237 71 237 71 255 68 c 2,4,-1
 308 59 l 1,5,-1
 308 0 l 1,6,-1
 58 0 l 1,7,-1
 58 59 l 1,8,-1
 111 68 l 2,9,10
 129 71 129 71 134.5 78.5 c 128,-1,11
 140 86 140 86 140 106 c 2,12,-1
 140 615 l 2,13,14
 140 635 140 635 134.5 644 c 128,-1,15
 129 653 129 653 111 655 c 2,16,-1
 59 661 l 1,17,-1
 59 720 l 1,18,-1
 227 720 l 1,19,-1
 586 158 l 1,20,-1
 586 615 l 2,21,22
 586 635 586 635 581 644 c 128,-1,23
 576 653 576 653 558 655 c 2,24,-1
 506 661 l 1,25,-1
 506 720 l 1,26,-1
 753 720 l 1,27,-1
 753 661 l 1,28,-1
 701 655 l 2,29,30
 683 653 683 653 677.5 644 c 128,-1,31
 672 635 672 635 672 615 c 2,32,-1
 672 0 l 1,33,-1
 584 0 l 1,34,-1
 226 562 l 1,0,-1
400.5 791.5 m 128,-1,36
 356 810 356 810 330 810 c 128,-1,37
 304 810 304 810 266 779 c 1,38,-1
 251 821 l 1,39,40
 292 879 292 879 341 879 c 0,41,42
 371 879 371 879 415 861.5 c 128,-1,43
 459 844 459 844 486.5 844 c 128,-1,44
 514 844 514 844 545 871 c 1,45,-1
 561 831 l 1,46,47
 521 773 521 773 472 773 c 0,48,35
 445 773 445 773 400.5 791.5 c 128,-1,36
EndSplineSet
EndChar

StartChar: Odieresis
Encoding: 214 214 123
Width: 717
Flags: MW
HStem: -10 74<296 403.5 296 457.5> 656 74<313.5 421> 780 112<238 272.5 443 477.5>
VStem: 42 97<264 399 264 455> 200 112<813.5 851.5> 405 112<813.5 851.5> 578 97<321 456>
LayerCount: 2
Fore
SplineSet
647 552 m 128,-1,1
 675 472 675 472 675 379 c 128,-1,2
 675 286 675 286 656 221.5 c 128,-1,3
 637 157 637 157 597.5 104 c 128,-1,4
 558 51 558 51 491 20.5 c 128,-1,5
 424 -10 424 -10 328 -10 c 128,-1,6
 232 -10 232 -10 165 39 c 128,-1,7
 98 88 98 88 70 168 c 128,-1,8
 42 248 42 248 42 341 c 128,-1,9
 42 434 42 434 61 498.5 c 128,-1,10
 80 563 80 563 119.5 616 c 128,-1,11
 159 669 159 669 226 699.5 c 128,-1,12
 293 730 293 730 389 730 c 128,-1,13
 485 730 485 730 552 681 c 128,-1,0
 619 632 619 632 647 552 c 128,-1,1
517.5 579 m 128,-1,15
 457 656 457 656 350.5 656 c 128,-1,16
 244 656 244 656 196 601 c 0,17,18
 171 572 171 572 155 498.5 c 128,-1,19
 139 425 139 425 139 354 c 0,20,21
 139 218 139 218 199.5 141 c 128,-1,22
 260 64 260 64 366.5 64 c 128,-1,23
 473 64 473 64 521 119 c 0,24,25
 546 148 546 148 562 221.5 c 128,-1,26
 578 295 578 295 578 366 c 0,27,14
 578 502 578 502 517.5 579 c 128,-1,15
302 878.5 m 128,-1,29
 312 865 312 865 312 833.5 c 128,-1,30
 312 802 312 802 298.5 791 c 128,-1,31
 285 780 285 780 254 780 c 128,-1,32
 223 780 223 780 211.5 792 c 128,-1,33
 200 804 200 804 200 834 c 128,-1,34
 200 864 200 864 213.5 878 c 128,-1,35
 227 892 227 892 259.5 892 c 128,-1,28
 292 892 292 892 302 878.5 c 128,-1,29
507 878.5 m 128,-1,37
 517 865 517 865 517 833.5 c 128,-1,38
 517 802 517 802 503.5 791 c 128,-1,39
 490 780 490 780 459 780 c 128,-1,40
 428 780 428 780 416.5 792 c 128,-1,41
 405 804 405 804 405 834 c 128,-1,42
 405 864 405 864 418.5 878 c 128,-1,43
 432 892 432 892 464.5 892 c 128,-1,36
 497 892 497 892 507 878.5 c 128,-1,37
EndSplineSet
EndChar

StartChar: Udieresis
Encoding: 220 220 124
Width: 722
Flags: MW
HStem: -10 80<335 402 335 413.5> 700 20G<28 278 278 278 449 695 695 695> 780 112<241 275.5 446 480.5>
VStem: 110 86<232 248 248 614> 203 112<813.5 851.5> 408 112<813.5 851.5> 531 82<256 614>
LayerCount: 2
Fore
SplineSet
613 614 m 2,0,-1
 613 232 l 2,1,2
 613 148 613 148 572.5 91.5 c 0,3,4
 499.743362832 -10 499.743362832 -10 351 -10 c 0,5,6
 232 -10 232 -10 171 52.5 c 128,-1,7
 110 115 110 115 110 232 c 2,8,-1
 110 614 l 2,9,10
 110 634 110 634 104.5 641.5 c 128,-1,11
 99 649 99 649 81 652 c 2,12,-1
 28 661 l 1,13,-1
 28 720 l 1,14,-1
 278 720 l 1,15,-1
 278 661 l 1,16,-1
 225 652 l 2,17,18
 207 649 207 649 201.5 641.5 c 128,-1,19
 196 634 196 634 196 614 c 2,20,-1
 196 248 l 2,21,22
 196 70 196 70 382 70 c 0,23,24
 454 70 454 70 492.5 106 c 128,-1,25
 531 142 531 142 531 256 c 2,26,-1
 531 614 l 2,27,28
 531 634 531 634 525.5 641.5 c 128,-1,29
 520 649 520 649 502 652 c 2,30,-1
 449 661 l 1,31,-1
 449 720 l 1,32,-1
 695 720 l 1,33,-1
 695 661 l 1,34,-1
 642 652 l 2,35,36
 624 649 624 649 618.5 641.5 c 128,-1,37
 613 634 613 634 613 614 c 2,0,-1
305 878.5 m 128,-1,39
 315 865 315 865 315 833.5 c 128,-1,40
 315 802 315 802 301.5 791 c 128,-1,41
 288 780 288 780 257 780 c 128,-1,42
 226 780 226 780 214.5 792 c 128,-1,43
 203 804 203 804 203 834 c 128,-1,44
 203 864 203 864 216.5 878 c 128,-1,45
 230 892 230 892 262.5 892 c 128,-1,38
 295 892 295 892 305 878.5 c 128,-1,39
510 878.5 m 128,-1,47
 520 865 520 865 520 833.5 c 128,-1,48
 520 802 520 802 506.5 791 c 128,-1,49
 493 780 493 780 462 780 c 128,-1,50
 431 780 431 780 419.5 792 c 128,-1,51
 408 804 408 804 408 834 c 128,-1,52
 408 864 408 864 421.5 878 c 128,-1,53
 435 892 435 892 467.5 892 c 128,-1,46
 500 892 500 892 510 878.5 c 128,-1,47
EndSplineSet
EndChar

StartChar: aacute
Encoding: 225 225 125
Width: 525
Flags: MW
HStem: -10 71<170 193> 0 21G<345 491 345 345> 430 60<209 255.5> 490 64<226 240 226 275.5> 732 20G<345 345>
VStem: 35 83<105 148 105 157.5> 333 79<140 229 229 229 283 350 350 352>
LayerCount: 2
Fore
SplineSet
412 352 m 2,0,-1
 412 98 l 2,1,2
 412 76 412 76 416 68.5 c 128,-1,3
 420 61 420 61 435 60 c 2,4,-1
 491 54 l 1,5,-1
 491 0 l 1,6,-1
 345 0 l 1,7,-1
 337 78 l 1,8,9
 254 -10 254 -10 161 -10 c 0,10,11
 104 -10 104 -10 69.5 25.5 c 128,-1,12
 35 61 35 61 35 119.5 c 0,13,14
 35 178 35 178 70 215 c 128,-1,15
 105 252 105 252 171 261 c 2,16,-1
 333 283 l 1,17,-1
 333 350 l 2,18,19
 333 430 333 430 225 430 c 0,20,21
 179 430 179 430 137 411 c 1,22,-1
 123 338 l 1,23,-1
 65 338 l 1,24,-1
 58 453 l 1,25,26
 161 490 161 490 234 490 c 0,27,28
 307 490 307 490 359.5 456 c 128,-1,29
 412 422 412 422 412 352 c 2,0,-1
333 229 m 1,30,-1
 194 206 l 2,31,32
 158 201 158 201 138 180 c 128,-1,33
 118 159 118 159 118 127 c 0,34,35
 118 95 118 95 138.5 78 c 128,-1,36
 159 61 159 61 191 61 c 0,37,38
 245 61 245 61 333 140 c 1,39,-1
 333 229 l 1,30,-1
345 752 m 1,40,-1
 403 692 l 1,41,-1
 266 568 l 2,42,43
 251 554 251 554 233 554 c 0,44,45
 215 554 215 554 189 576 c 1,46,-1
 345 752 l 1,40,-1
EndSplineSet
EndChar

StartChar: agrave
Encoding: 224 224 126
Width: 525
Flags: MW
HStem: -10 71<170 193> 0 21G<345 491 345 345> 430 60<209 255.5> 490 64<236 250 236 275.5> 732 20G<131 131>
VStem: 35 83<105 148 105 157.5> 333 79<140 229 229 229 283 350 350 352>
LayerCount: 2
Fore
SplineSet
412 352 m 2,0,-1
 412 98 l 2,1,2
 412 76 412 76 416 68.5 c 128,-1,3
 420 61 420 61 435 60 c 2,4,-1
 491 54 l 1,5,-1
 491 0 l 1,6,-1
 345 0 l 1,7,-1
 337 78 l 1,8,9
 254 -10 254 -10 161 -10 c 0,10,11
 104 -10 104 -10 69.5 25.5 c 128,-1,12
 35 61 35 61 35 119.5 c 0,13,14
 35 178 35 178 70 215 c 128,-1,15
 105 252 105 252 171 261 c 2,16,-1
 333 283 l 1,17,-1
 333 350 l 2,18,19
 333 430 333 430 225 430 c 0,20,21
 179 430 179 430 137 411 c 1,22,-1
 123 338 l 1,23,-1
 65 338 l 1,24,-1
 58 453 l 1,25,26
 161 490 161 490 234 490 c 0,27,28
 307 490 307 490 359.5 456 c 128,-1,29
 412 422 412 422 412 352 c 2,0,-1
333 229 m 1,30,-1
 194 206 l 2,31,32
 158 201 158 201 138 180 c 128,-1,33
 118 159 118 159 118 127 c 0,34,35
 118 95 118 95 138.5 78 c 128,-1,36
 159 61 159 61 191 61 c 0,37,38
 245 61 245 61 333 140 c 1,39,-1
 333 229 l 1,30,-1
73 692 m 1,40,-1
 131 752 l 1,41,-1
 287 576 l 1,42,43
 261 554 261 554 243 554 c 0,44,45
 225 554 225 554 210 568 c 2,46,-1
 73 692 l 1,40,-1
EndSplineSet
EndChar

StartChar: acircumflex
Encoding: 226 226 127
Width: 525
Flags: MW
HStem: -10 71<170 193> 0 21G<345 491 345 345> 430 60<209 255.5> 708 20G<200 275 275 275>
VStem: 35 83<105 148 105 157.5> 333 79<140 229 229 229 283 350 350 352>
LayerCount: 2
Fore
SplineSet
412 352 m 2,0,-1
 412 98 l 2,1,2
 412 76 412 76 416 68.5 c 128,-1,3
 420 61 420 61 435 60 c 2,4,-1
 491 54 l 1,5,-1
 491 0 l 1,6,-1
 345 0 l 1,7,-1
 337 78 l 1,8,9
 254 -10 254 -10 161 -10 c 0,10,11
 104 -10 104 -10 69.5 25.5 c 128,-1,12
 35 61 35 61 35 119.5 c 0,13,14
 35 178 35 178 70 215 c 128,-1,15
 105 252 105 252 171 261 c 2,16,-1
 333 283 l 1,17,-1
 333 350 l 2,18,19
 333 430 333 430 225 430 c 0,20,21
 179 430 179 430 137 411 c 1,22,-1
 123 338 l 1,23,-1
 65 338 l 1,24,-1
 58 453 l 1,25,26
 161 490 161 490 234 490 c 0,27,28
 307 490 307 490 359.5 456 c 128,-1,29
 412 422 412 422 412 352 c 2,0,-1
333 229 m 1,30,-1
 194 206 l 2,31,32
 158 201 158 201 138 180 c 128,-1,33
 118 159 118 159 118 127 c 0,34,35
 118 95 118 95 138.5 78 c 128,-1,36
 159 61 159 61 191 61 c 0,37,38
 245 61 245 61 333 140 c 1,39,-1
 333 229 l 1,30,-1
200 728 m 1,40,-1
 275 728 l 1,41,-1
 383 578 l 1,42,-1
 345 546 l 1,43,-1
 237 667 l 1,44,-1
 129 546 l 1,45,-1
 90 578 l 1,46,-1
 200 728 l 1,40,-1
EndSplineSet
EndChar

StartChar: adieresis
Encoding: 228 228 128
Width: 525
Flags: MW
HStem: -10 71<170 193> 0 21G<345 491 345 345> 430 60<209 255.5> 580 112<114 148.5 319 353.5>
VStem: 35 83<105 148 105 157.5> 76 112<613.5 651.5> 281 112<613.5 651.5> 333 79<140 229 229 229 283 350 350 352>
LayerCount: 2
Fore
SplineSet
412 352 m 2,0,-1
 412 98 l 2,1,2
 412 76 412 76 416 68.5 c 128,-1,3
 420 61 420 61 435 60 c 2,4,-1
 491 54 l 1,5,-1
 491 0 l 1,6,-1
 345 0 l 1,7,-1
 337 78 l 1,8,9
 254 -10 254 -10 161 -10 c 0,10,11
 104 -10 104 -10 69.5 25.5 c 128,-1,12
 35 61 35 61 35 119.5 c 128,-1,13
 35 178 35 178 70 215 c 128,-1,14
 105 252 105 252 171 261 c 2,15,-1
 333 283 l 1,16,-1
 333 350 l 2,17,18
 333 430 333 430 225 430 c 0,19,20
 179 430 179 430 137 411 c 1,21,-1
 123 338 l 1,22,-1
 65 338 l 1,23,-1
 58 453 l 1,24,25
 161 490 161 490 234 490 c 128,-1,26
 307 490 307 490 359.5 456 c 128,-1,27
 412 422 412 422 412 352 c 2,0,-1
333 229 m 1,28,-1
 194 206 l 2,29,30
 158 201 158 201 138 180 c 128,-1,31
 118 159 118 159 118 127 c 128,-1,32
 118 95 118 95 138.5 78 c 128,-1,33
 159 61 159 61 191 61 c 0,34,35
 245 61 245 61 333 140 c 1,36,-1
 333 229 l 1,28,-1
178 678.5 m 128,-1,38
 188 665 188 665 188 633.5 c 128,-1,39
 188 602 188 602 174.5 591 c 128,-1,40
 161 580 161 580 130 580 c 128,-1,41
 99 580 99 580 87.5 592 c 128,-1,42
 76 604 76 604 76 634 c 128,-1,43
 76 664 76 664 89.5 678 c 128,-1,44
 103 692 103 692 135.5 692 c 128,-1,37
 168 692 168 692 178 678.5 c 128,-1,38
383 678.5 m 128,-1,46
 393 665 393 665 393 633.5 c 128,-1,47
 393 602 393 602 379.5 591 c 128,-1,48
 366 580 366 580 335 580 c 128,-1,49
 304 580 304 580 292.5 592 c 128,-1,50
 281 604 281 604 281 634 c 128,-1,51
 281 664 281 664 294.5 678 c 128,-1,52
 308 692 308 692 340.5 692 c 128,-1,45
 373 692 373 692 383 678.5 c 128,-1,46
EndSplineSet
EndChar

StartChar: atilde
Encoding: 227 227 129
Width: 525
Flags: MW
HStem: -10 71<170 193> 0 21G<345 491 345 345> 430 60<209 255.5> 574 71<271.5 304 271.5 304> 611 34
VStem: 35 83<105 148 105 157.5> 333 79<140 229 229 229 283 350 350 352>
LayerCount: 2
Fore
SplineSet
412 352 m 2,0,-1
 412 98 l 2,1,2
 412 76 412 76 416 68.5 c 128,-1,3
 420 61 420 61 435 60 c 2,4,-1
 491 54 l 1,5,-1
 491 0 l 1,6,-1
 345 0 l 1,7,-1
 337 78 l 1,8,9
 254 -10 254 -10 161 -10 c 0,10,11
 104 -10 104 -10 69.5 25.5 c 128,-1,12
 35 61 35 61 35 119.5 c 128,-1,13
 35 178 35 178 70 215 c 128,-1,14
 105 252 105 252 171 261 c 2,15,-1
 333 283 l 1,16,-1
 333 350 l 2,17,18
 333 430 333 430 225 430 c 0,19,20
 179 430 179 430 137 411 c 1,21,-1
 123 338 l 1,22,-1
 65 338 l 1,23,-1
 58 453 l 1,24,25
 161 490 161 490 234 490 c 128,-1,26
 307 490 307 490 359.5 456 c 128,-1,27
 412 422 412 422 412 352 c 2,0,-1
333 229 m 1,28,-1
 194 206 l 2,29,30
 158 201 158 201 138 180 c 128,-1,31
 118 159 118 159 118 127 c 128,-1,32
 118 95 118 95 138.5 78 c 128,-1,33
 159 61 159 61 191 61 c 0,34,35
 245 61 245 61 333 140 c 1,36,-1
 333 229 l 1,28,-1
214.5 592.5 m 128,-1,38
 170 611 170 611 144 611 c 128,-1,39
 118 611 118 611 80 580 c 1,40,-1
 65 622 l 1,41,42
 106 680 106 680 155 680 c 0,43,44
 185 680 185 680 229 662.5 c 128,-1,45
 273 645 273 645 300.5 645 c 128,-1,46
 328 645 328 645 359 672 c 1,47,-1
 375 632 l 1,48,49
 335 574 335 574 286 574 c 0,50,37
 259 574 259 574 214.5 592.5 c 128,-1,38
EndSplineSet
EndChar

StartChar: aring
Encoding: 229 229 130
Width: 525
Flags: MW
HStem: -10 71<170 193> 0 21G<345 491 345 345> 430 60<209 255.5> 555 47<210.5 238 210.5 250.5> 694 48<207 234.5>
VStem: 35 83<105 148 105 157.5> 127 50<631.5 659 631.5 669.5> 268 50<637 664.5> 333 79<140 229 229 229 283 350 350 352>
LayerCount: 2
Fore
SplineSet
412 352 m 2,0,-1
 412 98 l 2,1,2
 412 76 412 76 416 68.5 c 128,-1,3
 420 61 420 61 435 60 c 2,4,-1
 491 54 l 1,5,-1
 491 0 l 1,6,-1
 345 0 l 1,7,-1
 337 78 l 1,8,9
 254 -10 254 -10 161 -10 c 0,10,11
 104 -10 104 -10 69.5 25.5 c 128,-1,12
 35 61 35 61 35 119.5 c 0,13,14
 35 178 35 178 70 215 c 128,-1,15
 105 252 105 252 171 261 c 2,16,-1
 333 283 l 1,17,-1
 333 350 l 2,18,19
 333 430 333 430 225 430 c 0,20,21
 179 430 179 430 137 411 c 1,22,-1
 123 338 l 1,23,-1
 65 338 l 1,24,-1
 58 453 l 1,25,26
 161 490 161 490 234 490 c 0,27,28
 307 490 307 490 359.5 456 c 128,-1,29
 412 422 412 422 412 352 c 2,0,-1
333 229 m 1,30,-1
 194 206 l 2,31,32
 158 201 158 201 138 180 c 128,-1,33
 118 159 118 159 118 127 c 0,34,35
 118 95 118 95 138.5 78 c 128,-1,36
 159 61 159 61 191 61 c 0,37,38
 245 61 245 61 333 140 c 1,39,-1
 333 229 l 1,30,-1
318 650 m 128,-1,41
 318 613 318 613 291 584 c 128,-1,42
 264 555 264 555 220 555 c 0,43,44
 176 555 176 555 151.5 582.5 c 128,-1,45
 127 610 127 610 127 647 c 128,-1,46
 127 684 127 684 154 713 c 128,-1,47
 181 742 181 742 225 742 c 0,48,49
 269 742 269 742 293.5 714.5 c 128,-1,40
 318 687 318 687 318 650 c 128,-1,41
268 652 m 0,50,51
 268 670 268 670 254.5 682 c 128,-1,52
 241 694 241 694 222 694 c 0,53,54
 177 694 177 694 177 644 c 0,55,56
 177 626 177 626 190.5 614 c 128,-1,57
 204 602 204 602 223 602 c 0,58,59
 268 602 268 602 268 652 c 0,50,51
EndSplineSet
EndChar

StartChar: ccedilla
Encoding: 231 231 131
Width: 475
Flags: MW
HStem: -230 46<219 242.5 219 261.5> -10 66<262 262> 424 66<228.5 268>
VStem: 40 86<181 262.5 181 303> 280 63<-155 -125>
LayerCount: 2
Fore
SplineSet
423 83 m 1,0,-1
 435 32 l 1,1,2
 379.551724138 4.27586206897 379.551724138 4.27586206897 302.5 -7 c 0,3,4
 282 -10 282 -10 262 -10 c 1,5,-1
 262 -62 l 1,6,-1
 289 -71 l 2,7,8
 321 -81 321 -81 332 -95 c 128,-1,9
 343 -109 343 -109 343 -134 c 0,10,11
 343 -180 343 -180 310.5 -205 c 128,-1,12
 278 -230 278 -230 235 -230 c 128,-1,13
 192 -230 192 -230 147 -209 c 1,14,-1
 159 -170 l 1,15,16
 194 -184 194 -184 231 -184 c 0,17,18
 280 -184 280 -184 280 -136 c 0,19,20
 280 -121 280 -121 269 -113 c 128,-1,21
 258 -105 258 -105 235 -100 c 2,22,-1
 198 -92 l 1,23,-1
 213 -7 l 1,24,25
 40 14 40 14 40 226 c 0,26,27
 40 343 40 343 102 416.5 c 128,-1,28
 164 490 164 490 268 490 c 0,29,30
 314 490 314 490 357 478.5 c 128,-1,31
 400 467 400 467 422 453 c 1,32,-1
 415 330 l 1,33,-1
 357 330 l 1,34,-1
 343 405 l 1,35,36
 309 424 309 424 243 424 c 0,37,38
 219 424 219 424 194 415 c 128,-1,39
 169 406 169 406 160 391 c 1,40,41
 126 343 126 343 126 231 c 0,42,43
 126 153 126 153 162.5 104.5 c 128,-1,44
 199 56 199 56 266 56 c 0,45,46
 315 56 315 56 423 83 c 1,0,-1
EndSplineSet
EndChar

StartChar: eacute
Encoding: 233 233 132
Width: 484
Flags: MW
HStem: -10 66<221.5 294 221.5 295> 424 66<201.5 303> 490 64<236 250 236 336> 732 20G<355 355>
VStem: 36 87<219 219 219 308> 366 79<300 318 242 330.5>
LayerCount: 2
Fore
SplineSet
445 242 m 1,0,-1
 123 219 l 1,1,2
 128 56 128 56 270 56 c 0,3,4
 340 56 340 56 427 85 c 1,5,-1
 441 36 l 1,6,7
 411.8 21.4 411.8 21.4 370.4 9.7 c 0,8,9
 300.692307692 -10 300.692307692 -10 242 -10 c 0,10,11
 137 -10 137 -10 86.5 55.5 c 128,-1,12
 36 121 36 121 36 234.5 c 128,-1,13
 36 348 36 348 95 419 c 128,-1,14
 154 490 154 490 260.5 490 c 128,-1,15
 367 490 367 490 406 428.5 c 128,-1,16
 445 367 445 367 445 242 c 1,0,-1
122 279 m 1,17,-1
 366 300 l 1,18,19
 366 356 366 356 343 390 c 128,-1,20
 320 424 320 424 248.5 424 c 128,-1,21
 177 424 177 424 154.5 397 c 128,-1,22
 132 370 132 370 122 279 c 1,17,-1
355 752 m 1,23,-1
 413 692 l 1,24,-1
 276 568 l 2,25,26
 261 554 261 554 243 554 c 128,-1,27
 225 554 225 554 199 576 c 1,28,-1
 355 752 l 1,23,-1
EndSplineSet
EndChar

StartChar: egrave
Encoding: 232 232 133
Width: 484
Flags: MW
HStem: -10 66<221.5 294 221.5 295> 424 66<201.5 303> 490 64<240 254 240 336> 732 20G<135 135>
VStem: 36 87<219 219 219 308> 366 79<300 318 242 330.5>
LayerCount: 2
Fore
SplineSet
445 242 m 1,0,-1
 123 219 l 1,1,2
 128 56 128 56 270 56 c 0,3,4
 340 56 340 56 427 85 c 1,5,-1
 441 36 l 1,6,7
 411.8 21.4 411.8 21.4 370.4 9.7 c 0,8,9
 300.692307692 -10 300.692307692 -10 242 -10 c 0,10,11
 137 -10 137 -10 86.5 55.5 c 128,-1,12
 36 121 36 121 36 234.5 c 128,-1,13
 36 348 36 348 95 419 c 128,-1,14
 154 490 154 490 260.5 490 c 128,-1,15
 367 490 367 490 406 428.5 c 128,-1,16
 445 367 445 367 445 242 c 1,0,-1
122 279 m 1,17,-1
 366 300 l 1,18,19
 366 356 366 356 343 390 c 128,-1,20
 320 424 320 424 248.5 424 c 128,-1,21
 177 424 177 424 154.5 397 c 128,-1,22
 132 370 132 370 122 279 c 1,17,-1
77 692 m 1,23,-1
 135 752 l 1,24,-1
 291 576 l 1,25,26
 265 554 265 554 247 554 c 128,-1,27
 229 554 229 554 214 568 c 2,28,-1
 77 692 l 1,23,-1
EndSplineSet
EndChar

StartChar: ecircumflex
Encoding: 234 234 134
Width: 484
Flags: MW
HStem: -10 66<221.5 294 221.5 295> 424 66<201.5 303> 708 20G<204 279 279 279>
VStem: 36 87<219 219 219 308> 366 79<300 318 242 330.5>
LayerCount: 2
Fore
SplineSet
445 242 m 1,0,-1
 123 219 l 1,1,2
 128 56 128 56 270 56 c 0,3,4
 340 56 340 56 427 85 c 1,5,-1
 441 36 l 1,6,7
 411.8 21.4 411.8 21.4 370.4 9.7 c 0,8,9
 300.692307692 -10 300.692307692 -10 242 -10 c 0,10,11
 137 -10 137 -10 86.5 55.5 c 128,-1,12
 36 121 36 121 36 234.5 c 128,-1,13
 36 348 36 348 95 419 c 128,-1,14
 154 490 154 490 260.5 490 c 128,-1,15
 367 490 367 490 406 428.5 c 128,-1,16
 445 367 445 367 445 242 c 1,0,-1
122 279 m 1,17,-1
 366 300 l 1,18,19
 366 356 366 356 343 390 c 128,-1,20
 320 424 320 424 248.5 424 c 128,-1,21
 177 424 177 424 154.5 397 c 128,-1,22
 132 370 132 370 122 279 c 1,17,-1
204 728 m 1,23,-1
 279 728 l 1,24,-1
 387 578 l 1,25,-1
 349 546 l 1,26,-1
 241 667 l 1,27,-1
 133 546 l 1,28,-1
 94 578 l 1,29,-1
 204 728 l 1,23,-1
EndSplineSet
EndChar

StartChar: edieresis
Encoding: 235 235 135
Width: 484
Flags: MW
HStem: -10 66<221.5 294 221.5 295> 424 66<201.5 303> 580 112<118 152.5 323 357.5>
VStem: 36 87<219 219 219 308> 80 112<613.5 651.5> 285 112<613.5 651.5> 366 79<300 318 242 330.5>
LayerCount: 2
Fore
SplineSet
445 242 m 1,0,-1
 123 219 l 1,1,2
 128 56 128 56 270 56 c 0,3,4
 340 56 340 56 427 85 c 1,5,-1
 441 36 l 1,6,7
 411.8 21.4 411.8 21.4 370.4 9.7 c 0,8,9
 300.692307692 -10 300.692307692 -10 242 -10 c 0,10,11
 137 -10 137 -10 86.5 55.5 c 128,-1,12
 36 121 36 121 36 234.5 c 128,-1,13
 36 348 36 348 95 419 c 128,-1,14
 154 490 154 490 260.5 490 c 128,-1,15
 367 490 367 490 406 428.5 c 128,-1,16
 445 367 445 367 445 242 c 1,0,-1
122 279 m 1,17,-1
 366 300 l 1,18,19
 366 356 366 356 343 390 c 128,-1,20
 320 424 320 424 248.5 424 c 128,-1,21
 177 424 177 424 154.5 397 c 128,-1,22
 132 370 132 370 122 279 c 1,17,-1
182 678.5 m 128,-1,24
 192 665 192 665 192 633.5 c 128,-1,25
 192 602 192 602 178.5 591 c 128,-1,26
 165 580 165 580 134 580 c 128,-1,27
 103 580 103 580 91.5 592 c 128,-1,28
 80 604 80 604 80 634 c 128,-1,29
 80 664 80 664 93.5 678 c 128,-1,30
 107 692 107 692 139.5 692 c 128,-1,23
 172 692 172 692 182 678.5 c 128,-1,24
387 678.5 m 128,-1,32
 397 665 397 665 397 633.5 c 128,-1,33
 397 602 397 602 383.5 591 c 128,-1,34
 370 580 370 580 339 580 c 128,-1,35
 308 580 308 580 296.5 592 c 128,-1,36
 285 604 285 604 285 634 c 128,-1,37
 285 664 285 664 298.5 678 c 128,-1,38
 312 692 312 692 344.5 692 c 128,-1,31
 377 692 377 692 387 678.5 c 128,-1,32
EndSplineSet
EndChar

StartChar: iacute
Encoding: 237 237 136
Width: 309
Flags: MW
HStem: 0 21G<42 277 42 42> 480 74<116 130 116 199 116 199> 732 20G<235 235>
VStem: 42 157<0 98 54 98 428 480> 120 79<98 384 384 398>
LayerCount: 2
Fore
SplineSet
199 480 m 1,0,-1
 199 98 l 2,1,2
 199 76 199 76 203 69 c 128,-1,3
 207 62 207 62 222 60 c 2,4,-1
 277 54 l 1,5,-1
 277 0 l 1,6,-1
 42 0 l 1,7,-1
 42 54 l 1,8,-1
 97 60 l 2,9,10
 112 62 112 62 116 69 c 128,-1,11
 120 76 120 76 120 98 c 2,12,-1
 120 384 l 2,13,14
 120 406 120 406 116 413.5 c 128,-1,15
 112 421 112 421 97 422 c 2,16,-1
 42 428 l 1,17,-1
 42 480 l 1,18,-1
 199 480 l 1,0,-1
235 752 m 1,19,-1
 293 692 l 1,20,-1
 156 568 l 2,21,22
 141 554 141 554 123 554 c 0,23,24
 105 554 105 554 79 576 c 1,25,-1
 235 752 l 1,19,-1
EndSplineSet
EndChar

StartChar: igrave
Encoding: 236 236 137
Width: 309
Flags: MW
HStem: 0 21G<42 277 42 42> 480 74<150 164 150 199 150 199> 732 20G<45 45>
VStem: 42 157<0 98 54 98 428 480> 120 79<98 384 384 398>
LayerCount: 2
Fore
SplineSet
199 480 m 1,0,-1
 199 98 l 2,1,2
 199 76 199 76 203 69 c 128,-1,3
 207 62 207 62 222 60 c 2,4,-1
 277 54 l 1,5,-1
 277 0 l 1,6,-1
 42 0 l 1,7,-1
 42 54 l 1,8,-1
 97 60 l 2,9,10
 112 62 112 62 116 69 c 128,-1,11
 120 76 120 76 120 98 c 2,12,-1
 120 384 l 2,13,14
 120 406 120 406 116 413.5 c 128,-1,15
 112 421 112 421 97 422 c 2,16,-1
 42 428 l 1,17,-1
 42 480 l 1,18,-1
 199 480 l 1,0,-1
-13 692 m 1,19,-1
 45 752 l 1,20,-1
 201 576 l 1,21,22
 175 554 175 554 157 554 c 0,23,24
 139 554 139 554 124 568 c 2,25,-1
 -13 692 l 1,19,-1
EndSplineSet
EndChar

StartChar: icircumflex
Encoding: 238 238 138
Width: 309
Flags: MW
HStem: 0 21G<42 277 42 42> 460 20G<42 199 199 199> 708 20G<98 164 164 164>
VStem: 42 157<0 98 54 98 428 480> 120 79<98 384 384 398>
LayerCount: 2
Fore
SplineSet
98 728 m 1,0,-1
 164 728 l 1,1,-1
 262 578 l 1,2,-1
 224 546 l 1,3,-1
 130 663 l 1,4,-1
 36 546 l 1,5,-1
 -3 578 l 1,6,-1
 98 728 l 1,0,-1
199 480 m 1,7,-1
 199 98 l 2,8,9
 199 76 199 76 203 69 c 128,-1,10
 207 62 207 62 222 60 c 2,11,-1
 277 54 l 1,12,-1
 277 0 l 1,13,-1
 42 0 l 1,14,-1
 42 54 l 1,15,-1
 97 60 l 2,16,17
 112 62 112 62 116 69 c 128,-1,18
 120 76 120 76 120 98 c 2,19,-1
 120 384 l 2,20,21
 120 406 120 406 116 413.5 c 128,-1,22
 112 421 112 421 97 422 c 2,23,-1
 42 428 l 1,24,-1
 42 480 l 1,25,-1
 199 480 l 1,7,-1
EndSplineSet
EndChar

StartChar: idieresis
Encoding: 239 239 139
Width: 309
Flags: MW
HStem: 0 21G<42 277 42 42> 460 20G<42 199 199 199> 580 112<30 64.5 195 229.5>
VStem: -8 112<613.5 651.5> 42 157<0 98 54 98 428 480> 120 79<98 384 384 398> 157 112<613.5 651.5>
LayerCount: 2
Fore
SplineSet
94 678.5 m 128,-1,1
 104 665 104 665 104 633.5 c 128,-1,2
 104 602 104 602 90.5 591 c 128,-1,3
 77 580 77 580 46 580 c 128,-1,4
 15 580 15 580 3.5 592 c 128,-1,5
 -8 604 -8 604 -8 634 c 128,-1,6
 -8 664 -8 664 5.5 678 c 128,-1,7
 19 692 19 692 51.5 692 c 128,-1,0
 84 692 84 692 94 678.5 c 128,-1,1
259 678.5 m 128,-1,9
 269 665 269 665 269 633.5 c 128,-1,10
 269 602 269 602 255.5 591 c 128,-1,11
 242 580 242 580 211 580 c 128,-1,12
 180 580 180 580 168.5 592 c 128,-1,13
 157 604 157 604 157 634 c 128,-1,14
 157 664 157 664 170.5 678 c 128,-1,15
 184 692 184 692 216.5 692 c 128,-1,8
 249 692 249 692 259 678.5 c 128,-1,9
199 480 m 1,16,-1
 199 98 l 2,17,18
 199 76 199 76 203 69 c 128,-1,19
 207 62 207 62 222 60 c 2,20,-1
 277 54 l 1,21,-1
 277 0 l 1,22,-1
 42 0 l 1,23,-1
 42 54 l 1,24,-1
 97 60 l 2,25,26
 112 62 112 62 116 69 c 128,-1,27
 120 76 120 76 120 98 c 2,28,-1
 120 384 l 2,29,30
 120 406 120 406 116 413.5 c 128,-1,31
 112 421 112 421 97 422 c 2,32,-1
 42 428 l 1,33,-1
 42 480 l 1,34,-1
 199 480 l 1,16,-1
EndSplineSet
EndChar

StartChar: ntilde
Encoding: 241 241 140
Width: 627
Flags: MW
HStem: 0 21G<42 282 42 42 438 595 438 438> 416 74<320 365.5> 460 20G<42 189 189 189> 584 71<367.5 400 367.5 400> 621 34
VStem: 120 79<98 340> 438 79<84 98 98 323 323 347>
LayerCount: 2
Fore
SplineSet
595 0 m 1,0,-1
 438 0 l 1,1,-1
 438 323 l 2,2,3
 438 368 438 368 410 392 c 128,-1,4
 382 416 382 416 335 416 c 128,-1,5
 288 416 288 416 252 393 c 128,-1,6
 216 370 216 370 199 340 c 1,7,-1
 199 98 l 2,8,9
 199 76 199 76 203 68.5 c 128,-1,10
 207 61 207 61 222 60 c 2,11,-1
 282 53 l 1,12,-1
 282 0 l 1,13,-1
 42 0 l 1,14,-1
 42 54 l 1,15,-1
 97 60 l 2,16,17
 112 61 112 61 116 68.5 c 128,-1,18
 120 76 120 76 120 98 c 2,19,-1
 120 384 l 2,20,21
 120 406 120 406 116 413.5 c 128,-1,22
 112 421 112 421 97 422 c 2,23,-1
 42 428 l 1,24,-1
 42 480 l 1,25,-1
 189 480 l 1,26,-1
 198 408 l 1,27,28
 221 432 221 432 236 445 c 128,-1,29
 251 458 251 458 287.5 474 c 128,-1,30
 324 490 324 490 365 490 c 0,31,32
 445 490 445 490 481 449 c 128,-1,33
 517 408 517 408 517 347 c 2,34,-1
 517 98 l 2,35,36
 517 76 517 76 521 69 c 128,-1,37
 525 62 525 62 540 60 c 2,38,-1
 595 54 l 1,39,-1
 595 0 l 1,0,-1
310.5 602.5 m 128,-1,41
 266 621 266 621 240 621 c 128,-1,42
 214 621 214 621 176 590 c 1,43,-1
 161 632 l 1,44,45
 202 690 202 690 251 690 c 0,46,47
 281 690 281 690 325 672.5 c 128,-1,48
 369 655 369 655 396.5 655 c 128,-1,49
 424 655 424 655 455 682 c 1,50,-1
 471 642 l 1,51,52
 431 584 431 584 382 584 c 0,53,40
 355 584 355 584 310.5 602.5 c 128,-1,41
EndSplineSet
EndChar

StartChar: oacute
Encoding: 243 243 141
Width: 543
Flags: MW
HStem: -10 66<230 302.5 230 345> 424 66<240.5 313> 490 64<268 282 268 365.5> 732 20G<387 387>
VStem: 40 86<180.5 262.5 180.5 297.5> 417 86<217.5 299.5>
LayerCount: 2
Fore
SplineSet
447 72 m 0,0,1
 419 35 419 35 369.5 12.5 c 128,-1,2
 320 -10 320 -10 255 -10 c 0,3,4
 144 -10 144 -10 92 57 c 128,-1,5
 40 124 40 124 40 240 c 0,6,7
 40 334 40 334 96 408 c 0,8,9
 124 445 124 445 173.5 467.5 c 128,-1,10
 223 490 223 490 288 490 c 0,11,12
 399 490 399 490 451 423 c 128,-1,13
 503 356 503 356 503 251 c 128,-1,14
 503 146 503 146 447 72 c 0,0,1
377 376 m 128,-1,16
 337 424 337 424 266.5 424 c 128,-1,17
 196 424 196 424 171.5 399.5 c 128,-1,18
 147 375 147 375 136.5 328.5 c 128,-1,19
 126 282 126 282 126 236 c 0,20,21
 126 152 126 152 166 104 c 128,-1,22
 206 56 206 56 276.5 56 c 128,-1,23
 347 56 347 56 371.5 80.5 c 128,-1,24
 396 105 396 105 406.5 151.5 c 128,-1,25
 417 198 417 198 417 244 c 0,26,15
 417 328 417 328 377 376 c 128,-1,16
387 752 m 1,27,-1
 445 692 l 1,28,-1
 308 568 l 2,29,30
 293 554 293 554 275 554 c 128,-1,31
 257 554 257 554 231 576 c 1,32,-1
 387 752 l 1,27,-1
EndSplineSet
EndChar

StartChar: ograve
Encoding: 242 242 142
Width: 543
Flags: MW
HStem: -10 66<230 302.5 230 345> 424 66<240.5 313> 490 64<272 286 272 365.5> 732 20G<167 167>
VStem: 40 86<180.5 262.5 180.5 297.5> 417 86<217.5 299.5>
LayerCount: 2
Fore
SplineSet
447 72 m 0,0,1
 419 35 419 35 369.5 12.5 c 128,-1,2
 320 -10 320 -10 255 -10 c 0,3,4
 144 -10 144 -10 92 57 c 128,-1,5
 40 124 40 124 40 240 c 0,6,7
 40 334 40 334 96 408 c 0,8,9
 124 445 124 445 173.5 467.5 c 128,-1,10
 223 490 223 490 288 490 c 0,11,12
 399 490 399 490 451 423 c 128,-1,13
 503 356 503 356 503 251 c 128,-1,14
 503 146 503 146 447 72 c 0,0,1
377 376 m 128,-1,16
 337 424 337 424 266.5 424 c 128,-1,17
 196 424 196 424 171.5 399.5 c 128,-1,18
 147 375 147 375 136.5 328.5 c 128,-1,19
 126 282 126 282 126 236 c 0,20,21
 126 152 126 152 166 104 c 128,-1,22
 206 56 206 56 276.5 56 c 128,-1,23
 347 56 347 56 371.5 80.5 c 128,-1,24
 396 105 396 105 406.5 151.5 c 128,-1,25
 417 198 417 198 417 244 c 0,26,15
 417 328 417 328 377 376 c 128,-1,16
109 692 m 1,27,-1
 167 752 l 1,28,-1
 323 576 l 1,29,30
 297 554 297 554 279 554 c 128,-1,31
 261 554 261 554 246 568 c 2,32,-1
 109 692 l 1,27,-1
EndSplineSet
EndChar

StartChar: ocircumflex
Encoding: 244 244 143
Width: 543
Flags: MW
HStem: -10 66<230 302.5 230 345> 424 66<240.5 313> 708 20G<236 311 311 311>
VStem: 40 86<180.5 262.5 180.5 297.5> 417 86<217.5 299.5>
LayerCount: 2
Fore
SplineSet
447 72 m 0,0,1
 419 35 419 35 369.5 12.5 c 128,-1,2
 320 -10 320 -10 255 -10 c 0,3,4
 144 -10 144 -10 92 57 c 128,-1,5
 40 124 40 124 40 240 c 0,6,7
 40 334 40 334 96 408 c 0,8,9
 124 445 124 445 173.5 467.5 c 128,-1,10
 223 490 223 490 288 490 c 0,11,12
 399 490 399 490 451 423 c 128,-1,13
 503 356 503 356 503 251 c 128,-1,14
 503 146 503 146 447 72 c 0,0,1
377 376 m 128,-1,16
 337 424 337 424 266.5 424 c 128,-1,17
 196 424 196 424 171.5 399.5 c 128,-1,18
 147 375 147 375 136.5 328.5 c 128,-1,19
 126 282 126 282 126 236 c 0,20,21
 126 152 126 152 166 104 c 128,-1,22
 206 56 206 56 276.5 56 c 128,-1,23
 347 56 347 56 371.5 80.5 c 128,-1,24
 396 105 396 105 406.5 151.5 c 128,-1,25
 417 198 417 198 417 244 c 0,26,15
 417 328 417 328 377 376 c 128,-1,16
236 728 m 1,27,-1
 311 728 l 1,28,-1
 419 578 l 1,29,-1
 381 546 l 1,30,-1
 273 667 l 1,31,-1
 165 546 l 1,32,-1
 126 578 l 1,33,-1
 236 728 l 1,27,-1
EndSplineSet
EndChar

StartChar: odieresis
Encoding: 246 246 144
Width: 543
Flags: MW
HStem: -10 66<230 302.5 230 345> 424 66<240.5 313> 580 112<150 184.5 355 389.5>
VStem: 40 86<180.5 262.5 180.5 297.5> 112 112<613.5 651.5> 317 112<613.5 651.5> 417 86<217.5 299.5>
LayerCount: 2
Fore
SplineSet
447 72 m 0,0,1
 419 35 419 35 369.5 12.5 c 128,-1,2
 320 -10 320 -10 255 -10 c 0,3,4
 144 -10 144 -10 92 57 c 128,-1,5
 40 124 40 124 40 240 c 0,6,7
 40 334 40 334 96 408 c 0,8,9
 124 445 124 445 173.5 467.5 c 128,-1,10
 223 490 223 490 288 490 c 0,11,12
 399 490 399 490 451 423 c 128,-1,13
 503 356 503 356 503 251 c 128,-1,14
 503 146 503 146 447 72 c 0,0,1
377 376 m 128,-1,16
 337 424 337 424 266.5 424 c 128,-1,17
 196 424 196 424 171.5 399.5 c 128,-1,18
 147 375 147 375 136.5 328.5 c 128,-1,19
 126 282 126 282 126 236 c 0,20,21
 126 152 126 152 166 104 c 128,-1,22
 206 56 206 56 276.5 56 c 128,-1,23
 347 56 347 56 371.5 80.5 c 128,-1,24
 396 105 396 105 406.5 151.5 c 128,-1,25
 417 198 417 198 417 244 c 0,26,15
 417 328 417 328 377 376 c 128,-1,16
214 678.5 m 128,-1,28
 224 665 224 665 224 633.5 c 128,-1,29
 224 602 224 602 210.5 591 c 128,-1,30
 197 580 197 580 166 580 c 128,-1,31
 135 580 135 580 123.5 592 c 128,-1,32
 112 604 112 604 112 634 c 128,-1,33
 112 664 112 664 125.5 678 c 128,-1,34
 139 692 139 692 171.5 692 c 128,-1,27
 204 692 204 692 214 678.5 c 128,-1,28
419 678.5 m 128,-1,36
 429 665 429 665 429 633.5 c 128,-1,37
 429 602 429 602 415.5 591 c 128,-1,38
 402 580 402 580 371 580 c 128,-1,39
 340 580 340 580 328.5 592 c 128,-1,40
 317 604 317 604 317 634 c 128,-1,41
 317 664 317 664 330.5 678 c 128,-1,42
 344 692 344 692 376.5 692 c 128,-1,35
 409 692 409 692 419 678.5 c 128,-1,36
EndSplineSet
EndChar

StartChar: otilde
Encoding: 245 245 145
Width: 543
Flags: MW
HStem: -10 66<230 302.5 230 345> 424 66<240.5 313> 574 71<322.5 355 322.5 355> 611 34
VStem: 40 86<180.5 262.5 180.5 297.5> 417 86<217.5 299.5>
LayerCount: 2
Fore
SplineSet
447 72 m 0,0,1
 419 35 419 35 369.5 12.5 c 128,-1,2
 320 -10 320 -10 255 -10 c 0,3,4
 144 -10 144 -10 92 57 c 128,-1,5
 40 124 40 124 40 240 c 0,6,7
 40 334 40 334 96 408 c 0,8,9
 124 445 124 445 173.5 467.5 c 128,-1,10
 223 490 223 490 288 490 c 0,11,12
 399 490 399 490 451 423 c 128,-1,13
 503 356 503 356 503 251 c 128,-1,14
 503 146 503 146 447 72 c 0,0,1
377 376 m 128,-1,16
 337 424 337 424 266.5 424 c 128,-1,17
 196 424 196 424 171.5 399.5 c 128,-1,18
 147 375 147 375 136.5 328.5 c 128,-1,19
 126 282 126 282 126 236 c 0,20,21
 126 152 126 152 166 104 c 128,-1,22
 206 56 206 56 276.5 56 c 128,-1,23
 347 56 347 56 371.5 80.5 c 128,-1,24
 396 105 396 105 406.5 151.5 c 128,-1,25
 417 198 417 198 417 244 c 0,26,15
 417 328 417 328 377 376 c 128,-1,16
265.5 592.5 m 128,-1,28
 221 611 221 611 195 611 c 128,-1,29
 169 611 169 611 131 580 c 1,30,-1
 116 622 l 1,31,32
 157 680 157 680 206 680 c 0,33,34
 236 680 236 680 280 662.5 c 128,-1,35
 324 645 324 645 351 645 c 128,-1,36
 378 645 378 645 410 672 c 1,37,-1
 426 632 l 1,38,39
 386 574 386 574 337 574 c 0,40,27
 310 574 310 574 265.5 592.5 c 128,-1,28
EndSplineSet
EndChar

StartChar: uacute
Encoding: 250 250 146
Width: 606
Flags: MW
HStem: -10 74<249.5 297> 0 21G<431 575 431 431> 460 20G<27 184 184 184 339 496 496 496> 732 20G<386 386>
VStem: 105 79<133 160 160 384 384 398> 417 79<139 384 384 398>
LayerCount: 2
Fore
SplineSet
417 139 m 1,0,-1
 417 384 l 2,1,2
 417 406 417 406 413 413.5 c 128,-1,3
 409 421 409 421 394 422 c 2,4,-1
 339 428 l 1,5,-1
 339 480 l 1,6,-1
 496 480 l 1,7,-1
 496 98 l 2,8,9
 496 76 496 76 500 68.5 c 128,-1,10
 504 61 504 61 519 60 c 2,11,-1
 575 54 l 1,12,-1
 575 0 l 1,13,-1
 431 0 l 1,14,-1
 423 76 l 1,15,16
 350 -10 350 -10 259 -10 c 0,17,18
 185 -10 185 -10 145 27 c 128,-1,19
 105 64 105 64 105 133 c 2,20,-1
 105 384 l 2,21,22
 105 406 105 406 101 413.5 c 128,-1,23
 97 421 97 421 82 422 c 2,24,-1
 27 428 l 1,25,-1
 27 480 l 1,26,-1
 184 480 l 1,27,-1
 184 160 l 2,28,29
 184 64 184 64 282 64 c 0,30,31
 328 64 328 64 367 91.5 c 128,-1,32
 406 119 406 119 417 139 c 1,0,-1
386 752 m 1,33,-1
 444 692 l 1,34,-1
 307 568 l 2,35,36
 292 554 292 554 274 554 c 0,37,38
 256 554 256 554 230 576 c 1,39,-1
 386 752 l 1,33,-1
EndSplineSet
EndChar

StartChar: ugrave
Encoding: 249 249 147
Width: 606
Flags: MW
HStem: -10 74<249.5 297> 0 21G<431 575 431 431> 460 20G<27 184 184 184 339 496 496 496> 732 20G<166 166>
VStem: 105 79<133 160 160 384 384 398> 417 79<139 384 384 398>
LayerCount: 2
Fore
SplineSet
417 139 m 1,0,-1
 417 384 l 2,1,2
 417 406 417 406 413 413.5 c 128,-1,3
 409 421 409 421 394 422 c 2,4,-1
 339 428 l 1,5,-1
 339 480 l 1,6,-1
 496 480 l 1,7,-1
 496 98 l 2,8,9
 496 76 496 76 500 68.5 c 128,-1,10
 504 61 504 61 519 60 c 2,11,-1
 575 54 l 1,12,-1
 575 0 l 1,13,-1
 431 0 l 1,14,-1
 423 76 l 1,15,16
 350 -10 350 -10 259 -10 c 0,17,18
 185 -10 185 -10 145 27 c 128,-1,19
 105 64 105 64 105 133 c 2,20,-1
 105 384 l 2,21,22
 105 406 105 406 101 413.5 c 128,-1,23
 97 421 97 421 82 422 c 2,24,-1
 27 428 l 1,25,-1
 27 480 l 1,26,-1
 184 480 l 1,27,-1
 184 160 l 2,28,29
 184 64 184 64 282 64 c 0,30,31
 328 64 328 64 367 91.5 c 128,-1,32
 406 119 406 119 417 139 c 1,0,-1
108 692 m 1,33,-1
 166 752 l 1,34,-1
 322 576 l 1,35,36
 296 554 296 554 278 554 c 0,37,38
 260 554 260 554 245 568 c 2,39,-1
 108 692 l 1,33,-1
EndSplineSet
EndChar

StartChar: ucircumflex
Encoding: 251 251 148
Width: 606
Flags: MW
HStem: -10 74<249.5 297> 0 21G<431 575 431 431> 460 20G<27 184 184 184 339 496 496 496> 708 20G<255 330 330 330>
VStem: 105 79<133 160 160 384 384 398> 417 79<139 384 384 398>
LayerCount: 2
Fore
SplineSet
417 139 m 1,0,-1
 417 384 l 2,1,2
 417 406 417 406 413 413.5 c 128,-1,3
 409 421 409 421 394 422 c 2,4,-1
 339 428 l 1,5,-1
 339 480 l 1,6,-1
 496 480 l 1,7,-1
 496 98 l 2,8,9
 496 76 496 76 500 68.5 c 128,-1,10
 504 61 504 61 519 60 c 2,11,-1
 575 54 l 1,12,-1
 575 0 l 1,13,-1
 431 0 l 1,14,-1
 423 76 l 1,15,16
 350 -10 350 -10 259 -10 c 0,17,18
 185 -10 185 -10 145 27 c 128,-1,19
 105 64 105 64 105 133 c 2,20,-1
 105 384 l 2,21,22
 105 406 105 406 101 413.5 c 128,-1,23
 97 421 97 421 82 422 c 2,24,-1
 27 428 l 1,25,-1
 27 480 l 1,26,-1
 184 480 l 1,27,-1
 184 160 l 2,28,29
 184 64 184 64 282 64 c 0,30,31
 328 64 328 64 367 91.5 c 128,-1,32
 406 119 406 119 417 139 c 1,0,-1
255 728 m 1,33,-1
 330 728 l 1,34,-1
 438 578 l 1,35,-1
 400 546 l 1,36,-1
 292 667 l 1,37,-1
 184 546 l 1,38,-1
 145 578 l 1,39,-1
 255 728 l 1,33,-1
EndSplineSet
EndChar

StartChar: udieresis
Encoding: 252 252 149
Width: 606
Flags: MW
HStem: -10 74<249.5 297> 0 21G<431 575 431 431> 460 20G<27 184 184 184 339 496 496 496> 580 112<169 203.5 374 408.5>
VStem: 105 79<133 160 160 384 384 398> 131 112<613.5 651.5> 336 112<613.5 651.5> 417 79<139 384 384 398>
LayerCount: 2
Fore
SplineSet
417 139 m 1,0,-1
 417 384 l 2,1,2
 417 406 417 406 413 413.5 c 128,-1,3
 409 421 409 421 394 422 c 2,4,-1
 339 428 l 1,5,-1
 339 480 l 1,6,-1
 496 480 l 1,7,-1
 496 98 l 2,8,9
 496 76 496 76 500 68.5 c 128,-1,10
 504 61 504 61 519 60 c 2,11,-1
 575 54 l 1,12,-1
 575 0 l 1,13,-1
 431 0 l 1,14,-1
 423 76 l 1,15,16
 350 -10 350 -10 259 -10 c 0,17,18
 185 -10 185 -10 145 27 c 128,-1,19
 105 64 105 64 105 133 c 2,20,-1
 105 384 l 2,21,22
 105 406 105 406 101 413.5 c 128,-1,23
 97 421 97 421 82 422 c 2,24,-1
 27 428 l 1,25,-1
 27 480 l 1,26,-1
 184 480 l 1,27,-1
 184 160 l 2,28,29
 184 64 184 64 282 64 c 0,30,31
 328 64 328 64 367 91.5 c 128,-1,32
 406 119 406 119 417 139 c 1,0,-1
233 678.5 m 128,-1,34
 243 665 243 665 243 633.5 c 128,-1,35
 243 602 243 602 229.5 591 c 128,-1,36
 216 580 216 580 185 580 c 128,-1,37
 154 580 154 580 142.5 592 c 128,-1,38
 131 604 131 604 131 634 c 128,-1,39
 131 664 131 664 144.5 678 c 128,-1,40
 158 692 158 692 190.5 692 c 128,-1,33
 223 692 223 692 233 678.5 c 128,-1,34
438 678.5 m 128,-1,42
 448 665 448 665 448 633.5 c 128,-1,43
 448 602 448 602 434.5 591 c 128,-1,44
 421 580 421 580 390 580 c 128,-1,45
 359 580 359 580 347.5 592 c 128,-1,46
 336 604 336 604 336 634 c 128,-1,47
 336 664 336 664 349.5 678 c 128,-1,48
 363 692 363 692 395.5 692 c 128,-1,41
 428 692 428 692 438 678.5 c 128,-1,42
EndSplineSet
EndChar

StartChar: degree
Encoding: 176 176 150
Width: 318
Flags: MW
HStem: 442 53<131 187 131 201.5> 677 53<131 187>
VStem: 12 58<558 614 558 628.5> 248 58<558 614>
LayerCount: 2
Fore
SplineSet
306 586 m 128,-1,1
 306 523 306 523 264.5 482.5 c 128,-1,2
 223 442 223 442 159 442 c 128,-1,3
 95 442 95 442 53.5 482.5 c 128,-1,4
 12 523 12 523 12 586 c 128,-1,5
 12 649 12 649 53.5 689.5 c 128,-1,6
 95 730 95 730 159 730 c 128,-1,7
 223 730 223 730 264.5 689.5 c 128,-1,0
 306 649 306 649 306 586 c 128,-1,1
248 586 m 128,-1,9
 248 628 248 628 224.5 652.5 c 128,-1,10
 201 677 201 677 159 677 c 128,-1,11
 117 677 117 677 93.5 652.5 c 128,-1,12
 70 628 70 628 70 586 c 128,-1,13
 70 544 70 544 93.5 519.5 c 128,-1,14
 117 495 117 495 159 495 c 128,-1,15
 201 495 201 495 224.5 519.5 c 128,-1,8
 248 544 248 544 248 586 c 128,-1,9
EndSplineSet
EndChar

StartChar: cent
Encoding: 162 162 151
Width: 480
Flags: MW
HStem: -38 194<225 289 218 300.5> 91 65<284 284> 514 66<233.5 281> 514 194<233.5 273>
VStem: 45 86<274 352.5 274 382.5> 217 69
LayerCount: 2
Fore
SplineSet
428 183 m 1,0,-1
 440 132 l 1,1,2
 393.846153846 108.923076923 393.846153846 108.923076923 349.423076923 100.461538462 c 128,-1,3
 305 92 305 92 284 91 c 1,4,-1
 289 -38 l 1,5,-1
 218 -38 l 1,6,-1
 223 92 l 1,7,8
 45 112 45 112 45 316 c 0,9,10
 45 417 45 417 91.5 486.5 c 128,-1,11
 138 556 138 556 220 574 c 1,12,-1
 215 708 l 1,13,-1
 286 708 l 1,14,-1
 281 580 l 1,15,16
 374 577 374 577 427 543 c 1,17,-1
 420 420 l 1,18,-1
 362 420 l 1,19,-1
 348 495 l 1,20,21
 314 514 314 514 248 514 c 0,22,23
 224 514 224 514 199 505 c 128,-1,24
 174 496 174 496 165 481 c 1,25,26
 131 433 131 433 131 321 c 0,27,28
 131 248 131 248 167.5 202 c 128,-1,29
 204 156 204 156 271 156 c 0,30,31
 320 156 320 156 428 183 c 1,0,-1
EndSplineSet
EndChar

StartChar: sterling
Encoding: 163 163 152
Width: 594
Flags: MW
HStem: -14 21G<84 84> -10 73<403 442 403 455> -10 169<402.5 529> 9 54 9 73<184.5 295> 282 60<62 144 62 144 62 149 236 236 236 376> 613 79<324 353.5>
VStem: 138 88<493 545.5 493 558.5> 155 83<178.5 181> 469 66
LayerCount: 2
Fore
SplineSet
62 282 m 1,0,-1
 62 342 l 1,1,-1
 144 342 l 1,2,3
 138 408 138 408 138 460.5 c 128,-1,4
 138 513 138 513 155 558.5 c 128,-1,5
 172 604 172 604 195.5 628.5 c 128,-1,6
 219 653 219 653 251.5 668 c 0,7,8
 303.5 692 303.5 692 358 692 c 0,9,10
 447 692 447 692 501 653 c 1,11,-1
 458 565 l 1,12,13
 394 613 394 613 324 613 c 0,14,15
 275 613 275 613 250.5 587 c 128,-1,16
 226 561 226 561 226 515.5 c 128,-1,17
 226 470 226 470 234 342 c 1,18,-1
 394 342 l 1,19,-1
 376 282 l 1,20,-1
 236 282 l 1,21,22
 238 230 238 230 238 205 c 0,23,24
 238 124 238 124 185 71 c 1,25,26
 231 82 231 82 262 82 c 128,-1,27
 293 82 293 82 347 72.5 c 128,-1,28
 401 63 401 63 424.5 63 c 0,29,30
 469 63 469 63 469 105 c 2,31,-1
 469 159 l 1,32,-1
 529 159 l 1,33,-1
 541 4 l 1,34,35
 519 -10 519 -10 460.5 -10 c 128,-1,36
 402 -10 402 -10 323.5 -0.5 c 128,-1,37
 245 9 245 9 200 9 c 128,-1,38
 155 9 155 9 84 -14 c 1,39,-1
 54 49 l 1,40,41
 81 53 81 53 118 75 c 128,-1,42
 155 97 155 97 155 168 c 0,43,44
 155 192 155 192 149 282 c 1,45,-1
 62 282 l 1,0,-1
EndSplineSet
EndChar

StartChar: bullet
Encoding: 8226 8226 153
Width: 382
Flags: MW
HStem: 243 218<154.5 221>
VStem: 82 218<307 379.5>
LayerCount: 2
Fore
SplineSet
281 433.5 m 128,-1,1
 300 406 300 406 300 345.5 c 128,-1,2
 300 285 300 285 272.5 264 c 128,-1,3
 245 243 245 243 176 243 c 0,4,5
 82 243 82 243 82 339 c 0,6,7
 82 404 82 404 107.5 432.5 c 128,-1,8
 133 461 133 461 197.5 461 c 128,-1,0
 262 461 262 461 281 433.5 c 128,-1,1
EndSplineSet
EndChar

StartChar: germandbls
Encoding: 223 223 154
Width: 598
Flags: MW
HStem: -5 21G<369.5 446> 0 57 460 20G<118 120 120 120> 720 70<285.5 344.5>
VStem: 120 79<98 418 418 418 480 550 550 606 0 631> 256 75<352 425 352 439> 425 83<535 655.5> 491 79<101.5 151>
LayerCount: 2
Fore
SplineSet
46 471 m 1,0,-1
 118 480 l 1,1,-1
 120 480 l 1,2,-1
 120 550 l 2,3,4
 120 669 120 669 176.5 729.5 c 128,-1,5
 233 790 233 790 336 790 c 0,6,7
 414 790 414 790 461 749.5 c 128,-1,8
 508 709 508 709 508 626 c 0,9,10
 508 583 508 583 495 550.5 c 128,-1,11
 482 518 482 518 462 501 c 128,-1,12
 442 484 442 484 419.5 468.5 c 128,-1,13
 397 453 397 453 377 443 c 0,14,15
 331 420 331 420 331 381 c 0,16,17
 331 345.933333333 331 345.933333333 346.5 332.5 c 0,18,19
 354 326 354 326 356.5 322.5 c 128,-1,20
 359 319 359 319 371.5 313 c 128,-1,21
 384 307 384 307 388 305 c 0,22,23
 406 296 406 296 457.5 273.5 c 128,-1,24
 509 251 509 251 539.5 224 c 128,-1,25
 570 197 570 197 570 145 c 0,26,27
 570 76 570 76 521 35.5 c 128,-1,28
 472 -5 472 -5 397.5 -5 c 128,-1,29
 323 -5 323 -5 249 30 c 1,30,-1
 255 151 l 1,31,-1
 311 151 l 1,32,-1
 319 78 l 1,33,34
 363 57 363 57 397 57 c 0,35,36
 491 57 491 57 491 130 c 0,37,38
 491 159 491 159 465 179 c 128,-1,39
 439 199 439 199 377 222 c 128,-1,40
 315 245 315 245 285.5 277.5 c 128,-1,41
 256 310 256 310 256 358 c 128,-1,42
 256 406 256 406 273.5 431 c 128,-1,43
 291 456 291 456 315.5 469 c 128,-1,44
 340 482 340 482 365 496 c 128,-1,45
 390 510 390 510 407.5 540.5 c 128,-1,46
 425 571 425 571 425 619 c 0,47,48
 425 720 425 720 308 720 c 0,49,50
 241 720 241 720 217 688 c 0,51,52
 199 664 199 664 199 606 c 2,53,-1
 199 0 l 1,54,-1
 40 0 l 1,55,-1
 40 54 l 1,56,-1
 97 60 l 2,57,58
 112 61 112 61 116 68.5 c 128,-1,59
 120 76 120 76 120 98 c 2,60,-1
 120 418 l 1,61,-1
 36 418 l 1,62,-1
 46 471 l 1,0,-1
EndSplineSet
EndChar

StartChar: registered
Encoding: 174 174 155
Width: 520
Flags: MW
HStem: 364 37<209 299.5 209 310.5> 451 230<169 254 254 255 169 254> 728 37<209 299.5>
VStem: 54 37<519 609.5 519 620.5> 194 33<488 543 575 641 641 645.5> 293 35<608 633.5> 418 37<519 609.5>
LayerCount: 2
Fore
SplineSet
112 422 m 128,-1,1
 54 480 54 480 54 564.5 c 128,-1,2
 54 649 54 649 112 707 c 128,-1,3
 170 765 170 765 254.5 765 c 128,-1,4
 339 765 339 765 397 707 c 128,-1,5
 455 649 455 649 455 564.5 c 128,-1,6
 455 480 455 480 397 422 c 128,-1,7
 339 364 339 364 254.5 364 c 128,-1,0
 170 364 170 364 112 422 c 128,-1,1
91 564 m 128,-1,9
 91 496 91 496 138.5 448.5 c 128,-1,10
 186 401 186 401 254 401 c 128,-1,11
 322 401 322 401 370 448.5 c 128,-1,12
 418 496 418 496 418 564 c 128,-1,13
 418 632 418 632 370 680 c 128,-1,14
 322 728 322 728 254 728 c 128,-1,15
 186 728 186 728 138.5 680 c 128,-1,8
 91 632 91 632 91 564 c 128,-1,9
253 575 m 2,16,17
 293 575 293 575 293 620 c 0,18,19
 293 639 293 639 281.5 646 c 128,-1,20
 270 653 270 653 246 653 c 2,21,-1
 227 653 l 1,22,-1
 227 575 l 1,23,-1
 253 575 l 2,16,17
227 543 m 1,24,-1
 227 488 l 2,25,26
 227 475 227 475 234 474 c 2,27,-1
 255 471 l 1,28,-1
 255 451 l 1,29,-1
 169 451 l 1,30,-1
 169 471 l 1,31,-1
 186 474 l 1,32,33
 194 477 194 477 194 488 c 2,34,-1
 194 641 l 2,35,36
 194 653 194 653 186 656 c 1,37,-1
 169 658 l 1,38,-1
 169 681 l 1,39,-1
 254 681 l 2,40,41
 328 681 328 681 328 618 c 0,42,43
 328 571 328 571 269 553 c 1,44,45
 281 550 281 550 294 531 c 2,46,-1
 322 493 l 2,47,48
 336 474 336 474 344 474 c 128,-1,49
 352 474 352 474 358 476 c 1,50,-1
 356 452 l 1,51,52
 341 449 341 449 331 449 c 0,53,54
 312 449 312 449 293 479 c 1,55,-1
 256 532 l 1,56,57
 250 543 250 543 233 543 c 2,58,-1
 227 543 l 1,24,-1
EndSplineSet
EndChar

StartChar: copyright
Encoding: 169 169 156
Width: 824
Flags: MW
HStem: -10 50<329 504 329 518.5> 152 60<387.5 448.5 387.5 450.5> 512 60<394.5 425.5> 680 50<329 504>
VStem: 47 50<272 447 272 461.5> 233 75<312 378 312 419> 737 50<272 447>
LayerCount: 2
Fore
SplineSet
155.5 98.5 m 128,-1,1
 47 207 47 207 47 360 c 128,-1,2
 47 513 47 513 155.5 621.5 c 128,-1,3
 264 730 264 730 417 730 c 128,-1,4
 570 730 570 730 678.5 621.5 c 128,-1,5
 787 513 787 513 787 360 c 128,-1,6
 787 207 787 207 678.5 98.5 c 128,-1,7
 570 -10 570 -10 417 -10 c 128,-1,0
 264 -10 264 -10 155.5 98.5 c 128,-1,1
191 585.5 m 128,-1,9
 97 491 97 491 97 359.5 c 128,-1,10
 97 228 97 228 191.5 134 c 128,-1,11
 286 40 286 40 417 40 c 128,-1,12
 548 40 548 40 642.5 134 c 128,-1,13
 737 228 737 228 737 359.5 c 128,-1,14
 737 491 737 491 642.5 585.5 c 128,-1,15
 548 680 548 680 416.5 680 c 128,-1,8
 285 680 285 680 191 585.5 c 128,-1,9
548 236 m 1,16,-1
 558 187 l 1,17,18
 556 186 556 186 543 181 c 128,-1,19
 530 176 530 176 518.5 171.5 c 128,-1,20
 507 167 507 167 490.5 162.5 c 0,21,22
 452 152 452 152 417 152 c 0,23,24
 327 152 327 152 280 204 c 128,-1,25
 233 256 233 256 233 354 c 128,-1,26
 233 452 233 452 285.5 512 c 128,-1,27
 338 572 338 572 428 572 c 0,28,29
 494 572 494 572 551 541 c 1,30,-1
 545 433 l 1,31,-1
 492 433 l 1,32,-1
 481 496 l 1,33,34
 453 512 453 512 404.5 512 c 128,-1,35
 356 512 356 512 337 484 c 0,36,37
 308 439 308 439 308 364 c 128,-1,38
 308 289 308 289 339 250.5 c 128,-1,39
 370 212 370 212 422 212 c 128,-1,40
 474 212 474 212 548 236 c 1,16,-1
EndSplineSet
EndChar

StartChar: acute
Encoding: 180 180 157
Width: 285
Flags: MW
HStem: 564 21G<72 86> 742 20G<191 191>
LayerCount: 2
Fore
SplineSet
191 762 m 1,0,-1
 249 702 l 1,1,-1
 112 578 l 2,2,3
 97 564 97 564 79 564 c 0,4,5
 61 564 61 564 35 586 c 1,6,-1
 191 762 l 1,0,-1
EndSplineSet
EndChar

StartChar: dieresis
Encoding: 168 168 158
Width: 547
Flags: MW
HStem: 590 112<153 187.5 358 392.5>
VStem: 115 112<623.5 661.5> 320 112<623.5 661.5>
LayerCount: 2
Fore
SplineSet
217 688.5 m 128,-1,1
 227 675 227 675 227 643.5 c 128,-1,2
 227 612 227 612 213.5 601 c 128,-1,3
 200 590 200 590 169 590 c 128,-1,4
 138 590 138 590 126.5 602 c 128,-1,5
 115 614 115 614 115 644 c 128,-1,6
 115 674 115 674 128.5 688 c 128,-1,7
 142 702 142 702 174.5 702 c 128,-1,0
 207 702 207 702 217 688.5 c 128,-1,1
422 688.5 m 128,-1,9
 432 675 432 675 432 643.5 c 128,-1,10
 432 612 432 612 418.5 601 c 128,-1,11
 405 590 405 590 374 590 c 128,-1,12
 343 590 343 590 331.5 602 c 128,-1,13
 320 614 320 614 320 644 c 128,-1,14
 320 674 320 674 333.5 688 c 128,-1,15
 347 702 347 702 379.5 702 c 128,-1,8
 412 702 412 702 422 688.5 c 128,-1,9
EndSplineSet
EndChar

StartChar: AE
Encoding: 198 198 159
Width: 929
Flags: MW
HStem: 0 73<550 773 773 785 550 890> 0 177<817 884 817 890> 304 70<550 769 550 769> 548 172<807 871 807 807> 647 73<438 438 550 763 550 550>
VStem: 467 83<107 303 303 303 374 607 607 619.5> 814 73
LayerCount: 2
Fore
SplineSet
259 664 m 1,0,-1
 259 720 l 1,1,-1
 877 720 l 1,2,-1
 871 548 l 1,3,-1
 807 548 l 1,4,-1
 801 618 l 2,5,6
 800 636 800 636 791 641.5 c 128,-1,7
 782 647 782 647 763 647 c 2,8,-1
 550 647 l 1,9,-1
 550 374 l 1,10,-1
 769 374 l 1,11,-1
 769 304 l 1,12,-1
 550 304 l 1,13,-1
 550 73 l 1,14,-1
 773 73 l 2,15,16
 792 73 792 73 801 78.5 c 128,-1,17
 810 84 810 84 811 102 c 2,18,-1
 817 177 l 1,19,-1
 884 177 l 1,20,-1
 890 0 l 1,21,-1
 385 0 l 1,22,-1
 385 60 l 1,23,-1
 438 69 l 2,24,25
 456 72 456 72 461.5 79.5 c 128,-1,26
 467 87 467 87 467 107 c 2,27,-1
 467 303 l 1,28,-1
 261 303 l 1,29,-1
 190 113 l 2,30,31
 185 100 185 100 185 92 c 0,32,33
 185 71 185 71 213 66 c 2,34,-1
 267 57 l 1,35,-1
 267 0 l 1,36,-1
 23 0 l 1,37,-1
 23 59 l 1,38,-1
 65 66 l 2,39,40
 85 70 85 70 94 78.5 c 128,-1,41
 103 87 103 87 112 112 c 2,42,-1
 322 656 l 1,43,44
 321 657 321 657 312 659 c 1,45,-1
 259 664 l 1,0,-1
467 373 m 1,46,-1
 467 607 l 2,47,48
 467 627 467 627 461.5 636.5 c 128,-1,49
 456 646 456 646 438 647 c 2,50,-1
 391 650 l 1,51,-1
 287 373 l 1,52,-1
 467 373 l 1,46,-1
EndSplineSet
EndChar

StartChar: Oslash
Encoding: 216 216 160
Width: 717
Flags: MW
HStem: -53 21G<194 194> -10 74<349.5 403.5 349.5 457.5> 656 74<313.5 365> 750 20G<511 511>
VStem: 42 97<304.5 399> 578 97<321 418>
LayerCount: 2
Fore
SplineSet
194 -53 m 1,0,-1
 139 -27 l 1,1,-1
 168 36 l 1,2,3
 42 122 42 122 42 360 c 0,4,5
 42 512.012658228 42 512.012658228 119.5 616 c 0,6,7
 159 669 159 669 226 699.5 c 128,-1,8
 293 730 293 730 366.5 730 c 128,-1,9
 440 730 440 730 485 715 c 1,10,-1
 511 770 l 1,11,-1
 566 744 l 1,12,-1
 540 689 l 1,13,14
 675 606 675 606 675 360 c 0,15,16
 675 207.987341772 675 207.987341772 597.5 104 c 0,17,18
 558 51 558 51 491 20.5 c 128,-1,19
 424 -10 424 -10 350 -10 c 128,-1,20
 276 -10 276 -10 222 8 c 1,21,-1
 194 -53 l 1,0,-1
578 366 m 0,22,23
 578 524 578 524 499 600 c 1,24,-1
 260 89 l 1,25,26
 308 64 308 64 371 64 c 0,27,28
 473 64 473 64 521 119 c 0,29,30
 546 148 546 148 562 221.5 c 128,-1,31
 578 295 578 295 578 366 c 0,22,23
346 656 m 0,32,33
 244 656 244 656 196 601 c 0,34,35
 171 572 171 572 155 498.5 c 128,-1,36
 139 425 139 425 139 354 c 0,37,38
 139 202 139 202 211 127 c 1,39,-1
 448 635 l 1,40,41
 403 656 403 656 346 656 c 0,32,33
EndSplineSet
EndChar

StartChar: plusminus
Encoding: 177 177 161
Width: 516
Flags: MW
HStem: 14 68<40 476 40 476> 309 68<40 221 40 221 289 476> 534 20G<221 289 289 289>
VStem: 221 68<138 309 377 554>
LayerCount: 2
Fore
SplineSet
289 138 m 1,0,-1
 221 138 l 1,1,-1
 221 309 l 1,2,-1
 40 309 l 1,3,-1
 40 377 l 1,4,-1
 221 377 l 1,5,-1
 221 554 l 1,6,-1
 289 554 l 1,7,-1
 289 377 l 1,8,-1
 476 377 l 1,9,-1
 476 309 l 1,10,-1
 289 309 l 1,11,-1
 289 138 l 1,0,-1
40 14 m 1,12,-1
 40 82 l 1,13,-1
 476 82 l 1,14,-1
 476 14 l 1,15,-1
 40 14 l 1,12,-1
EndSplineSet
EndChar

StartChar: yen
Encoding: 165 165 162
Width: 684
Flags: MW
HStem: 0 230<215 301 387 473 215 215> 170 60<194 301 194 301 184 301 387 494> 660 20G<17 286 286 286 407 655 655 655>
VStem: 301 86<106 170 93.5 170 230 254 254 254>
LayerCount: 2
Fore
SplineSet
567 574 m 1,0,-1
 387 272 l 1,1,-1
 387 230 l 1,2,-1
 504 230 l 1,3,-1
 494 170 l 1,4,-1
 387 170 l 1,5,-1
 387 106 l 2,6,7
 387 86 387 86 392.5 78.5 c 128,-1,8
 398 71 398 71 416 68 c 2,9,-1
 473 59 l 1,10,-1
 473 0 l 1,11,-1
 215 0 l 1,12,-1
 215 59 l 1,13,-1
 272 68 l 2,14,15
 290 71 290 71 295.5 78.5 c 128,-1,16
 301 86 301 86 301 106 c 2,17,-1
 301 170 l 1,18,-1
 184 170 l 1,19,-1
 194 230 l 1,20,-1
 301 230 l 1,21,-1
 301 254 l 1,22,-1
 115 574 l 2,23,24
 102 596 102 596 90 604.5 c 128,-1,25
 78 613 78 613 55 616 c 2,26,-1
 17 621 l 1,27,-1
 17 680 l 1,28,-1
 286 680 l 1,29,-1
 286 622 l 1,30,-1
 236 616 l 1,31,32
 204 611 204 611 204 597 c 0,33,34
 204 590 204 590 212 574 c 1,35,-1
 351 340 l 1,36,-1
 485 574 l 2,37,38
 492 587 492 587 492 595 c 0,39,40
 492 610 492 610 457 615 c 2,41,-1
 407 621 l 1,42,-1
 407 680 l 1,43,-1
 655 680 l 1,44,-1
 655 621 l 1,45,-1
 617 616 l 2,46,47
 597 613 597 613 588.5 605.5 c 128,-1,48
 580 598 580 598 567 574 c 1,0,-1
EndSplineSet
EndChar

StartChar: mu
Encoding: 181 181 163
AltUni2: 0003bc.ffffffff.0
Width: 605
Flags: MW
HStem: -250 21G<120 120> -10 74<244.5 292> 460 20G<100 179 179 179 412 491 491 491>
VStem: 100 59 100 79<177 480> 412 79<139 480>
LayerCount: 2
Fore
SplineSet
101 12 m 1,0,-1
 100 177 l 1,1,-1
 100 480 l 1,2,-1
 179 480 l 1,3,-1
 179 160 l 2,4,5
 179 64 179 64 277 64 c 0,6,7
 323 64 323 64 362 91.5 c 128,-1,8
 401 119 401 119 412 139 c 1,9,-1
 412 480 l 1,10,-1
 491 480 l 1,11,-1
 491 100 l 2,12,13
 491 55 491 55 538 55 c 0,14,15
 564 55 564 55 577 61 c 1,16,-1
 567 5 l 1,17,18
 531 -10 531 -10 504 -10 c 128,-1,19
 477 -10 477 -10 449 11 c 128,-1,20
 421 32 421 32 418 76 c 1,21,22
 345 -10 345 -10 254 -10 c 0,23,24
 199 -10 199 -10 159 22 c 1,25,26
 163 -74 163 -74 205 -227 c 1,27,-1
 120 -250 l 1,28,29
 101 -165 101 -165 101 12 c 1,0,-1
EndSplineSet
EndChar

StartChar: ordfeminine
Encoding: 170 170 164
Width: 328
Flags: MW
HStem: 325 56<32 299 32 299> 427 50<111.5 123> 691 39<132.5 160>
VStem: 25 58<501 525.5 501 533.5> 41 217 205 53<525 570 570 570 613 642 642 648>
LayerCount: 2
Fore
SplineSet
258 648 m 2,0,-1
 258 496 l 2,1,2
 258 484 258 484 260.5 479.5 c 128,-1,3
 263 475 263 475 272 474 c 2,4,-1
 304 470 l 1,5,-1
 304 433 l 1,6,-1
 213 433 l 1,7,-1
 208 480 l 1,8,9
 161 427 161 427 105 427 c 0,10,11
 69 427 69 427 47 449.5 c 128,-1,12
 25 472 25 472 25 509 c 128,-1,13
 25 546 25 546 47 569.5 c 128,-1,14
 69 593 69 593 111 599 c 2,15,-1
 205 613 l 1,16,-1
 205 642 l 2,17,18
 205 691 205 691 143 691 c 0,19,20
 122 691 122 691 88 678 c 1,21,-1
 80 635 l 1,22,-1
 43 635 l 1,23,-1
 39 709 l 1,24,25
 99 730 99 730 147 730 c 0,26,27
 195 730 195 730 226.5 710 c 128,-1,28
 258 690 258 690 258 648 c 2,0,-1
205 570 m 1,29,-1
 125 558 l 2,30,31
 83 551 83 551 83 513 c 0,32,33
 83 477 83 477 120 477 c 0,34,35
 157 477 157 477 205 525 c 1,36,-1
 205 570 l 1,29,-1
32 325 m 1,37,-1
 32 381 l 1,38,-1
 299 381 l 1,39,-1
 299 325 l 1,40,-1
 32 325 l 1,37,-1
EndSplineSet
EndChar

StartChar: ordmasculine
Encoding: 186 186 165
Width: 331
Flags: MW
HStem: 325 56<32 299 32 299> 427 45<142 183.5 142 210> 685 45<147.5 189>
VStem: 25 58<544 591.5 544 613> 248 58<565 612.5>
LayerCount: 2
Fore
SplineSet
32 325 m 1,0,-1
 32 381 l 1,1,-1
 299 381 l 1,2,-1
 299 325 l 1,3,-1
 32 325 l 1,0,-1
274.5 689 m 128,-1,5
 306 648 306 648 306 583 c 128,-1,6
 306 518 306 518 268.5 472.5 c 128,-1,7
 231 427 231 427 155 427 c 0,8,9
 25 427 25 427 25 578 c 0,10,11
 25 639 25 639 62.5 684.5 c 128,-1,12
 100 730 100 730 171.5 730 c 128,-1,4
 243 730 243 730 274.5 689 c 128,-1,5
225.5 657.5 m 128,-1,14
 203 685 203 685 162.5 685 c 128,-1,15
 122 685 122 685 106 669 c 0,16,17
 83 646 83 646 83 586.5 c 0,18,19
 83 472 83 472 171 472 c 0,20,21
 208.5 472 208.5 472 228.25 490.5 c 128,-1,22
 248 509 248 509 248 569.5 c 128,-1,13
 248 630 248 630 225.5 657.5 c 128,-1,14
EndSplineSet
EndChar

StartChar: ae
Encoding: 230 230 166
Width: 768
Flags: MW
HStem: -10 66<505.5 578 505.5 579> 424 66<510.5 587>
VStem: 35 83<105 148 105 157.5> 333 76<219 219 219 227 219 227 219 350> 650 79<300 318 242 330.5>
LayerCount: 2
Fore
SplineSet
729 242 m 1,0,-1
 409 219 l 1,1,2
 411 56 411 56 554 56 c 0,3,4
 624 56 624 56 711 85 c 1,5,-1
 725 36 l 1,6,7
 695.8 21.4 695.8 21.4 654.4 9.7 c 0,8,9
 584.692307692 -10 584.692307692 -10 526 -10 c 0,10,11
 399 -10 399 -10 354 76 c 1,12,13
 329 52 329 52 307 36 c 128,-1,14
 285 20 285 20 245 5 c 128,-1,15
 205 -10 205 -10 154.5 -10 c 128,-1,16
 104 -10 104 -10 69.5 25.5 c 128,-1,17
 35 61 35 61 35 118 c 128,-1,18
 35 175 35 175 66 210 c 128,-1,19
 97 245 97 245 144 254.5 c 128,-1,20
 191 264 191 264 261.5 273.5 c 128,-1,21
 332 283 332 283 333 283 c 1,22,-1
 333 350 l 2,23,24
 333 430 333 430 225 430 c 0,25,26
 179 430 179 430 137 411 c 1,27,-1
 123 338 l 1,28,-1
 65 338 l 1,29,-1
 58 453 l 1,30,31
 161 490 161 490 228 490 c 0,32,33
 342 490 342 490 387 425 c 1,34,35
 443 490 443 490 547 490 c 128,-1,36
 651 490 651 490 690 428.5 c 128,-1,37
 729 367 729 367 729 242 c 1,0,-1
408 279 m 1,38,-1
 650 300 l 1,39,40
 650 356 650 356 627 390 c 128,-1,41
 604 424 604 424 540 424 c 0,42,43
 498 424 498 424 475 418.5 c 128,-1,44
 452 413 452 413 437.5 394 c 128,-1,45
 423 375 423 375 418 351 c 128,-1,46
 413 327 413 327 408 279 c 1,38,-1
183 202 m 0,47,48
 118 189 118 189 118 126 c 0,49,50
 118 96 118 96 138 78.5 c 128,-1,51
 158 61 158 61 192 61 c 128,-1,52
 226 61 226 61 267.5 81.5 c 128,-1,53
 309 102 309 102 333 128 c 1,54,-1
 333 227 l 1,55,56
 330 226 330 226 306 222.5 c 0,57,58
 216.545454545 209.454545455 216.545454545 209.454545455 183 202 c 0,47,48
EndSplineSet
EndChar

StartChar: oslash
Encoding: 248 248 167
Width: 543
Flags: MW
HStem: -54 21G<150 150> -10 66<266 302.5 266 345> 424 66<240.5 271.5> 512 20G<363 363>
VStem: 40 86<208.5 262.5> 417 86<217.5 277.5>
LayerCount: 2
Fore
SplineSet
150 -54 m 1,0,-1
 100 -31 l 1,1,-1
 126 25 l 1,2,3
 40 86 40 86 40 240 c 0,4,5
 40 334 40 334 96 408 c 0,6,7
 124 445 124 445 173.5 467.5 c 128,-1,8
 223 490 223 490 288 490 c 0,9,10
 313 490 313 490 341 485 c 1,11,-1
 363 532 l 1,12,-1
 413 509 l 1,13,-1
 394 468 l 1,14,15
 503 414 503 414 503 240 c 0,16,17
 503 146 503 146 447 72 c 0,18,19
 419 35 419 35 369.5 12.5 c 128,-1,20
 320 -10 320 -10 266 -10 c 128,-1,21
 212 -10 212 -10 176 1 c 1,22,-1
 150 -54 l 1,0,-1
417 244 m 0,23,24
 417 347 417 347 359 393 c 1,25,-1
 208 71 l 1,26,27
 240 56 240 56 280 56 c 0,28,29
 347 56 347 56 371.5 80.5 c 128,-1,30
 396 105 396 105 406.5 151.5 c 128,-1,31
 417 198 417 198 417 244 c 0,23,24
263 424 m 0,32,33
 196 424 196 424 171.5 399.5 c 128,-1,34
 147 375 147 375 136.5 328.5 c 128,-1,35
 126 282 126 282 126 236 c 0,36,37
 126 153 126 153 164 106 c 1,38,-1
 310 418 l 1,39,40
 288 424 288 424 263 424 c 0,32,33
EndSplineSet
EndChar

StartChar: questiondown
Encoding: 191 191 168
Width: 439
Flags: MW
HStem: -249 59<180.5 246.5 180.5 266> -249 159<159.5 400> 367 124<262 301.5>
VStem: 38 81<-119 -20 -119 9.5> 221 124<402 447.5> 254 75<115 211>
LayerCount: 2
Fore
SplineSet
119 -97 m 0,0,1
 119 -190 119 -190 225 -190 c 0,2,3
 275 -190 275 -190 326 -169 c 1,4,-1
 336 -90 l 1,5,-1
 400 -90 l 1,6,-1
 411 -217 l 1,7,8
 315 -249 315 -249 222.5 -249 c 128,-1,9
 130 -249 130 -249 84 -207 c 128,-1,10
 38 -165 38 -165 38 -97 c 0,11,12
 38 -47 38 -47 53.5 -8.5 c 128,-1,13
 69 30 69 30 92.5 52 c 128,-1,14
 116 74 116 74 143.5 94 c 128,-1,15
 171 114 171 114 195 128 c 0,16,17
 250.087248322 160.134228188 250.087248322 160.134228188 254 211 c 2,18,-1
 259 298 l 1,19,-1
 319 305 l 1,20,-1
 324 257 l 2,21,22
 329 209 329 209 329 177 c 128,-1,23
 329 145 329 145 313.5 123 c 128,-1,24
 298 101 298 101 274.5 86 c 128,-1,25
 251 71 251 71 224 52.5 c 128,-1,26
 197 34 197 34 173.5 16 c 128,-1,27
 150 -2 150 -2 134.5 -31.5 c 128,-1,28
 119 -61 119 -61 119 -97 c 0,0,1
335 477 m 128,-1,30
 345 463 345 463 345 426.5 c 128,-1,31
 345 390 345 390 330.5 378.5 c 128,-1,32
 316 367 316 367 280 367 c 128,-1,33
 244 367 244 367 232.5 379 c 128,-1,34
 221 391 221 391 221 426.5 c 128,-1,35
 221 462 221 462 235 476.5 c 128,-1,36
 249 491 249 491 287 491 c 128,-1,29
 325 491 325 491 335 477 c 128,-1,30
EndSplineSet
EndChar

StartChar: exclamdown
Encoding: 161 161 169
Width: 323
Flags: MW
HStem: -240 21G<113 212 113 113> 360 130<149.5 184.5 131.5 191.5>
VStem: 100 130<401 440.5 401 442.5> 124 77
LayerCount: 2
Fore
SplineSet
100 423 m 128,-1,1
 100 457 100 457 111 473.5 c 128,-1,2
 122 490 122 490 159.5 490 c 0,3,4
 197 490 197 490 213.5 472 c 128,-1,5
 230 454 230 454 230 423 c 0,6,7
 230 392 230 392 215 376 c 128,-1,8
 200 360 200 360 168 360 c 0,9,10
 136 360 136 360 118 374.5 c 128,-1,0
 100 389 100 389 100 423 c 128,-1,1
117 -78 m 1,11,-1
 132 306 l 1,12,-1
 193 306 l 1,13,-1
 209 -78 l 1,14,-1
 212 -240 l 1,15,-1
 113 -240 l 1,16,-1
 117 -78 l 1,11,-1
EndSplineSet
EndChar

StartChar: florin
Encoding: 402 402 170
Width: 401
Flags: MW
HStem: -222 21G<51 51> 343 67 685 70<273.5 322>
VStem: 145 82<59 343 405 555 555 611>
LayerCount: 2
Fore
SplineSet
63 397 m 1,0,-1
 143 405 l 1,1,-1
 145 405 l 1,2,-1
 145 555 l 2,3,4
 145 653 145 653 194.5 704 c 128,-1,5
 244 755 244 755 328 755 c 0,6,7
 386 755 386 755 436 726 c 1,8,-1
 402 652 l 1,9,10
 400 653 400 653 388.5 659 c 128,-1,11
 377 665 377 665 370 668 c 128,-1,12
 363 671 363 671 350.5 676 c 0,13,14
 328 685 328 685 294.5 685 c 128,-1,15
 261 685 261 685 244 665 c 128,-1,16
 227 645 227 645 227 611 c 2,17,-1
 227 405 l 1,18,-1
 355 415 l 1,19,-1
 345 343 l 1,20,-1
 227 343 l 1,21,-1
 227 11 l 2,22,23
 227 -96 227 -96 192.5 -141 c 128,-1,24
 158 -186 158 -186 51 -222 c 1,25,-1
 10 -171 l 1,26,27
 44 -158 44 -158 66.5 -147 c 128,-1,28
 89 -136 89 -136 104.5 -120 c 128,-1,29
 120 -104 120 -104 128 -92 c 128,-1,30
 136 -80 136 -80 140 -52.5 c 0,31,32
 145 -18.125 145 -18.125 145 59 c 2,33,-1
 145 343 l 1,34,-1
 63 343 l 1,35,-1
 63 397 l 1,0,-1
EndSplineSet
EndChar

StartChar: guillemotleft
Encoding: 171 171 171
Width: 489
Flags: MW
HStem: 44 21G<205 205 382 382> 410 20G<205 205 382 382>
LayerCount: 2
Fore
SplineSet
205 44 m 1,0,-1
 56 237 l 1,1,-1
 205 430 l 1,2,3
 209 426 209 426 215 419.5 c 128,-1,4
 221 413 221 413 225 409 c 0,5,6
 235 399 235 399 235 387 c 128,-1,7
 235 375 235 375 227 360 c 1,8,-1
 150 237 l 1,9,-1
 227 114 l 1,10,11
 235 99 235 99 235 90 c 128,-1,12
 235 81 235 81 231.5 74 c 128,-1,13
 228 67 228 67 225.5 64 c 128,-1,14
 223 61 223 61 214.5 53 c 128,-1,15
 206 45 206 45 205 44 c 1,0,-1
382 44 m 1,16,-1
 233 237 l 1,17,-1
 382 430 l 1,18,19
 386 426 386 426 392 419.5 c 128,-1,20
 398 413 398 413 402 409 c 0,21,22
 412 399 412 399 412 387 c 128,-1,23
 412 375 412 375 404 360 c 1,24,-1
 327 237 l 1,25,-1
 404 114 l 1,26,27
 412 99 412 99 412 90 c 128,-1,28
 412 81 412 81 408.5 74 c 128,-1,29
 405 67 405 67 402.5 64 c 128,-1,30
 400 61 400 61 391.5 53 c 128,-1,31
 383 45 383 45 382 44 c 1,16,-1
EndSplineSet
EndChar

StartChar: guillemotright
Encoding: 187 187 172
Width: 489
Flags: MW
HStem: 44 21G<107 107 284 284> 410 20G<107 107 284 284>
LayerCount: 2
Fore
SplineSet
433 237 m 1,0,-1
 284 44 l 1,1,2
 283 45 283 45 274.5 53 c 128,-1,3
 266 61 266 61 263.5 64 c 0,4,5
 254 75.4 254 75.4 254 87.2 c 128,-1,6
 254 99 254 99 262 114 c 1,7,-1
 339 237 l 1,8,-1
 262 360 l 1,9,10
 254 375 254 375 254 384.5 c 128,-1,11
 254 394 254 394 258 400.5 c 128,-1,12
 262 407 262 407 271.5 416.5 c 128,-1,13
 281 426 281 426 284 430 c 1,14,-1
 433 237 l 1,0,-1
256 237 m 1,15,-1
 107 44 l 1,16,17
 106 45 106 45 97.5 53 c 128,-1,18
 89 61 89 61 86.5 64 c 0,19,20
 77 75.4 77 75.4 77 87.2 c 128,-1,21
 77 99 77 99 85 114 c 1,22,-1
 162 237 l 1,23,-1
 85 360 l 1,24,25
 77 375 77 375 77 384.5 c 128,-1,26
 77 394 77 394 81 400.5 c 128,-1,27
 85 407 85 407 94.5 416.5 c 128,-1,28
 104 426 104 426 107 430 c 1,29,-1
 256 237 l 1,15,-1
EndSplineSet
EndChar

StartChar: ellipsis
Encoding: 8230 8230 173
Width: 700
Flags: MW
HStem: -6 133<94.5 135.5 328.5 369.5 561.5 602.5>
VStem: 50 133<33.5 78> 284 133<33.5 78> 517 133<33.5 78>
LayerCount: 2
Fore
SplineSet
172 110.5 m 128,-1,1
 183 94 183 94 183 57 c 128,-1,2
 183 20 183 20 167 7 c 128,-1,3
 151 -6 151 -6 114.5 -6 c 128,-1,4
 78 -6 78 -6 64 8.5 c 128,-1,5
 50 23 50 23 50 58 c 128,-1,6
 50 93 50 93 65.5 110 c 128,-1,7
 81 127 81 127 121 127 c 128,-1,0
 161 127 161 127 172 110.5 c 128,-1,1
406 110.5 m 128,-1,9
 417 94 417 94 417 57 c 128,-1,10
 417 20 417 20 401 7 c 128,-1,11
 385 -6 385 -6 348.5 -6 c 128,-1,12
 312 -6 312 -6 298 8.5 c 128,-1,13
 284 23 284 23 284 58 c 128,-1,14
 284 93 284 93 299.5 110 c 128,-1,15
 315 127 315 127 355 127 c 128,-1,8
 395 127 395 127 406 110.5 c 128,-1,9
639 110.5 m 128,-1,17
 650 94 650 94 650 57 c 128,-1,18
 650 20 650 20 634 7 c 128,-1,19
 618 -6 618 -6 581.5 -6 c 128,-1,20
 545 -6 545 -6 531 8.5 c 128,-1,21
 517 23 517 23 517 58 c 128,-1,22
 517 93 517 93 532.5 110 c 128,-1,23
 548 127 548 127 588 127 c 128,-1,16
 628 127 628 127 639 110.5 c 128,-1,17
EndSplineSet
EndChar

StartChar: Agrave
Encoding: 192 192 174
Width: 663
Flags: MW
HStem: 0 21G<-15 225 -15 -15 422 679 422 422> 237 70<214 430 214 455 190 430> 720 34<332 346 332 378 332 378> 915 20G<205 205>
LayerCount: 2
Fore
SplineSet
156 868 m 1,0,-1
 205 935 l 1,1,-1
 384 783 l 1,2,3
 359 754 359 754 336 754 c 0,4,5
 325 754 325 754 309 764 c 2,6,-1
 156 868 l 1,0,-1
70 112 m 2,7,-1
 285 720 l 1,8,-1
 378 720 l 1,9,-1
 592 112 l 2,10,11
 601 87 601 87 610.5 78.5 c 128,-1,12
 620 70 620 70 640 66 c 2,13,-1
 679 59 l 1,14,-1
 679 0 l 1,15,-1
 422 0 l 1,16,-1
 422 57 l 1,17,-1
 477 66 l 2,18,19
 503 70 503 70 503 90 c 0,20,21
 503 99 503 99 499 110 c 2,22,-1
 455 237 l 1,23,-1
 190 237 l 1,24,-1
 148 113 l 2,25,26
 144 102 144 102 144 92 c 0,27,28
 144 70 144 70 171 66 c 2,29,-1
 225 57 l 1,30,-1
 225 0 l 1,31,-1
 -15 0 l 1,32,-1
 -15 59 l 1,33,-1
 23 66 l 2,34,35
 43 70 43 70 52 78.5 c 128,-1,36
 61 87 61 87 70 112 c 2,7,-1
333 589 m 1,37,-1
 322 634 l 1,38,-1
 311 589 l 1,39,-1
 214 307 l 1,40,-1
 430 307 l 1,41,-1
 333 589 l 1,37,-1
EndSplineSet
EndChar

StartChar: Atilde
Encoding: 195 195 175
Width: 663
Flags: MW
HStem: 0 21G<-15 225 -15 -15 422 679 422 422> 237 70<214 430 214 455 190 430> 700 20G<285 378 378 378> 774 71<380.5 413 380.5 413> 811 34
LayerCount: 2
Fore
SplineSet
70 112 m 2,0,-1
 285 720 l 1,1,-1
 378 720 l 1,2,-1
 592 112 l 2,3,4
 601 87 601 87 610.5 78.5 c 128,-1,5
 620 70 620 70 640 66 c 2,6,-1
 679 59 l 1,7,-1
 679 0 l 1,8,-1
 422 0 l 1,9,-1
 422 57 l 1,10,-1
 477 66 l 2,11,12
 503 70 503 70 503 90 c 0,13,14
 503 99 503 99 499 110 c 2,15,-1
 455 237 l 1,16,-1
 190 237 l 1,17,-1
 148 113 l 2,18,19
 144 102 144 102 144 92 c 0,20,21
 144 70 144 70 171 66 c 2,22,-1
 225 57 l 1,23,-1
 225 0 l 1,24,-1
 -15 0 l 1,25,-1
 -15 59 l 1,26,-1
 23 66 l 2,27,28
 43 70 43 70 52 78.5 c 128,-1,29
 61 87 61 87 70 112 c 2,0,-1
333 589 m 1,30,-1
 322 634 l 1,31,-1
 311 589 l 1,32,-1
 214 307 l 1,33,-1
 430 307 l 1,34,-1
 333 589 l 1,30,-1
323.5 792.5 m 128,-1,36
 279 811 279 811 253 811 c 128,-1,37
 227 811 227 811 189 780 c 1,38,-1
 174 822 l 1,39,40
 215 880 215 880 264 880 c 0,41,42
 294 880 294 880 338 862.5 c 128,-1,43
 382 845 382 845 409 845 c 128,-1,44
 436 845 436 845 468 872 c 1,45,-1
 484 832 l 1,46,47
 444 774 444 774 395 774 c 0,48,35
 368 774 368 774 323.5 792.5 c 128,-1,36
EndSplineSet
EndChar

StartChar: Otilde
Encoding: 213 213 176
Width: 717
Flags: MW
HStem: -10 74<296 403.5 296 457.5> 656 74<313.5 421> 774 71<410.5 443 410.5 443> 811 34
VStem: 42 97<264 399 264 455> 578 97<321 456>
LayerCount: 2
Fore
SplineSet
647 552 m 128,-1,1
 675 472 675 472 675 379 c 128,-1,2
 675 286 675 286 656 221.5 c 128,-1,3
 637 157 637 157 597.5 104 c 128,-1,4
 558 51 558 51 491 20.5 c 128,-1,5
 424 -10 424 -10 328 -10 c 128,-1,6
 232 -10 232 -10 165 39 c 128,-1,7
 98 88 98 88 70 168 c 128,-1,8
 42 248 42 248 42 341 c 128,-1,9
 42 434 42 434 61 498.5 c 128,-1,10
 80 563 80 563 119.5 616 c 128,-1,11
 159 669 159 669 226 699.5 c 128,-1,12
 293 730 293 730 389 730 c 128,-1,13
 485 730 485 730 552 681 c 128,-1,0
 619 632 619 632 647 552 c 128,-1,1
517.5 579 m 128,-1,15
 457 656 457 656 350.5 656 c 128,-1,16
 244 656 244 656 196 601 c 0,17,18
 171 572 171 572 155 498.5 c 128,-1,19
 139 425 139 425 139 354 c 0,20,21
 139 218 139 218 199.5 141 c 128,-1,22
 260 64 260 64 366.5 64 c 128,-1,23
 473 64 473 64 521 119 c 0,24,25
 546 148 546 148 562 221.5 c 128,-1,26
 578 295 578 295 578 366 c 0,27,14
 578 502 578 502 517.5 579 c 128,-1,15
353.5 792.5 m 128,-1,29
 309 811 309 811 283 811 c 128,-1,30
 257 811 257 811 219 780 c 1,31,-1
 204 822 l 1,32,33
 245 880 245 880 294 880 c 0,34,35
 324 880 324 880 368 862.5 c 128,-1,36
 412 845 412 845 439 845 c 128,-1,37
 466 845 466 845 498 872 c 1,38,-1
 514 832 l 1,39,40
 474 774 474 774 425 774 c 0,41,28
 398 774 398 774 353.5 792.5 c 128,-1,29
EndSplineSet
EndChar

StartChar: OE
Encoding: 338 338 177
Width: 1015
Flags: MW
HStem: -10 83 -10 187 0 21G<563 985 563 563> 329 73<646 855 646 855> 548 172<907 971 907 907> 647 73<646 863 646 646> 710 20G<257.5 423>
VStem: 42 97<264 399 264 455> 556 90<308 329 402 466.5> 909 73
LayerCount: 2
Fore
SplineSet
985 0 m 1,0,-1
 563 0 l 1,1,-1
 563 91 l 1,2,3
 486 -10 486 -10 335 -10 c 0,4,5
 232 -10 232 -10 165 39 c 128,-1,6
 98 88 98 88 70 168 c 128,-1,7
 42 248 42 248 42 341.5 c 0,8,9
 42 435 42 435 60.5 498.5 c 128,-1,10
 79 562 79 562 117.5 615.5 c 128,-1,11
 156 669 156 669 224 699.5 c 128,-1,12
 292 730 292 730 383 730 c 0,13,14
 499 730 499 730 562 648 c 1,15,-1
 562 720 l 1,16,-1
 977 720 l 1,17,-1
 971 548 l 1,18,-1
 907 548 l 1,19,-1
 901 618 l 2,20,21
 900 636 900 636 891 641.5 c 128,-1,22
 882 647 882 647 863 647 c 2,23,-1
 646 647 l 1,24,-1
 646 402 l 1,25,-1
 855 402 l 1,26,-1
 855 329 l 1,27,-1
 646 329 l 1,28,-1
 646 73 l 1,29,-1
 868 73 l 2,30,31
 887 73 887 73 896 78.5 c 128,-1,32
 905 84 905 84 906 102 c 2,33,-1
 912 177 l 1,34,-1
 979 177 l 1,35,-1
 985 0 l 1,0,-1
336 656 m 0,36,37
 244 656 244 656 196 601 c 0,38,39
 171 572 171 572 155 498.5 c 128,-1,40
 139 425 139 425 139 354 c 0,41,42
 139 218 139 218 199.5 141 c 128,-1,43
 260 64 260 64 371 64 c 0,44,45
 460 64 460 64 515 127 c 1,46,47
 556 198 556 198 556 381 c 0,48,49
 556 518 556 518 506.5 587 c 128,-1,50
 457 656 457 656 336 656 c 0,36,37
EndSplineSet
EndChar

StartChar: oe
Encoding: 339 339 178
Width: 854
Flags: MW
HStem: -10 66<230 300 591.5 664> 424 66<240.5 313 591 673>
VStem: 40 86<180.5 262.5 180.5 297.5> 417 76<219 219 219 299.5> 736 79<300 318 242 330.5>
LayerCount: 2
Fore
SplineSet
815 242 m 1,0,-1
 493 219 l 1,1,2
 498 56 498 56 640 56 c 0,3,4
 710 56 710 56 797 85 c 1,5,-1
 811 36 l 1,6,7
 781.8 21.4 781.8 21.4 740.4 9.7 c 0,8,9
 670.692307692 -10 670.692307692 -10 612 -10 c 0,10,11
 497 -10 497 -10 444 73 c 1,12,13
 381 -10 381 -10 262.5 -10 c 128,-1,14
 144 -10 144 -10 92 57 c 128,-1,15
 40 124 40 124 40 240 c 0,16,17
 40 334 40 334 96 408 c 0,18,19
 124 445 124 445 173.5 467.5 c 128,-1,20
 223 490 223 490 288 490 c 0,21,22
 408 490 408 490 456 408 c 1,23,24
 515 490 515 490 626 490 c 128,-1,25
 737 490 737 490 776 428.5 c 128,-1,26
 815 367 815 367 815 242 c 1,0,-1
377 376 m 128,-1,28
 337 424 337 424 266.5 424 c 128,-1,29
 196 424 196 424 171.5 399.5 c 128,-1,30
 147 375 147 375 136.5 328.5 c 128,-1,31
 126 282 126 282 126 236 c 0,32,33
 126 152 126 152 166 104 c 128,-1,34
 206 56 206 56 276.5 56 c 128,-1,35
 347 56 347 56 371.5 80.5 c 128,-1,36
 396 105 396 105 406.5 151.5 c 128,-1,37
 417 198 417 198 417 244 c 0,38,27
 417 328 417 328 377 376 c 128,-1,28
492 279 m 1,39,-1
 736 300 l 1,40,41
 736 356 736 356 713 390 c 128,-1,42
 690 424 690 424 618.5 424 c 128,-1,43
 547 424 547 424 524.5 397 c 128,-1,44
 502 370 502 370 492 279 c 1,39,-1
EndSplineSet
EndChar

StartChar: endash
Encoding: 8211 8211 179
Width: 448
Flags: MW
HStem: 221 64<0 448 0 448>
LayerCount: 2
Fore
SplineSet
0 221 m 1,0,-1
 0 285 l 1,1,-1
 448 285 l 1,2,-1
 448 221 l 1,3,-1
 0 221 l 1,0,-1
EndSplineSet
EndChar

StartChar: emdash
Encoding: 8212 8212 180
Width: 896
Flags: MW
HStem: 221 64<0 896 0 896>
LayerCount: 2
Fore
SplineSet
0 221 m 1,0,-1
 0 285 l 1,1,-1
 896 285 l 1,2,-1
 896 221 l 1,3,-1
 0 221 l 1,0,-1
EndSplineSet
EndChar

StartChar: quotedblleft
Encoding: 8220 8220 181
Width: 420
Flags: MW
HStem: 529 21G<91 135.5 281 325.5> 770 20G<161 161 351 351>
VStem: 49 131<593 609.5 567 656> 239 131<593 609.5 567 656>
LayerCount: 2
Fore
SplineSet
49 616 m 0,0,1
 49 672 49 672 83.5 720 c 128,-1,2
 118 768 118 768 161 790 c 1,3,-1
 193 756 l 1,4,5
 165 739 165 739 140 710 c 128,-1,6
 115 681 115 681 115 653 c 1,7,8
 149 649 149 649 164.5 634 c 128,-1,9
 180 619 180 619 180 589 c 0,10,11
 180 529 180 529 118 529 c 0,12,13
 49 529 49 529 49 616 c 0,0,1
239 616 m 0,14,15
 239 672 239 672 273.5 720 c 128,-1,16
 308 768 308 768 351 790 c 1,17,-1
 383 756 l 1,18,19
 355 739 355 739 330 710 c 128,-1,20
 305 681 305 681 305 653 c 1,21,22
 339 649 339 649 354.5 634 c 128,-1,23
 370 619 370 619 370 589 c 0,24,25
 370 529 370 529 308 529 c 0,26,27
 239 529 239 529 239 616 c 0,14,15
EndSplineSet
EndChar

StartChar: quotedblright
Encoding: 8221 8221 182
Width: 419
Flags: MW
HStem: 529 21G<69 69 259 259> 770 20G<94.5 139 284.5 329>
VStem: 50 131<709.5 726 663 752> 240 131<709.5 726 663 752>
LayerCount: 2
Fore
SplineSet
371 703 m 0,0,1
 371 647 371 647 336.5 599 c 128,-1,2
 302 551 302 551 259 529 c 1,3,-1
 227 563 l 1,4,5
 255 580 255 580 280 609 c 128,-1,6
 305 638 305 638 305 666 c 1,7,8
 271 670 271 670 255.5 685 c 128,-1,9
 240 700 240 700 240 730 c 0,10,11
 240 790 240 790 302 790 c 0,12,13
 371 790 371 790 371 703 c 0,0,1
181 703 m 0,14,15
 181 647 181 647 146.5 599 c 128,-1,16
 112 551 112 551 69 529 c 1,17,-1
 37 563 l 1,18,19
 65 580 65 580 90 609 c 128,-1,20
 115 638 115 638 115 666 c 1,21,22
 81 670 81 670 65.5 685 c 128,-1,23
 50 700 50 700 50 730 c 0,24,25
 50 790 50 790 112 790 c 0,26,27
 181 790 181 790 181 703 c 0,14,15
EndSplineSet
EndChar

StartChar: quoteleft
Encoding: 8216 8216 183
Width: 230
Flags: MW
HStem: 529 21G<91 135.5> 770 20G<161 161>
VStem: 49 131<593 609.5 567 656>
LayerCount: 2
Fore
SplineSet
49 616 m 0,0,1
 49 672 49 672 83.5 720 c 128,-1,2
 118 768 118 768 161 790 c 1,3,-1
 193 756 l 1,4,5
 165 739 165 739 140 710 c 128,-1,6
 115 681 115 681 115 653 c 1,7,8
 149 649 149 649 164.5 634 c 128,-1,9
 180 619 180 619 180 589 c 0,10,11
 180 529 180 529 118 529 c 0,12,13
 49 529 49 529 49 616 c 0,0,1
EndSplineSet
EndChar

StartChar: quoteright
Encoding: 8217 8217 184
Width: 229
Flags: MW
HStem: 529 21G<69 69> 770 20G<94.5 139>
VStem: 50 131<709.5 726 663 752>
LayerCount: 2
Fore
SplineSet
181 703 m 0,0,1
 181 647 181 647 146.5 599 c 128,-1,2
 112 551 112 551 69 529 c 1,3,-1
 37 563 l 1,4,5
 65 580 65 580 90 609 c 128,-1,6
 115 638 115 638 115 666 c 1,7,8
 81 670 81 670 65.5 685 c 128,-1,9
 50 700 50 700 50 730 c 0,10,11
 50 790 50 790 112 790 c 0,12,13
 181 790 181 790 181 703 c 0,0,1
EndSplineSet
EndChar

StartChar: divide
Encoding: 247 247 185
Width: 516
Flags: MW
HStem: 5 114<236.5 270.5> 203 65<40 476 40 476> 362 114<236.5 270.5>
VStem: 198 114<39 76.5 396 433.5>
LayerCount: 2
Fore
SplineSet
302.5 105.5 m 128,-1,1
 312 92 312 92 312 59.5 c 128,-1,2
 312 27 312 27 297.5 16 c 128,-1,3
 283 5 283 5 248 5 c 0,4,5
 198 5 198 5 198 56 c 0,6,7
 198 89 198 89 211.5 104 c 128,-1,8
 225 119 225 119 259 119 c 128,-1,0
 293 119 293 119 302.5 105.5 c 128,-1,1
302.5 462.5 m 128,-1,10
 312 449 312 449 312 416.5 c 128,-1,11
 312 384 312 384 297.5 373 c 128,-1,12
 283 362 283 362 248 362 c 0,13,14
 198 362 198 362 198 413 c 0,15,16
 198 446 198 446 211.5 461 c 128,-1,17
 225 476 225 476 259 476 c 128,-1,9
 293 476 293 476 302.5 462.5 c 128,-1,10
40 203 m 1,18,-1
 40 268 l 1,19,-1
 476 268 l 1,20,-1
 476 203 l 1,21,-1
 40 203 l 1,18,-1
EndSplineSet
EndChar

StartChar: ydieresis
Encoding: 255 255 186
Width: 523
Flags: MW
HStem: -250 63<89 103 62.5 138.5> 460 20G<-14 218 218 218 307 526 526 526> 580 112<139 173.5 344 378.5>
VStem: 101 112<613.5 651.5> 306 112<613.5 651.5>
LayerCount: 2
Fore
SplineSet
482 422 m 2,0,1
 463.043478261 420.104347826 463.043478261 420.104347826 453 396 c 0,2,3
 448 384 448 384 254 -130 c 1,4,5
 211 -250 211 -250 105 -250 c 0,6,7
 49 -250 49 -250 15 -238 c 1,8,-1
 5 -179 l 1,9,10
 56 -187 56 -187 77 -187 c 0,11,12
 116 -187 116 -187 147.5 -160.5 c 128,-1,13
 179 -134 179 -134 197 -85 c 2,14,-1
 220 -22 l 1,15,-1
 64 384 l 2,16,17
 60 392 60 392 59 396 c 128,-1,18
 58 400 58 400 56.5 403.5 c 128,-1,19
 55 407 55 407 54 408.5 c 128,-1,20
 53 410 53 410 51 412.5 c 128,-1,21
 49 415 49 415 47 416 c 128,-1,22
 45 417 45 417 42.5 418.5 c 0,23,24
 36.6666666667 422 36.6666666667 422 30 422 c 2,25,-1
 -14 428 l 1,26,-1
 -14 480 l 1,27,-1
 218 480 l 1,28,-1
 218 429 l 1,29,-1
 167 423 l 2,30,31
 144 420 144 420 144 406 c 0,32,33
 144 399 144 399 150 384 c 2,34,-1
 265 76 l 1,35,-1
 377 384 l 2,36,37
 382 399 382 399 382 405 c 0,38,39
 382 420 382 420 358 423 c 2,40,-1
 307 429 l 1,41,-1
 307 480 l 1,42,-1
 526 480 l 1,43,-1
 526 428 l 1,44,-1
 482 422 l 2,0,1
203 678.5 m 128,-1,46
 213 665 213 665 213 633.5 c 128,-1,47
 213 602 213 602 199.5 591 c 128,-1,48
 186 580 186 580 155 580 c 128,-1,49
 124 580 124 580 112.5 592 c 128,-1,50
 101 604 101 604 101 634 c 128,-1,51
 101 664 101 664 114.5 678 c 128,-1,52
 128 692 128 692 160.5 692 c 128,-1,45
 193 692 193 692 203 678.5 c 128,-1,46
408 678.5 m 128,-1,54
 418 665 418 665 418 633.5 c 128,-1,55
 418 602 418 602 404.5 591 c 128,-1,56
 391 580 391 580 360 580 c 128,-1,57
 329 580 329 580 317.5 592 c 128,-1,58
 306 604 306 604 306 634 c 128,-1,59
 306 664 306 664 319.5 678 c 128,-1,60
 333 692 333 692 365.5 692 c 128,-1,53
 398 692 398 692 408 678.5 c 128,-1,54
EndSplineSet
EndChar

StartChar: Ydieresis
Encoding: 376 376 187
Width: 670
Flags: MW
HStem: 0 21G<206 464 206 206> 700 20G<-4 265 265 265 420 668 668 668> 780 112<218 252.5 423 457.5>
VStem: 180 112<813.5 851.5> 292 86<106 254 254 254> 385 112<813.5 851.5>
LayerCount: 2
Fore
SplineSet
292 254 m 1,0,-1
 94 614 l 2,1,2
 81 636 81 636 69 644.5 c 128,-1,3
 57 653 57 653 34 656 c 2,4,-1
 -4 661 l 1,5,-1
 -4 720 l 1,6,-1
 265 720 l 1,7,-1
 265 662 l 1,8,-1
 215 656 l 1,9,10
 183 651 183 651 183 637 c 0,11,12
 183 630 183 630 191 614 c 2,13,-1
 348 331 l 1,14,-1
 498 614 l 2,15,16
 505 627 505 627 505 635 c 0,17,18
 505 650 505 650 470 655 c 2,19,-1
 420 661 l 1,20,-1
 420 720 l 1,21,-1
 668 720 l 1,22,-1
 668 661 l 1,23,-1
 630 656 l 2,24,25
 610 653 610 653 601.5 645.5 c 128,-1,26
 593 638 593 638 580 614 c 2,27,-1
 378 256 l 1,28,-1
 378 106 l 2,29,30
 378 86 378 86 383.5 78.5 c 128,-1,31
 389 71 389 71 407 68 c 2,32,-1
 464 59 l 1,33,-1
 464 0 l 1,34,-1
 206 0 l 1,35,-1
 206 59 l 1,36,-1
 263 68 l 2,37,38
 281 71 281 71 286.5 78.5 c 128,-1,39
 292 86 292 86 292 106 c 2,40,-1
 292 254 l 1,0,-1
282 878.5 m 128,-1,42
 292 865 292 865 292 833.5 c 128,-1,43
 292 802 292 802 278.5 791 c 128,-1,44
 265 780 265 780 234 780 c 128,-1,45
 203 780 203 780 191.5 792 c 128,-1,46
 180 804 180 804 180 834 c 128,-1,47
 180 864 180 864 193.5 878 c 128,-1,48
 207 892 207 892 239.5 892 c 128,-1,41
 272 892 272 892 282 878.5 c 128,-1,42
487 878.5 m 128,-1,50
 497 865 497 865 497 833.5 c 128,-1,51
 497 802 497 802 483.5 791 c 128,-1,52
 470 780 470 780 439 780 c 128,-1,53
 408 780 408 780 396.5 792 c 128,-1,54
 385 804 385 804 385 834 c 128,-1,55
 385 864 385 864 398.5 878 c 128,-1,56
 412 892 412 892 444.5 892 c 128,-1,49
 477 892 477 892 487 878.5 c 128,-1,50
EndSplineSet
EndChar

StartChar: fraction
Encoding: 8260 8260 188
Width: 170
Flags: MW
HStem: 0 21G<-170 -110 -170 -170> 710 20G<279 340 340 340>
LayerCount: 2
Fore
SplineSet
279 730 m 1,0,-1
 340 730 l 1,1,-1
 -110 0 l 1,2,-1
 -170 0 l 1,3,-1
 279 730 l 1,0,-1
EndSplineSet
EndChar

StartChar: Euro
Encoding: 8364 8364 189
Width: 579
Flags: MW
HStem: -10 78<315.5 396.5> 234 58<10 76 10 82 10 76 177 379 177 177> 358 58<10 79 10 75 175 412> 613 79<316.5 388>
LayerCount: 2
Fore
SplineSet
10 358 m 1,0,-1
 10 416 l 1,1,-1
 79 416 l 1,2,3
 94 546 94 546 164 619 c 128,-1,4
 234 692 234 692 342.5 692 c 0,5,6
 451 692 451 692 550 641 c 1,7,-1
 524 571 l 1,8,9
 443 613 443 613 351 613 c 0,10,11
 302 613 302 613 276 601 c 128,-1,12
 250 589 250 589 225 562 c 0,13,14
 191 525 191 525 175 416 c 1,15,-1
 430 416 l 1,16,-1
 412 358 l 1,17,-1
 169 358 l 1,18,-1
 169 341 l 2,19,20
 169 307 169 307 170 292 c 1,21,-1
 394 292 l 1,22,-1
 379 234 l 1,23,-1
 177 234 l 1,24,25
 193 148 193 148 240.5 108 c 128,-1,26
 288 68 288 68 360.5 68 c 0,27,28
 433 68 433 68 528 113 c 1,29,-1
 548 49 l 1,30,31
 446 -10 446 -10 352 -10 c 0,32,33
 120 -10 120 -10 82 234 c 1,34,-1
 10 234 l 1,35,-1
 10 292 l 1,36,-1
 76 292 l 1,37,38
 75 308 75 308 75 341 c 2,39,-1
 75 358 l 1,40,-1
 10 358 l 1,0,-1
EndSplineSet
EndChar

StartChar: guilsinglleft
Encoding: 8249 8249 190
Width: 312
Flags: MW
HStem: 44 21G<205 205> 410 20G<205 205>
LayerCount: 2
Fore
SplineSet
205 44 m 1,0,-1
 56 237 l 1,1,-1
 205 430 l 1,2,3
 209 426 209 426 215 419.5 c 128,-1,4
 221 413 221 413 225 409 c 0,5,6
 235 399 235 399 235 387 c 128,-1,7
 235 375 235 375 227 360 c 1,8,-1
 150 237 l 1,9,-1
 227 114 l 1,10,11
 235 99 235 99 235 90 c 128,-1,12
 235 81 235 81 231.5 74 c 128,-1,13
 228 67 228 67 225.5 64 c 128,-1,14
 223 61 223 61 214.5 53 c 128,-1,15
 206 45 206 45 205 44 c 1,0,-1
EndSplineSet
EndChar

StartChar: guilsinglright
Encoding: 8250 8250 191
Width: 312
Flags: MW
HStem: 44 21G<86 86> 410 20G<86 86>
LayerCount: 2
Fore
SplineSet
235 237 m 1,0,-1
 86 44 l 1,1,2
 85 45 85 45 76.5 53 c 128,-1,3
 68 61 68 61 65.5 64 c 0,4,5
 56 75.4 56 75.4 56 87.2 c 128,-1,6
 56 99 56 99 64 114 c 1,7,-1
 141 237 l 1,8,-1
 64 360 l 1,9,10
 56 375 56 375 56 384.5 c 128,-1,11
 56 394 56 394 60 400.5 c 128,-1,12
 64 407 64 407 73.5 416.5 c 128,-1,13
 83 426 83 426 86 430 c 1,14,-1
 235 237 l 1,0,-1
EndSplineSet
EndChar

StartChar: fi
Encoding: 64257 64257 192
Width: 590
Flags: MW
HStem: 0 21G<40 300 40 40 330 565 330 330> 428 57<37 120 199 317> 607 183<254 480 254 402> 718 72<261 308.5>
VStem: 120 79<98 428 485 590 590 643> 408 79<98 384 384 398>
LayerCount: 2
Fore
SplineSet
487 485 m 1,0,-1
 487 98 l 2,1,2
 487 76 487 76 491 69 c 128,-1,3
 495 62 495 62 510 60 c 2,4,-1
 565 54 l 1,5,-1
 565 0 l 1,6,-1
 330 0 l 1,7,-1
 330 54 l 1,8,-1
 385 60 l 2,9,10
 400 62 400 62 404 69 c 128,-1,11
 408 76 408 76 408 98 c 2,12,-1
 408 384 l 2,13,14
 408 406 408 406 404 413.5 c 128,-1,15
 400 421 400 421 385 422 c 2,16,-1
 317 428 l 1,17,-1
 199 428 l 1,18,-1
 199 98 l 2,19,20
 199 76 199 76 203 68.5 c 128,-1,21
 207 61 207 61 222 60 c 2,22,-1
 300 53 l 1,23,-1
 300 0 l 1,24,-1
 40 0 l 1,25,-1
 40 54 l 1,26,-1
 97 60 l 2,27,28
 112 61 112 61 116 68.5 c 128,-1,29
 120 76 120 76 120 98 c 2,30,-1
 120 428 l 1,31,-1
 37 428 l 1,32,-1
 37 476 l 1,33,-1
 120 485 l 1,34,-1
 120 590 l 2,35,36
 120 687 120 687 171.5 738.5 c 128,-1,37
 223 790 223 790 309 790 c 0,38,39
 418 790 418 790 496 749 c 1,40,-1
 480 607 l 1,41,-1
 402 607 l 1,42,-1
 386 697 l 1,43,44
 338 718 338 718 291.5 718 c 0,45,46
 245 718 245 718 222 700 c 128,-1,47
 199 682 199 682 199 643 c 2,48,-1
 199 485 l 1,49,-1
 487 485 l 1,0,-1
EndSplineSet
EndChar

StartChar: fl
Encoding: 64258 64258 193
Width: 597
Flags: MW
HStem: 0 21G<40 300 40 40 330 565 330 330> 428 62 465 20G<118 120 120 120 199 199> 720 70<254 318.5>
VStem: 120 79<98 428 485 590 590 643> 120 207<98 495 428 495 485 495 428 590 428 657> 408 79<98 676 676 676>
LayerCount: 2
Fore
SplineSet
486 736 m 1,0,-1
 487 736 l 1,1,-1
 487 98 l 2,2,3
 487 76 487 76 491 69 c 128,-1,4
 495 62 495 62 510 60 c 2,5,-1
 565 54 l 1,6,-1
 565 0 l 1,7,-1
 330 0 l 1,8,-1
 330 54 l 1,9,-1
 385 60 l 2,10,11
 400 62 400 62 404 69 c 128,-1,12
 408 76 408 76 408 98 c 2,13,-1
 408 676 l 1,14,15
 359 720 359 720 279 720 c 0,16,17
 199 720 199 720 199 643 c 2,18,-1
 199 485 l 1,19,-1
 327 495 l 1,20,-1
 327 428 l 1,21,-1
 199 428 l 1,22,-1
 199 98 l 2,23,24
 199 76 199 76 203 68.5 c 128,-1,25
 207 61 207 61 222 60 c 2,26,-1
 300 53 l 1,27,-1
 300 0 l 1,28,-1
 40 0 l 1,29,-1
 40 54 l 1,30,-1
 97 60 l 2,31,32
 112 61 112 61 116 68.5 c 128,-1,33
 120 76 120 76 120 98 c 2,34,-1
 120 428 l 1,35,-1
 37 428 l 1,36,-1
 37 476 l 1,37,-1
 118 485 l 1,38,-1
 120 485 l 1,39,-1
 120 590 l 2,40,41
 120 687 120 687 171.5 738.5 c 128,-1,42
 223 790 223 790 307 790 c 0,43,44
 391 790 391 790 486 749 c 1,45,-1
 486 736 l 1,0,-1
EndSplineSet
EndChar

StartChar: periodcentered
Encoding: 183 183 194
Width: 218
Flags: MW
HStem: 227 118<89.5 125.5>
VStem: 50 118<262 301.5>
LayerCount: 2
Fore
SplineSet
158 330.5 m 128,-1,1
 168 316 168 316 168 283 c 128,-1,2
 168 250 168 250 153.5 238.5 c 128,-1,3
 139 227 139 227 102 227 c 0,4,5
 50 227 50 227 50 280 c 0,6,7
 50 315 50 315 63.5 330 c 128,-1,8
 77 345 77 345 112.5 345 c 128,-1,0
 148 345 148 345 158 330.5 c 128,-1,1
EndSplineSet
EndChar

StartChar: quotesinglbase
Encoding: 8218 8218 195
Width: 225
Flags: MW
HStem: -135 21G<72 72> 93 20G<91.5 136>
VStem: 50 126<32.5 49 -13 75>
LayerCount: 2
Fore
SplineSet
176 26 m 0,0,1
 176 -28 176 -28 145.5 -70.5 c 128,-1,2
 115 -113 115 -113 72 -135 c 1,3,-1
 40 -104 l 1,4,5
 112 -59 112 -59 112 -11 c 1,6,7
 78 -7 78 -7 64 7.5 c 128,-1,8
 50 22 50 22 50 53 c 0,9,10
 50 113 50 113 109 113 c 0,11,12
 176 113 176 113 176 26 c 0,0,1
EndSplineSet
EndChar

StartChar: quotedblbase
Encoding: 8222 8222 196
Width: 416
Flags: MW
HStem: -135 21G<72 72 263 263> 93 20G<91.5 136 282.5 327>
VStem: 50 126<32.5 49 -13 75> 241 126<32.5 49 -13 75>
LayerCount: 2
Fore
SplineSet
176 26 m 0,0,1
 176 -28 176 -28 145.5 -70.5 c 128,-1,2
 115 -113 115 -113 72 -135 c 1,3,-1
 40 -104 l 1,4,5
 112 -59 112 -59 112 -11 c 1,6,7
 78 -7 78 -7 64 7.5 c 128,-1,8
 50 22 50 22 50 53 c 0,9,10
 50 113 50 113 109 113 c 0,11,12
 176 113 176 113 176 26 c 0,0,1
367 26 m 0,13,14
 367 -28 367 -28 336.5 -70.5 c 128,-1,15
 306 -113 306 -113 263 -135 c 1,16,-1
 231 -104 l 1,17,18
 303 -59 303 -59 303 -11 c 1,19,20
 269 -7 269 -7 255 7.5 c 128,-1,21
 241 22 241 22 241 53 c 0,22,23
 241 113 241 113 300 113 c 0,24,25
 367 113 367 113 367 26 c 0,13,14
EndSplineSet
EndChar

StartChar: Acircumflex
Encoding: 194 194 197
Width: 663
Flags: MW
HStem: 0 21G<-15 225 -15 -15 422 679 422 422> 237 70<214 430 214 455 190 430> 700 20G<285 378 378 378> 893 20G<294 369 369 369>
LayerCount: 2
Fore
SplineSet
294 913 m 1,0,-1
 369 913 l 1,1,-1
 483 778 l 1,2,-1
 445 746 l 1,3,-1
 331 852 l 1,4,-1
 218 746 l 1,5,-1
 179 778 l 1,6,-1
 294 913 l 1,0,-1
70 112 m 2,7,-1
 285 720 l 1,8,-1
 378 720 l 1,9,-1
 592 112 l 2,10,11
 601 87 601 87 610.5 78.5 c 128,-1,12
 620 70 620 70 640 66 c 2,13,-1
 679 59 l 1,14,-1
 679 0 l 1,15,-1
 422 0 l 1,16,-1
 422 57 l 1,17,-1
 477 66 l 2,18,19
 503 70 503 70 503 90 c 0,20,21
 503 99 503 99 499 110 c 2,22,-1
 455 237 l 1,23,-1
 190 237 l 1,24,-1
 148 113 l 2,25,26
 144 102 144 102 144 92 c 0,27,28
 144 70 144 70 171 66 c 2,29,-1
 225 57 l 1,30,-1
 225 0 l 1,31,-1
 -15 0 l 1,32,-1
 -15 59 l 1,33,-1
 23 66 l 2,34,35
 43 70 43 70 52 78.5 c 128,-1,36
 61 87 61 87 70 112 c 2,7,-1
333 589 m 1,37,-1
 322 634 l 1,38,-1
 311 589 l 1,39,-1
 214 307 l 1,40,-1
 430 307 l 1,41,-1
 333 589 l 1,37,-1
EndSplineSet
EndChar

StartChar: Ecircumflex
Encoding: 202 202 198
Width: 620
Flags: MW
HStem: 0 73<226 459 459 471 226 576> 0 177<503 570 503 576> 339 73<226 460 226 460> 548 172<502 566 502 502> 647 73<226 458 226 226> 893 20G<295 370 370 370>
VStem: 140 86<107 339 412 618 618 630.5> 500 73
LayerCount: 2
Fore
SplineSet
295 913 m 1,0,-1
 370 913 l 1,1,-1
 484 778 l 1,2,-1
 446 746 l 1,3,-1
 332 852 l 1,4,-1
 219 746 l 1,5,-1
 180 778 l 1,6,-1
 295 913 l 1,0,-1
576 0 m 1,7,-1
 58 0 l 1,8,-1
 58 60 l 1,9,-1
 111 69 l 2,10,11
 129 72 129 72 134.5 79.5 c 128,-1,12
 140 87 140 87 140 107 c 2,13,-1
 140 618 l 2,14,15
 140 638 140 638 134.5 647 c 128,-1,16
 129 656 129 656 111 658 c 2,17,-1
 58 664 l 1,18,-1
 58 720 l 1,19,-1
 572 720 l 1,20,-1
 566 548 l 1,21,-1
 502 548 l 1,22,-1
 496 618 l 2,23,24
 495 636 495 636 486 641.5 c 128,-1,25
 477 647 477 647 458 647 c 2,26,-1
 226 647 l 1,27,-1
 226 412 l 1,28,-1
 460 412 l 1,29,-1
 460 339 l 1,30,-1
 226 339 l 1,31,-1
 226 73 l 1,32,-1
 459 73 l 2,33,34
 478 73 478 73 487 78.5 c 128,-1,35
 496 84 496 84 497 102 c 2,36,-1
 503 177 l 1,37,-1
 570 177 l 1,38,-1
 576 0 l 1,7,-1
EndSplineSet
EndChar

